G04 Layer_Color=255*
%FSLAX25Y25*%
%MOIN*%
G70*
G01*
G75*
%ADD10R,0.03937X0.03543*%
%ADD11R,0.03937X0.03937*%
%ADD12R,0.05118X0.05906*%
%ADD13R,0.04724X0.05512*%
%ADD14R,0.05512X0.04724*%
%ADD15R,0.03543X0.03937*%
%ADD16O,0.09843X0.02756*%
%ADD17R,0.05906X0.02362*%
%ADD18R,0.05906X0.05118*%
%ADD19R,0.05118X0.07087*%
%ADD20R,0.03200X0.03200*%
%ADD21R,0.03200X0.03200*%
%ADD22R,0.03937X0.03937*%
%ADD23R,0.04331X0.02559*%
%ADD24R,0.04528X0.02362*%
%ADD25R,0.07480X0.07087*%
%ADD26R,0.05315X0.01575*%
%ADD27R,0.06299X0.08268*%
%ADD28R,0.07480X0.07480*%
%ADD29R,0.03937X0.04331*%
%ADD30R,0.05118X0.10630*%
%ADD31R,0.05118X0.02362*%
%ADD32R,0.08661X0.07874*%
%ADD33R,0.05709X0.02165*%
%ADD34R,0.02362X0.04724*%
%ADD35R,0.04724X0.07087*%
%ADD36O,0.08661X0.02362*%
%ADD37R,0.02362X0.04528*%
%ADD38R,0.04331X0.03937*%
%ADD39O,0.08268X0.01181*%
%ADD40O,0.01181X0.08268*%
%ADD41R,0.11811X0.17008*%
%ADD42O,0.07087X0.01772*%
%ADD43R,0.10630X0.05512*%
%ADD44R,0.06299X0.13780*%
%ADD45R,0.03740X0.03543*%
%ADD46R,0.03740X0.03543*%
%ADD47R,0.09449X0.03937*%
%ADD48R,0.09449X0.12992*%
%ADD49R,0.05709X0.02165*%
%ADD50R,0.05709X0.02165*%
%ADD51R,0.09843X0.02953*%
%ADD52R,0.07087X0.09449*%
%ADD58C,0.04724*%
%ADD59R,0.04724X0.04724*%
%ADD60C,0.06496*%
%ADD61R,0.06496X0.06496*%
%ADD62C,0.09646*%
%ADD63R,0.05906X0.05906*%
%ADD64C,0.05906*%
%ADD65C,0.20000*%
%ADD66C,0.02800*%
%ADD67R,0.05906X0.05906*%
%ADD68R,0.06200X0.06200*%
%ADD69C,0.06200*%
%ADD70R,0.06200X0.06200*%
%ADD71C,0.03201*%
%ADD72C,0.03200*%
G54D10*
X102500Y224153D02*
D03*
Y230847D02*
D03*
X90000Y224153D02*
D03*
Y230847D02*
D03*
X351500Y88346D02*
D03*
Y81653D02*
D03*
X342500Y88346D02*
D03*
Y81653D02*
D03*
X612500Y87846D02*
D03*
Y81154D02*
D03*
X594500Y103347D02*
D03*
Y96653D02*
D03*
X585000Y95846D02*
D03*
Y89153D02*
D03*
X285000Y-10000D02*
D03*
Y-3307D02*
D03*
X295000Y-10000D02*
D03*
Y-3307D02*
D03*
X305000Y-10000D02*
D03*
Y-3307D02*
D03*
X315000Y-10000D02*
D03*
Y-3307D02*
D03*
X325000Y-10000D02*
D03*
Y-3307D02*
D03*
X275000Y-10000D02*
D03*
Y-3307D02*
D03*
X314500Y197653D02*
D03*
Y204346D02*
D03*
X321500Y197653D02*
D03*
Y204346D02*
D03*
X418051Y134193D02*
D03*
Y127500D02*
D03*
X315000Y81653D02*
D03*
Y88346D02*
D03*
X322500Y81653D02*
D03*
Y88346D02*
D03*
G54D11*
X115000Y224350D02*
D03*
Y230650D02*
D03*
Y210650D02*
D03*
Y204350D02*
D03*
X102500Y210650D02*
D03*
Y204350D02*
D03*
X0Y178150D02*
D03*
Y171850D02*
D03*
X334000Y88150D02*
D03*
Y81850D02*
D03*
X350000Y96500D02*
D03*
Y102799D02*
D03*
X625000Y93150D02*
D03*
Y86850D02*
D03*
Y73150D02*
D03*
Y66850D02*
D03*
X137500Y-3150D02*
D03*
Y3150D02*
D03*
X127500Y-3150D02*
D03*
Y3150D02*
D03*
X100000Y-3150D02*
D03*
Y3150D02*
D03*
X150000Y3150D02*
D03*
Y-3150D02*
D03*
X361000Y104650D02*
D03*
Y98350D02*
D03*
X359500Y195350D02*
D03*
Y201650D02*
D03*
X337500Y195350D02*
D03*
Y201650D02*
D03*
X317500Y112150D02*
D03*
Y105850D02*
D03*
X332500Y104650D02*
D03*
Y98350D02*
D03*
X463051Y131201D02*
D03*
Y137500D02*
D03*
X241000Y26850D02*
D03*
Y33150D02*
D03*
X287500Y162500D02*
D03*
Y168799D02*
D03*
G54D12*
X165154Y205000D02*
D03*
X171846D02*
D03*
X184153Y192500D02*
D03*
X190847D02*
D03*
X26193Y100000D02*
D03*
X19500D02*
D03*
X69153Y170000D02*
D03*
X75846D02*
D03*
X75846Y180000D02*
D03*
X69153D02*
D03*
X69153Y200000D02*
D03*
X75846D02*
D03*
X75846Y210000D02*
D03*
X69153D02*
D03*
X69153Y132500D02*
D03*
X75846D02*
D03*
X75846Y142500D02*
D03*
X69153D02*
D03*
X253740Y135000D02*
D03*
X260433D02*
D03*
X497346Y-4000D02*
D03*
X490654D02*
D03*
X458653Y23500D02*
D03*
X465346D02*
D03*
X458653Y-4000D02*
D03*
X465346D02*
D03*
X465346Y33000D02*
D03*
X458653D02*
D03*
G54D13*
X143543Y227500D02*
D03*
X136457D02*
D03*
X172043Y192500D02*
D03*
X164957D02*
D03*
X26043Y-7500D02*
D03*
X18957D02*
D03*
X36043Y170000D02*
D03*
X28957D02*
D03*
X28957Y180000D02*
D03*
X36043D02*
D03*
X36043Y200000D02*
D03*
X28957D02*
D03*
X28957Y210000D02*
D03*
X36043D02*
D03*
X18957Y80000D02*
D03*
X26043D02*
D03*
X18957Y70000D02*
D03*
X26043D02*
D03*
X36043Y142500D02*
D03*
X28957D02*
D03*
X18957Y55000D02*
D03*
X26043D02*
D03*
X67500Y-25000D02*
D03*
X60413D02*
D03*
X28957Y132000D02*
D03*
X36043D02*
D03*
X87087Y-10000D02*
D03*
X80000D02*
D03*
X18957Y-20000D02*
D03*
X26043D02*
D03*
X428543Y236500D02*
D03*
X421457D02*
D03*
X421457Y225000D02*
D03*
X428543D02*
D03*
X458457Y5000D02*
D03*
X465543D02*
D03*
X465543Y14000D02*
D03*
X458457D02*
D03*
X323543Y66500D02*
D03*
X316457D02*
D03*
X226043Y255000D02*
D03*
X218957D02*
D03*
G54D14*
X137500Y178957D02*
D03*
Y186043D02*
D03*
X150000Y178957D02*
D03*
Y186043D02*
D03*
X597500Y51043D02*
D03*
Y43957D02*
D03*
X377500Y216043D02*
D03*
Y208957D02*
D03*
X209000Y51457D02*
D03*
Y58543D02*
D03*
X191500Y26457D02*
D03*
Y33543D02*
D03*
X263000Y58543D02*
D03*
Y51457D02*
D03*
X253000Y33543D02*
D03*
Y26457D02*
D03*
X389000Y17957D02*
D03*
Y25043D02*
D03*
X389000Y9500D02*
D03*
Y2413D02*
D03*
X615000Y25457D02*
D03*
Y32543D02*
D03*
X615000Y10543D02*
D03*
Y3457D02*
D03*
X442500Y228957D02*
D03*
Y236043D02*
D03*
X557500Y231043D02*
D03*
Y223957D02*
D03*
X462500Y206457D02*
D03*
Y213543D02*
D03*
X577500Y231043D02*
D03*
Y223957D02*
D03*
X466500Y180000D02*
D03*
Y187087D02*
D03*
X476500Y180000D02*
D03*
Y187087D02*
D03*
X486500Y180000D02*
D03*
Y187087D02*
D03*
X496500Y180000D02*
D03*
Y187087D02*
D03*
X506500Y180000D02*
D03*
Y187087D02*
D03*
X516500Y180000D02*
D03*
Y187087D02*
D03*
X472500Y226457D02*
D03*
Y233543D02*
D03*
X547500Y231043D02*
D03*
Y223957D02*
D03*
X567500Y231043D02*
D03*
Y223957D02*
D03*
X587500Y231043D02*
D03*
Y223957D02*
D03*
X492500Y226457D02*
D03*
Y233543D02*
D03*
G54D15*
X49154Y115000D02*
D03*
X55847D02*
D03*
X471654Y-25000D02*
D03*
X478346D02*
D03*
X78347Y67500D02*
D03*
X71653D02*
D03*
X17654Y10000D02*
D03*
X24347D02*
D03*
X68347Y232500D02*
D03*
X61654D02*
D03*
X55847Y67500D02*
D03*
X49154D02*
D03*
X49154Y95000D02*
D03*
X55847D02*
D03*
X184153Y205000D02*
D03*
X190847D02*
D03*
X430500Y148000D02*
D03*
X437193D02*
D03*
X307846Y176500D02*
D03*
X301153D02*
D03*
X307846Y190500D02*
D03*
X301153D02*
D03*
X307846Y183500D02*
D03*
X301153D02*
D03*
X394153Y107500D02*
D03*
X400846D02*
D03*
X82653Y43500D02*
D03*
X89346D02*
D03*
G54D16*
X150000Y200000D02*
D03*
Y205000D02*
D03*
Y210000D02*
D03*
Y215000D02*
D03*
X130000Y200000D02*
D03*
Y205000D02*
D03*
Y210000D02*
D03*
Y215000D02*
D03*
G54D17*
X41201Y-5000D02*
D03*
Y-15000D02*
D03*
X68761D02*
D03*
X68800Y-5000D02*
D03*
G54D18*
X602500Y25654D02*
D03*
Y32346D02*
D03*
X398500Y18154D02*
D03*
Y24846D02*
D03*
X400000Y347D02*
D03*
Y-6346D02*
D03*
X597500Y224153D02*
D03*
Y230847D02*
D03*
X557500Y206653D02*
D03*
Y213347D02*
D03*
X577500Y206653D02*
D03*
Y213347D02*
D03*
X38500Y17653D02*
D03*
Y24346D02*
D03*
G54D19*
X253583Y221000D02*
D03*
X265000D02*
D03*
X70209Y43500D02*
D03*
X58791D02*
D03*
G54D20*
X246250Y14500D02*
D03*
X238750D02*
D03*
X242500Y5500D02*
D03*
X171250Y14500D02*
D03*
X163750D02*
D03*
X167500Y5500D02*
D03*
G54D21*
X117500Y-3750D02*
D03*
Y3750D02*
D03*
X108500Y0D02*
D03*
G54D22*
X307650Y127500D02*
D03*
X301350D02*
D03*
X307650Y148500D02*
D03*
X301350D02*
D03*
X307650Y141500D02*
D03*
X301350D02*
D03*
X307650Y134500D02*
D03*
X301350D02*
D03*
X35650Y122000D02*
D03*
X29350D02*
D03*
X188150Y10000D02*
D03*
X181850D02*
D03*
X199350D02*
D03*
X205650D02*
D03*
X216850D02*
D03*
X223150D02*
D03*
X251850Y-2500D02*
D03*
X258150D02*
D03*
X307650Y162500D02*
D03*
X301350D02*
D03*
X307650Y155500D02*
D03*
X301350D02*
D03*
X307650Y169500D02*
D03*
X301350D02*
D03*
X396850Y164300D02*
D03*
X403150D02*
D03*
X396850Y130900D02*
D03*
X403150D02*
D03*
G54D23*
X57224Y178740D02*
D03*
Y171260D02*
D03*
X47776D02*
D03*
Y175000D02*
D03*
Y178740D02*
D03*
X57224Y208740D02*
D03*
Y201260D02*
D03*
X47776D02*
D03*
Y205000D02*
D03*
Y208740D02*
D03*
X57224Y141240D02*
D03*
Y133760D02*
D03*
X47776D02*
D03*
Y137500D02*
D03*
Y141240D02*
D03*
G54D24*
X612500Y100000D02*
D03*
X603642Y96260D02*
D03*
Y103740D02*
D03*
G54D25*
X648832Y95866D02*
D03*
Y64370D02*
D03*
G54D26*
X638300Y75000D02*
D03*
Y77559D02*
D03*
Y85236D02*
D03*
Y82677D02*
D03*
Y80118D02*
D03*
G54D27*
X638792Y67913D02*
D03*
Y92323D02*
D03*
G54D28*
X648832Y75394D02*
D03*
Y84842D02*
D03*
G54D29*
X576500Y89153D02*
D03*
Y95846D02*
D03*
X96000Y30154D02*
D03*
Y36846D02*
D03*
G54D30*
X220000Y85000D02*
D03*
X208583D02*
D03*
Y102500D02*
D03*
X220000D02*
D03*
X227083Y137500D02*
D03*
X238500D02*
D03*
X208583Y120000D02*
D03*
X220000D02*
D03*
G54D31*
X420866Y255000D02*
D03*
X429134Y258740D02*
D03*
Y251260D02*
D03*
X295000Y70000D02*
D03*
X303268Y73740D02*
D03*
Y66260D02*
D03*
G54D32*
X395000Y206594D02*
D03*
Y218406D02*
D03*
G54D33*
X287000Y113000D02*
D03*
X277748D02*
D03*
X287000Y103000D02*
D03*
X277748D02*
D03*
G54D34*
X285000Y148500D02*
D03*
Y123697D02*
D03*
X288543D02*
D03*
Y148500D02*
D03*
G54D35*
X309224Y117374D02*
D03*
Y101626D02*
D03*
X299776D02*
D03*
Y117374D02*
D03*
G54D36*
X449449Y122500D02*
D03*
Y127500D02*
D03*
Y132500D02*
D03*
Y137500D02*
D03*
X430551Y122500D02*
D03*
Y127500D02*
D03*
Y132500D02*
D03*
Y137500D02*
D03*
X257500Y85000D02*
D03*
Y90000D02*
D03*
Y95000D02*
D03*
Y100000D02*
D03*
Y105000D02*
D03*
Y110000D02*
D03*
Y115000D02*
D03*
Y120000D02*
D03*
X238602Y85000D02*
D03*
Y90000D02*
D03*
Y95000D02*
D03*
Y100000D02*
D03*
Y105000D02*
D03*
Y110000D02*
D03*
Y115000D02*
D03*
Y120000D02*
D03*
G54D37*
X226000Y59429D02*
D03*
X229740Y50571D02*
D03*
X222260D02*
D03*
X207000Y34429D02*
D03*
X210740Y25571D02*
D03*
X203260D02*
D03*
X246000Y59429D02*
D03*
X249740Y50571D02*
D03*
X242260D02*
D03*
X226000Y34429D02*
D03*
X229740Y25571D02*
D03*
X222260D02*
D03*
X269000Y25571D02*
D03*
X265260Y34429D02*
D03*
X272740D02*
D03*
G54D38*
X394153Y100000D02*
D03*
X400846D02*
D03*
G54D39*
X322579Y173622D02*
D03*
Y171653D02*
D03*
Y169685D02*
D03*
Y167717D02*
D03*
Y165748D02*
D03*
Y163779D02*
D03*
Y161811D02*
D03*
Y159843D02*
D03*
Y157874D02*
D03*
Y155905D02*
D03*
Y153937D02*
D03*
Y151969D02*
D03*
Y150000D02*
D03*
Y148031D02*
D03*
Y146063D02*
D03*
Y144095D02*
D03*
Y142126D02*
D03*
Y140157D02*
D03*
Y138189D02*
D03*
Y136221D02*
D03*
Y134252D02*
D03*
Y132283D02*
D03*
Y130315D02*
D03*
Y128347D02*
D03*
Y126378D02*
D03*
X382421D02*
D03*
Y128347D02*
D03*
Y130315D02*
D03*
Y132283D02*
D03*
Y134252D02*
D03*
Y136221D02*
D03*
Y138189D02*
D03*
Y140157D02*
D03*
Y142126D02*
D03*
Y144095D02*
D03*
Y146063D02*
D03*
Y148031D02*
D03*
Y150000D02*
D03*
Y151969D02*
D03*
Y153937D02*
D03*
Y155905D02*
D03*
Y157874D02*
D03*
Y159843D02*
D03*
Y161811D02*
D03*
Y163779D02*
D03*
Y165748D02*
D03*
Y167717D02*
D03*
Y169685D02*
D03*
Y171653D02*
D03*
Y173622D02*
D03*
G54D40*
X328878Y120079D02*
D03*
X330847D02*
D03*
X332815D02*
D03*
X334784D02*
D03*
X336752D02*
D03*
X338720D02*
D03*
X340689D02*
D03*
X342657D02*
D03*
X344626D02*
D03*
X346595D02*
D03*
X348563D02*
D03*
X350532D02*
D03*
X352500D02*
D03*
X354468D02*
D03*
X356437D02*
D03*
X358405D02*
D03*
X360374D02*
D03*
X362343D02*
D03*
X364311D02*
D03*
X366280D02*
D03*
X368248D02*
D03*
X370216D02*
D03*
X372185D02*
D03*
X374153D02*
D03*
X376122D02*
D03*
Y179921D02*
D03*
X374153D02*
D03*
X372185D02*
D03*
X370216D02*
D03*
X368248D02*
D03*
X366280D02*
D03*
X364311D02*
D03*
X362343D02*
D03*
X360374D02*
D03*
X358405D02*
D03*
X356437D02*
D03*
X354468D02*
D03*
X352500D02*
D03*
X350532D02*
D03*
X348563D02*
D03*
X346595D02*
D03*
X344626D02*
D03*
X342657D02*
D03*
X340689D02*
D03*
X338720D02*
D03*
X336752D02*
D03*
X334784D02*
D03*
X332815D02*
D03*
X330847D02*
D03*
X328878D02*
D03*
G54D41*
X430000Y20000D02*
D03*
G54D42*
X442205Y5925D02*
D03*
Y8484D02*
D03*
Y11043D02*
D03*
Y13602D02*
D03*
Y16161D02*
D03*
Y18721D02*
D03*
Y21280D02*
D03*
Y23839D02*
D03*
Y26398D02*
D03*
Y28957D02*
D03*
Y31516D02*
D03*
Y34075D02*
D03*
X417795Y5925D02*
D03*
Y8484D02*
D03*
Y11043D02*
D03*
Y13602D02*
D03*
Y16161D02*
D03*
Y18721D02*
D03*
Y21280D02*
D03*
Y23839D02*
D03*
Y26398D02*
D03*
Y28957D02*
D03*
Y31516D02*
D03*
Y34075D02*
D03*
G54D43*
X416000Y-4000D02*
D03*
Y-22110D02*
D03*
Y44000D02*
D03*
Y62110D02*
D03*
G54D44*
X490000Y12719D02*
D03*
Y34282D02*
D03*
X367500Y26281D02*
D03*
Y4719D02*
D03*
G54D45*
X453248Y236240D02*
D03*
Y228760D02*
D03*
X473248Y213740D02*
D03*
Y206260D02*
D03*
G54D46*
X462500Y232500D02*
D03*
X482500Y210000D02*
D03*
G54D47*
X56583Y28055D02*
D03*
Y19000D02*
D03*
Y9945D02*
D03*
G54D48*
X79417Y19000D02*
D03*
G54D49*
X621732Y46260D02*
D03*
G54D50*
X621732Y50000D02*
D03*
Y53740D02*
D03*
X613268D02*
D03*
Y46260D02*
D03*
G54D51*
X245000Y205000D02*
D03*
Y200000D02*
D03*
Y195000D02*
D03*
Y190000D02*
D03*
Y185000D02*
D03*
X261000D02*
D03*
Y190000D02*
D03*
Y195000D02*
D03*
Y200000D02*
D03*
Y205000D02*
D03*
G54D52*
X522500Y1929D02*
D03*
Y18071D02*
D03*
X575000Y1929D02*
D03*
Y18071D02*
D03*
X557500Y1929D02*
D03*
Y18071D02*
D03*
X540000Y1929D02*
D03*
Y18071D02*
D03*
G54D58*
X175000Y225000D02*
D03*
X185000D02*
D03*
X195000Y172500D02*
D03*
X185000D02*
D03*
G54D59*
X195000Y225000D02*
D03*
X175000Y172500D02*
D03*
G54D60*
X385000Y255000D02*
D03*
Y245000D02*
D03*
X375000Y255000D02*
D03*
Y245000D02*
D03*
X365000Y255000D02*
D03*
Y245000D02*
D03*
X355000Y255000D02*
D03*
Y245000D02*
D03*
X345000Y255000D02*
D03*
Y245000D02*
D03*
X335000Y255000D02*
D03*
Y245000D02*
D03*
X325000Y255000D02*
D03*
Y245000D02*
D03*
X315000Y255000D02*
D03*
Y245000D02*
D03*
X305000Y255000D02*
D03*
Y245000D02*
D03*
X295000Y255000D02*
D03*
Y245000D02*
D03*
X285000Y255000D02*
D03*
Y245000D02*
D03*
X275000Y255000D02*
D03*
Y245000D02*
D03*
X265000D02*
D03*
G54D61*
Y255000D02*
D03*
G54D62*
X106653Y95000D02*
D03*
X185000D02*
D03*
G54D63*
X572500Y147500D02*
D03*
Y177500D02*
D03*
G54D64*
Y157500D02*
D03*
Y167500D02*
D03*
X562500Y147500D02*
D03*
Y157500D02*
D03*
Y167500D02*
D03*
Y177500D02*
D03*
X486500Y132500D02*
D03*
X496500Y122500D02*
D03*
Y132500D02*
D03*
X506500Y122500D02*
D03*
Y132500D02*
D03*
X516500Y122500D02*
D03*
Y132500D02*
D03*
X210000Y-15000D02*
D03*
X200000D02*
D03*
X190000D02*
D03*
X180000D02*
D03*
X220000Y-25000D02*
D03*
X210000D02*
D03*
X200000D02*
D03*
X190000D02*
D03*
X180000D02*
D03*
X265000D02*
D03*
X275000D02*
D03*
X285000D02*
D03*
X295000D02*
D03*
X305000D02*
D03*
X315000D02*
D03*
X325000D02*
D03*
X476500Y165000D02*
D03*
X486500D02*
D03*
X496500D02*
D03*
X506500D02*
D03*
X516500D02*
D03*
X526500D02*
D03*
X536500D02*
D03*
G54D65*
X-7500Y257000D02*
D03*
Y-27200D02*
D03*
X640700D02*
D03*
Y257000D02*
D03*
G54D66*
X-2000Y251500D02*
D03*
X-13000D02*
D03*
X-2000Y262500D02*
D03*
X-13000D02*
D03*
X-15500Y257000D02*
D03*
X-7500Y249000D02*
D03*
X500Y257000D02*
D03*
X-7500Y265000D02*
D03*
Y-19200D02*
D03*
X500Y-27200D02*
D03*
X-7500Y-35200D02*
D03*
X-15500Y-27200D02*
D03*
X-13000Y-21700D02*
D03*
X-2000D02*
D03*
X-13000Y-32700D02*
D03*
X-2000D02*
D03*
X640700Y-19200D02*
D03*
X648700Y-27200D02*
D03*
X640700Y-35200D02*
D03*
X632700Y-27200D02*
D03*
X635200Y-21700D02*
D03*
X646200D02*
D03*
X635200Y-32700D02*
D03*
X646200D02*
D03*
X640700Y265000D02*
D03*
X648700Y257000D02*
D03*
X640700Y249000D02*
D03*
X632700Y257000D02*
D03*
X635200Y262500D02*
D03*
X646200D02*
D03*
X635200Y251500D02*
D03*
X646200D02*
D03*
G54D67*
X486500Y122500D02*
D03*
X220000Y-15000D02*
D03*
X335000Y-25000D02*
D03*
X466500Y165000D02*
D03*
G54D68*
X0Y200000D02*
D03*
Y0D02*
D03*
X637500Y7500D02*
D03*
G54D69*
X0Y210000D02*
D03*
Y220000D02*
D03*
X35000Y255000D02*
D03*
X25000D02*
D03*
X0Y50000D02*
D03*
Y20000D02*
D03*
Y10000D02*
D03*
Y30000D02*
D03*
Y40000D02*
D03*
Y90000D02*
D03*
Y80000D02*
D03*
Y60000D02*
D03*
Y70000D02*
D03*
Y100000D02*
D03*
Y140000D02*
D03*
Y130000D02*
D03*
Y110000D02*
D03*
Y120000D02*
D03*
Y150000D02*
D03*
X127500Y-25000D02*
D03*
X137500D02*
D03*
X110000Y255000D02*
D03*
X100000D02*
D03*
X90000D02*
D03*
X534000Y-25000D02*
D03*
X544000D02*
D03*
X554000D02*
D03*
X182500Y255000D02*
D03*
X325000Y32500D02*
D03*
X295000D02*
D03*
X637500Y17500D02*
D03*
Y27500D02*
D03*
X577500Y255000D02*
D03*
X587500D02*
D03*
X567500D02*
D03*
X557500D02*
D03*
X462500D02*
D03*
X492500D02*
D03*
X502500D02*
D03*
X482500D02*
D03*
X472500D02*
D03*
G54D70*
X45000D02*
D03*
X117500Y-25000D02*
D03*
X80000Y255000D02*
D03*
X564000Y-25000D02*
D03*
X192500Y255000D02*
D03*
X597500D02*
D03*
X512500D02*
D03*
G54D71*
X432756Y25118D02*
D03*
Y20000D02*
D03*
X427244Y14882D02*
D03*
Y20000D02*
D03*
X432756Y14882D02*
D03*
G54D72*
X427244Y25118D02*
D03*
X37500Y10000D02*
D03*
X41000D02*
D03*
Y45000D02*
D03*
X37500D02*
D03*
Y41500D02*
D03*
X78000Y36000D02*
D03*
X74500D02*
D03*
X400500Y7000D02*
D03*
X403000Y9500D02*
D03*
X475500Y44000D02*
D03*
X472000D02*
D03*
M02*
