G04 Layer_Color=255*
%FSLAX25Y25*%
%MOIN*%
G70*
G01*
G75*
%ADD58C,0.04724*%
%ADD59R,0.04724X0.04724*%
%ADD60C,0.06496*%
%ADD61R,0.06496X0.06496*%
%ADD62C,0.09646*%
%ADD63R,0.05906X0.05906*%
%ADD64C,0.05906*%
%ADD65C,0.20000*%
%ADD66C,0.02800*%
%ADD67R,0.05906X0.05906*%
%ADD68R,0.06200X0.06200*%
%ADD69C,0.06200*%
%ADD70R,0.06200X0.06200*%
%ADD71C,0.03201*%
%ADD72C,0.03200*%
G54D58*
X175000Y225000D02*
D03*
X185000D02*
D03*
X195000Y172500D02*
D03*
X185000D02*
D03*
G54D59*
X195000Y225000D02*
D03*
X175000Y172500D02*
D03*
G54D60*
X385000Y255000D02*
D03*
Y245000D02*
D03*
X375000Y255000D02*
D03*
Y245000D02*
D03*
X365000Y255000D02*
D03*
Y245000D02*
D03*
X355000Y255000D02*
D03*
Y245000D02*
D03*
X345000Y255000D02*
D03*
Y245000D02*
D03*
X335000Y255000D02*
D03*
Y245000D02*
D03*
X325000Y255000D02*
D03*
Y245000D02*
D03*
X315000Y255000D02*
D03*
Y245000D02*
D03*
X305000Y255000D02*
D03*
Y245000D02*
D03*
X295000Y255000D02*
D03*
Y245000D02*
D03*
X285000Y255000D02*
D03*
Y245000D02*
D03*
X275000Y255000D02*
D03*
Y245000D02*
D03*
X265000D02*
D03*
G54D61*
Y255000D02*
D03*
G54D62*
X106653Y95000D02*
D03*
X185000D02*
D03*
G54D63*
X572500Y147500D02*
D03*
Y177500D02*
D03*
G54D64*
Y157500D02*
D03*
Y167500D02*
D03*
X562500Y147500D02*
D03*
Y157500D02*
D03*
Y167500D02*
D03*
Y177500D02*
D03*
X486500Y132500D02*
D03*
X496500Y122500D02*
D03*
Y132500D02*
D03*
X506500Y122500D02*
D03*
Y132500D02*
D03*
X516500Y122500D02*
D03*
Y132500D02*
D03*
X210000Y-15000D02*
D03*
X200000D02*
D03*
X190000D02*
D03*
X180000D02*
D03*
X220000Y-25000D02*
D03*
X210000D02*
D03*
X200000D02*
D03*
X190000D02*
D03*
X180000D02*
D03*
X265000D02*
D03*
X275000D02*
D03*
X285000D02*
D03*
X295000D02*
D03*
X305000D02*
D03*
X315000D02*
D03*
X325000D02*
D03*
X476500Y165000D02*
D03*
X486500D02*
D03*
X496500D02*
D03*
X506500D02*
D03*
X516500D02*
D03*
X526500D02*
D03*
X536500D02*
D03*
G54D65*
X-7500Y257000D02*
D03*
Y-27200D02*
D03*
X640700D02*
D03*
Y257000D02*
D03*
G54D66*
X-2000Y251500D02*
D03*
X-13000D02*
D03*
X-2000Y262500D02*
D03*
X-13000D02*
D03*
X-15500Y257000D02*
D03*
X-7500Y249000D02*
D03*
X500Y257000D02*
D03*
X-7500Y265000D02*
D03*
Y-19200D02*
D03*
X500Y-27200D02*
D03*
X-7500Y-35200D02*
D03*
X-15500Y-27200D02*
D03*
X-13000Y-21700D02*
D03*
X-2000D02*
D03*
X-13000Y-32700D02*
D03*
X-2000D02*
D03*
X640700Y-19200D02*
D03*
X648700Y-27200D02*
D03*
X640700Y-35200D02*
D03*
X632700Y-27200D02*
D03*
X635200Y-21700D02*
D03*
X646200D02*
D03*
X635200Y-32700D02*
D03*
X646200D02*
D03*
X640700Y265000D02*
D03*
X648700Y257000D02*
D03*
X640700Y249000D02*
D03*
X632700Y257000D02*
D03*
X635200Y262500D02*
D03*
X646200D02*
D03*
X635200Y251500D02*
D03*
X646200D02*
D03*
G54D67*
X486500Y122500D02*
D03*
X220000Y-15000D02*
D03*
X335000Y-25000D02*
D03*
X466500Y165000D02*
D03*
G54D68*
X0Y200000D02*
D03*
Y0D02*
D03*
X637500Y7500D02*
D03*
G54D69*
X0Y210000D02*
D03*
Y220000D02*
D03*
X35000Y255000D02*
D03*
X25000D02*
D03*
X0Y50000D02*
D03*
Y20000D02*
D03*
Y10000D02*
D03*
Y30000D02*
D03*
Y40000D02*
D03*
Y90000D02*
D03*
Y80000D02*
D03*
Y60000D02*
D03*
Y70000D02*
D03*
Y100000D02*
D03*
Y140000D02*
D03*
Y130000D02*
D03*
Y110000D02*
D03*
Y120000D02*
D03*
Y150000D02*
D03*
X127500Y-25000D02*
D03*
X137500D02*
D03*
X110000Y255000D02*
D03*
X100000D02*
D03*
X90000D02*
D03*
X534000Y-25000D02*
D03*
X544000D02*
D03*
X554000D02*
D03*
X182500Y255000D02*
D03*
X325000Y32500D02*
D03*
X295000D02*
D03*
X637500Y17500D02*
D03*
Y27500D02*
D03*
X577500Y255000D02*
D03*
X587500D02*
D03*
X567500D02*
D03*
X557500D02*
D03*
X462500D02*
D03*
X492500D02*
D03*
X502500D02*
D03*
X482500D02*
D03*
X472500D02*
D03*
G54D70*
X45000D02*
D03*
X117500Y-25000D02*
D03*
X80000Y255000D02*
D03*
X564000Y-25000D02*
D03*
X192500Y255000D02*
D03*
X597500D02*
D03*
X512500D02*
D03*
G54D71*
X432756Y25118D02*
D03*
Y20000D02*
D03*
X427244Y14882D02*
D03*
Y20000D02*
D03*
X432756Y14882D02*
D03*
G54D72*
X427244Y25118D02*
D03*
X37500Y10000D02*
D03*
X41000D02*
D03*
Y45000D02*
D03*
X37500D02*
D03*
Y41500D02*
D03*
X78000Y36000D02*
D03*
X74500D02*
D03*
X400500Y7000D02*
D03*
X403000Y9500D02*
D03*
X475500Y44000D02*
D03*
X472000D02*
D03*
M02*
