G04 Layer_Color=2752767*
%FSLAX25Y25*%
%MOIN*%
G70*
G01*
G75*
%ADD166C,0.00200*%
%ADD167C,0.00267*%
G54D166*
X174200Y224200D02*
Y225800D01*
X175800D01*
Y224200D01*
X174200D01*
X184200D02*
Y225800D01*
X185800D01*
Y224200D01*
X184200D01*
X194200D02*
Y225800D01*
X195800D01*
Y224200D01*
X194200D01*
Y171700D02*
Y173300D01*
X195800D01*
Y171700D01*
X194200D01*
X184200D02*
Y173300D01*
X185800D01*
Y171700D01*
X184200D01*
X174200D02*
Y173300D01*
X175800D01*
Y171700D01*
X174200D01*
X106653Y94200D02*
X105853Y95800D01*
X107454D01*
X106653Y94200D01*
X185000D02*
X184200Y95800D01*
X185800D01*
X185000Y94200D01*
X572500Y146700D02*
X572900Y147100D01*
X573300D01*
X572900Y147500D01*
X573300Y147900D01*
X572900D01*
X572500Y148300D01*
X572100Y147900D01*
X571700D01*
X572100Y147500D01*
X571700Y147100D01*
X572100D01*
X572500Y146700D01*
Y156700D02*
X572900Y157100D01*
X573300D01*
X572900Y157500D01*
X573300Y157900D01*
X572900D01*
X572500Y158300D01*
X572100Y157900D01*
X571700D01*
X572100Y157500D01*
X571700Y157100D01*
X572100D01*
X572500Y156700D01*
Y166700D02*
X572900Y167100D01*
X573300D01*
X572900Y167500D01*
X573300Y167900D01*
X572900D01*
X572500Y168300D01*
X572100Y167900D01*
X571700D01*
X572100Y167500D01*
X571700Y167100D01*
X572100D01*
X572500Y166700D01*
Y176700D02*
X572900Y177100D01*
X573300D01*
X572900Y177500D01*
X573300Y177900D01*
X572900D01*
X572500Y178300D01*
X572100Y177900D01*
X571700D01*
X572100Y177500D01*
X571700Y177100D01*
X572100D01*
X572500Y176700D01*
X562500Y146700D02*
X562900Y147100D01*
X563300D01*
X562900Y147500D01*
X563300Y147900D01*
X562900D01*
X562500Y148300D01*
X562100Y147900D01*
X561700D01*
X562100Y147500D01*
X561700Y147100D01*
X562100D01*
X562500Y146700D01*
Y156700D02*
X562900Y157100D01*
X563300D01*
X562900Y157500D01*
X563300Y157900D01*
X562900D01*
X562500Y158300D01*
X562100Y157900D01*
X561700D01*
X562100Y157500D01*
X561700Y157100D01*
X562100D01*
X562500Y156700D01*
Y166700D02*
X562900Y167100D01*
X563300D01*
X562900Y167500D01*
X563300Y167900D01*
X562900D01*
X562500Y168300D01*
X562100Y167900D01*
X561700D01*
X562100Y167500D01*
X561700Y167100D01*
X562100D01*
X562500Y166700D01*
Y176700D02*
X562900Y177100D01*
X563300D01*
X562900Y177500D01*
X563300Y177900D01*
X562900D01*
X562500Y178300D01*
X562100Y177900D01*
X561700D01*
X562100Y177500D01*
X561700Y177100D01*
X562100D01*
X562500Y176700D01*
X-8300Y256200D02*
X-7900Y257000D01*
X-8300Y257800D01*
X-7500Y257400D01*
X-6700Y257800D01*
X-7100Y257000D01*
X-6700Y256200D01*
X-7500Y256600D01*
X-8300Y256200D01*
X-2400Y251100D02*
Y250700D01*
X-1600D01*
Y251100D01*
X-1200D01*
Y251900D01*
X-1600D01*
Y252300D01*
X-2400D01*
Y251900D01*
X-2800D01*
Y251100D01*
X-2400D01*
X-13400D02*
Y250700D01*
X-12600D01*
Y251100D01*
X-12200D01*
Y251900D01*
X-12600D01*
Y252300D01*
X-13400D01*
Y251900D01*
X-13800D01*
Y251100D01*
X-13400D01*
X-2400Y262100D02*
Y261700D01*
X-1600D01*
Y262100D01*
X-1200D01*
Y262900D01*
X-1600D01*
Y263300D01*
X-2400D01*
Y262900D01*
X-2800D01*
Y262100D01*
X-2400D01*
X-13400D02*
Y261700D01*
X-12600D01*
Y262100D01*
X-12200D01*
Y262900D01*
X-12600D01*
Y263300D01*
X-13400D01*
Y262900D01*
X-13800D01*
Y262100D01*
X-13400D01*
X-15900Y256600D02*
Y256200D01*
X-15100D01*
Y256600D01*
X-14700D01*
Y257400D01*
X-15100D01*
Y257800D01*
X-15900D01*
Y257400D01*
X-16300D01*
Y256600D01*
X-15900D01*
X-7900Y248600D02*
Y248200D01*
X-7100D01*
Y248600D01*
X-6700D01*
Y249400D01*
X-7100D01*
Y249800D01*
X-7900D01*
Y249400D01*
X-8300D01*
Y248600D01*
X-7900D01*
X100Y256600D02*
Y256200D01*
X900D01*
Y256600D01*
X1300D01*
Y257400D01*
X900D01*
Y257800D01*
X100D01*
Y257400D01*
X-300D01*
Y256600D01*
X100D01*
X-7900Y264600D02*
Y264200D01*
X-7100D01*
Y264600D01*
X-6700D01*
Y265400D01*
X-7100D01*
Y265800D01*
X-7900D01*
Y265400D01*
X-8300D01*
Y264600D01*
X-7900D01*
Y-19600D02*
Y-20000D01*
X-7100D01*
Y-19600D01*
X-6700D01*
Y-18800D01*
X-7100D01*
Y-18400D01*
X-7900D01*
Y-18800D01*
X-8300D01*
Y-19600D01*
X-7900D01*
X100Y-27600D02*
Y-28000D01*
X900D01*
Y-27600D01*
X1300D01*
Y-26800D01*
X900D01*
Y-26400D01*
X100D01*
Y-26800D01*
X-300D01*
Y-27600D01*
X100D01*
X-7900Y-35600D02*
Y-36000D01*
X-7100D01*
Y-35600D01*
X-6700D01*
Y-34800D01*
X-7100D01*
Y-34400D01*
X-7900D01*
Y-34800D01*
X-8300D01*
Y-35600D01*
X-7900D01*
X-15900Y-27600D02*
Y-28000D01*
X-15100D01*
Y-27600D01*
X-14700D01*
Y-26800D01*
X-15100D01*
Y-26400D01*
X-15900D01*
Y-26800D01*
X-16300D01*
Y-27600D01*
X-15900D01*
X-13400Y-22100D02*
Y-22500D01*
X-12600D01*
Y-22100D01*
X-12200D01*
Y-21300D01*
X-12600D01*
Y-20900D01*
X-13400D01*
Y-21300D01*
X-13800D01*
Y-22100D01*
X-13400D01*
X-2400D02*
Y-22500D01*
X-1600D01*
Y-22100D01*
X-1200D01*
Y-21300D01*
X-1600D01*
Y-20900D01*
X-2400D01*
Y-21300D01*
X-2800D01*
Y-22100D01*
X-2400D01*
X-13400Y-33100D02*
Y-33500D01*
X-12600D01*
Y-33100D01*
X-12200D01*
Y-32300D01*
X-12600D01*
Y-31900D01*
X-13400D01*
Y-32300D01*
X-13800D01*
Y-33100D01*
X-13400D01*
X-2400D02*
Y-33500D01*
X-1600D01*
Y-33100D01*
X-1200D01*
Y-32300D01*
X-1600D01*
Y-31900D01*
X-2400D01*
Y-32300D01*
X-2800D01*
Y-33100D01*
X-2400D01*
X-8300Y-28000D02*
X-7900Y-27200D01*
X-8300Y-26400D01*
X-7500Y-26800D01*
X-6700Y-26400D01*
X-7100Y-27200D01*
X-6700Y-28000D01*
X-7500Y-27600D01*
X-8300Y-28000D01*
X640300Y-19600D02*
Y-20000D01*
X641100D01*
Y-19600D01*
X641500D01*
Y-18800D01*
X641100D01*
Y-18400D01*
X640300D01*
Y-18800D01*
X639900D01*
Y-19600D01*
X640300D01*
X648300Y-27600D02*
Y-28000D01*
X649100D01*
Y-27600D01*
X649500D01*
Y-26800D01*
X649100D01*
Y-26400D01*
X648300D01*
Y-26800D01*
X647900D01*
Y-27600D01*
X648300D01*
X640300Y-35600D02*
Y-36000D01*
X641100D01*
Y-35600D01*
X641500D01*
Y-34800D01*
X641100D01*
Y-34400D01*
X640300D01*
Y-34800D01*
X639900D01*
Y-35600D01*
X640300D01*
X632300Y-27600D02*
Y-28000D01*
X633100D01*
Y-27600D01*
X633500D01*
Y-26800D01*
X633100D01*
Y-26400D01*
X632300D01*
Y-26800D01*
X631900D01*
Y-27600D01*
X632300D01*
X634800Y-22100D02*
Y-22500D01*
X635600D01*
Y-22100D01*
X636000D01*
Y-21300D01*
X635600D01*
Y-20900D01*
X634800D01*
Y-21300D01*
X634400D01*
Y-22100D01*
X634800D01*
X645800D02*
Y-22500D01*
X646600D01*
Y-22100D01*
X647000D01*
Y-21300D01*
X646600D01*
Y-20900D01*
X645800D01*
Y-21300D01*
X645400D01*
Y-22100D01*
X645800D01*
X634800Y-33100D02*
Y-33500D01*
X635600D01*
Y-33100D01*
X636000D01*
Y-32300D01*
X635600D01*
Y-31900D01*
X634800D01*
Y-32300D01*
X634400D01*
Y-33100D01*
X634800D01*
X645800D02*
Y-33500D01*
X646600D01*
Y-33100D01*
X647000D01*
Y-32300D01*
X646600D01*
Y-31900D01*
X645800D01*
Y-32300D01*
X645400D01*
Y-33100D01*
X645800D01*
X639900Y-28000D02*
X640300Y-27200D01*
X639900Y-26400D01*
X640700Y-26800D01*
X641500Y-26400D01*
X641100Y-27200D01*
X641500Y-28000D01*
X640700Y-27600D01*
X639900Y-28000D01*
X640300Y264600D02*
Y264200D01*
X641100D01*
Y264600D01*
X641500D01*
Y265400D01*
X641100D01*
Y265800D01*
X640300D01*
Y265400D01*
X639900D01*
Y264600D01*
X640300D01*
X648300Y256600D02*
Y256200D01*
X649100D01*
Y256600D01*
X649500D01*
Y257400D01*
X649100D01*
Y257800D01*
X648300D01*
Y257400D01*
X647900D01*
Y256600D01*
X648300D01*
X640300Y248600D02*
Y248200D01*
X641100D01*
Y248600D01*
X641500D01*
Y249400D01*
X641100D01*
Y249800D01*
X640300D01*
Y249400D01*
X639900D01*
Y248600D01*
X640300D01*
X632300Y256600D02*
Y256200D01*
X633100D01*
Y256600D01*
X633500D01*
Y257400D01*
X633100D01*
Y257800D01*
X632300D01*
Y257400D01*
X631900D01*
Y256600D01*
X632300D01*
X634800Y262100D02*
Y261700D01*
X635600D01*
Y262100D01*
X636000D01*
Y262900D01*
X635600D01*
Y263300D01*
X634800D01*
Y262900D01*
X634400D01*
Y262100D01*
X634800D01*
X645800D02*
Y261700D01*
X646600D01*
Y262100D01*
X647000D01*
Y262900D01*
X646600D01*
Y263300D01*
X645800D01*
Y262900D01*
X645400D01*
Y262100D01*
X645800D01*
X634800Y251100D02*
Y250700D01*
X635600D01*
Y251100D01*
X636000D01*
Y251900D01*
X635600D01*
Y252300D01*
X634800D01*
Y251900D01*
X634400D01*
Y251100D01*
X634800D01*
X645800D02*
Y250700D01*
X646600D01*
Y251100D01*
X647000D01*
Y251900D01*
X646600D01*
Y252300D01*
X645800D01*
Y251900D01*
X645400D01*
Y251100D01*
X645800D01*
X639900Y256200D02*
X640300Y257000D01*
X639900Y257800D01*
X640700Y257400D01*
X641500Y257800D01*
X641100Y257000D01*
X641500Y256200D01*
X640700Y256600D01*
X639900Y256200D01*
X486500Y121700D02*
X486900Y122100D01*
X487300D01*
X486900Y122500D01*
X487300Y122900D01*
X486900D01*
X486500Y123300D01*
X486100Y122900D01*
X485700D01*
X486100Y122500D01*
X485700Y122100D01*
X486100D01*
X486500Y121700D01*
Y131700D02*
X486900Y132100D01*
X487300D01*
X486900Y132500D01*
X487300Y132900D01*
X486900D01*
X486500Y133300D01*
X486100Y132900D01*
X485700D01*
X486100Y132500D01*
X485700Y132100D01*
X486100D01*
X486500Y131700D01*
X496500Y121700D02*
X496900Y122100D01*
X497300D01*
X496900Y122500D01*
X497300Y122900D01*
X496900D01*
X496500Y123300D01*
X496100Y122900D01*
X495700D01*
X496100Y122500D01*
X495700Y122100D01*
X496100D01*
X496500Y121700D01*
Y131700D02*
X496900Y132100D01*
X497300D01*
X496900Y132500D01*
X497300Y132900D01*
X496900D01*
X496500Y133300D01*
X496100Y132900D01*
X495700D01*
X496100Y132500D01*
X495700Y132100D01*
X496100D01*
X496500Y131700D01*
X506500Y121700D02*
X506900Y122100D01*
X507300D01*
X506900Y122500D01*
X507300Y122900D01*
X506900D01*
X506500Y123300D01*
X506100Y122900D01*
X505700D01*
X506100Y122500D01*
X505700Y122100D01*
X506100D01*
X506500Y121700D01*
Y131700D02*
X506900Y132100D01*
X507300D01*
X506900Y132500D01*
X507300Y132900D01*
X506900D01*
X506500Y133300D01*
X506100Y132900D01*
X505700D01*
X506100Y132500D01*
X505700Y132100D01*
X506100D01*
X506500Y131700D01*
X516500Y121700D02*
X516900Y122100D01*
X517300D01*
X516900Y122500D01*
X517300Y122900D01*
X516900D01*
X516500Y123300D01*
X516100Y122900D01*
X515700D01*
X516100Y122500D01*
X515700Y122100D01*
X516100D01*
X516500Y121700D01*
Y131700D02*
X516900Y132100D01*
X517300D01*
X516900Y132500D01*
X517300Y132900D01*
X516900D01*
X516500Y133300D01*
X516100Y132900D01*
X515700D01*
X516100Y132500D01*
X515700Y132100D01*
X516100D01*
X516500Y131700D01*
X0Y199200D02*
X400Y199600D01*
X800D01*
X400Y200000D01*
X800Y200400D01*
X400D01*
X0Y200800D01*
X-400Y200400D01*
X-800D01*
X-400Y200000D01*
X-800Y199600D01*
X-400D01*
X0Y199200D01*
Y209200D02*
X400Y209600D01*
X800D01*
X400Y210000D01*
X800Y210400D01*
X400D01*
X0Y210800D01*
X-400Y210400D01*
X-800D01*
X-400Y210000D01*
X-800Y209600D01*
X-400D01*
X0Y209200D01*
Y219200D02*
X400Y219600D01*
X800D01*
X400Y220000D01*
X800Y220400D01*
X400D01*
X0Y220800D01*
X-400Y220400D01*
X-800D01*
X-400Y220000D01*
X-800Y219600D01*
X-400D01*
X0Y219200D01*
X45000Y254200D02*
X45400Y254600D01*
X45800D01*
X45400Y255000D01*
X45800Y255400D01*
X45400D01*
X45000Y255800D01*
X44600Y255400D01*
X44200D01*
X44600Y255000D01*
X44200Y254600D01*
X44600D01*
X45000Y254200D01*
X35000D02*
X35400Y254600D01*
X35800D01*
X35400Y255000D01*
X35800Y255400D01*
X35400D01*
X35000Y255800D01*
X34600Y255400D01*
X34200D01*
X34600Y255000D01*
X34200Y254600D01*
X34600D01*
X35000Y254200D01*
X25000D02*
X25400Y254600D01*
X25800D01*
X25400Y255000D01*
X25800Y255400D01*
X25400D01*
X25000Y255800D01*
X24600Y255400D01*
X24200D01*
X24600Y255000D01*
X24200Y254600D01*
X24600D01*
X25000Y254200D01*
X0Y49200D02*
X400Y49600D01*
X800D01*
X400Y50000D01*
X800Y50400D01*
X400D01*
X0Y50800D01*
X-400Y50400D01*
X-800D01*
X-400Y50000D01*
X-800Y49600D01*
X-400D01*
X0Y49200D01*
Y19200D02*
X400Y19600D01*
X800D01*
X400Y20000D01*
X800Y20400D01*
X400D01*
X0Y20800D01*
X-400Y20400D01*
X-800D01*
X-400Y20000D01*
X-800Y19600D01*
X-400D01*
X0Y19200D01*
Y9200D02*
X400Y9600D01*
X800D01*
X400Y10000D01*
X800Y10400D01*
X400D01*
X0Y10800D01*
X-400Y10400D01*
X-800D01*
X-400Y10000D01*
X-800Y9600D01*
X-400D01*
X0Y9200D01*
Y-800D02*
X400Y-400D01*
X800D01*
X400Y0D01*
X800Y400D01*
X400D01*
X0Y800D01*
X-400Y400D01*
X-800D01*
X-400Y0D01*
X-800Y-400D01*
X-400D01*
X0Y-800D01*
Y29200D02*
X400Y29600D01*
X800D01*
X400Y30000D01*
X800Y30400D01*
X400D01*
X0Y30800D01*
X-400Y30400D01*
X-800D01*
X-400Y30000D01*
X-800Y29600D01*
X-400D01*
X0Y29200D01*
Y39200D02*
X400Y39600D01*
X800D01*
X400Y40000D01*
X800Y40400D01*
X400D01*
X0Y40800D01*
X-400Y40400D01*
X-800D01*
X-400Y40000D01*
X-800Y39600D01*
X-400D01*
X0Y39200D01*
Y89200D02*
X400Y89600D01*
X800D01*
X400Y90000D01*
X800Y90400D01*
X400D01*
X0Y90800D01*
X-400Y90400D01*
X-800D01*
X-400Y90000D01*
X-800Y89600D01*
X-400D01*
X0Y89200D01*
Y79200D02*
X400Y79600D01*
X800D01*
X400Y80000D01*
X800Y80400D01*
X400D01*
X0Y80800D01*
X-400Y80400D01*
X-800D01*
X-400Y80000D01*
X-800Y79600D01*
X-400D01*
X0Y79200D01*
Y59200D02*
X400Y59600D01*
X800D01*
X400Y60000D01*
X800Y60400D01*
X400D01*
X0Y60800D01*
X-400Y60400D01*
X-800D01*
X-400Y60000D01*
X-800Y59600D01*
X-400D01*
X0Y59200D01*
Y69200D02*
X400Y69600D01*
X800D01*
X400Y70000D01*
X800Y70400D01*
X400D01*
X0Y70800D01*
X-400Y70400D01*
X-800D01*
X-400Y70000D01*
X-800Y69600D01*
X-400D01*
X0Y69200D01*
Y99200D02*
X400Y99600D01*
X800D01*
X400Y100000D01*
X800Y100400D01*
X400D01*
X0Y100800D01*
X-400Y100400D01*
X-800D01*
X-400Y100000D01*
X-800Y99600D01*
X-400D01*
X0Y99200D01*
Y139200D02*
X400Y139600D01*
X800D01*
X400Y140000D01*
X800Y140400D01*
X400D01*
X0Y140800D01*
X-400Y140400D01*
X-800D01*
X-400Y140000D01*
X-800Y139600D01*
X-400D01*
X0Y139200D01*
Y129200D02*
X400Y129600D01*
X800D01*
X400Y130000D01*
X800Y130400D01*
X400D01*
X0Y130800D01*
X-400Y130400D01*
X-800D01*
X-400Y130000D01*
X-800Y129600D01*
X-400D01*
X0Y129200D01*
Y109200D02*
X400Y109600D01*
X800D01*
X400Y110000D01*
X800Y110400D01*
X400D01*
X0Y110800D01*
X-400Y110400D01*
X-800D01*
X-400Y110000D01*
X-800Y109600D01*
X-400D01*
X0Y109200D01*
Y119200D02*
X400Y119600D01*
X800D01*
X400Y120000D01*
X800Y120400D01*
X400D01*
X0Y120800D01*
X-400Y120400D01*
X-800D01*
X-400Y120000D01*
X-800Y119600D01*
X-400D01*
X0Y119200D01*
Y149200D02*
X400Y149600D01*
X800D01*
X400Y150000D01*
X800Y150400D01*
X400D01*
X0Y150800D01*
X-400Y150400D01*
X-800D01*
X-400Y150000D01*
X-800Y149600D01*
X-400D01*
X0Y149200D01*
X117500Y-25800D02*
X117900Y-25400D01*
X118300D01*
X117900Y-25000D01*
X118300Y-24600D01*
X117900D01*
X117500Y-24200D01*
X117100Y-24600D01*
X116700D01*
X117100Y-25000D01*
X116700Y-25400D01*
X117100D01*
X117500Y-25800D01*
X127500D02*
X127900Y-25400D01*
X128300D01*
X127900Y-25000D01*
X128300Y-24600D01*
X127900D01*
X127500Y-24200D01*
X127100Y-24600D01*
X126700D01*
X127100Y-25000D01*
X126700Y-25400D01*
X127100D01*
X127500Y-25800D01*
X137500D02*
X137900Y-25400D01*
X138300D01*
X137900Y-25000D01*
X138300Y-24600D01*
X137900D01*
X137500Y-24200D01*
X137100Y-24600D01*
X136700D01*
X137100Y-25000D01*
X136700Y-25400D01*
X137100D01*
X137500Y-25800D01*
X220000Y-15800D02*
X220400Y-15400D01*
X220800D01*
X220400Y-15000D01*
X220800Y-14600D01*
X220400D01*
X220000Y-14200D01*
X219600Y-14600D01*
X219200D01*
X219600Y-15000D01*
X219200Y-15400D01*
X219600D01*
X220000Y-15800D01*
X210000D02*
X210400Y-15400D01*
X210800D01*
X210400Y-15000D01*
X210800Y-14600D01*
X210400D01*
X210000Y-14200D01*
X209600Y-14600D01*
X209200D01*
X209600Y-15000D01*
X209200Y-15400D01*
X209600D01*
X210000Y-15800D01*
X200000D02*
X200400Y-15400D01*
X200800D01*
X200400Y-15000D01*
X200800Y-14600D01*
X200400D01*
X200000Y-14200D01*
X199600Y-14600D01*
X199200D01*
X199600Y-15000D01*
X199200Y-15400D01*
X199600D01*
X200000Y-15800D01*
X190000D02*
X190400Y-15400D01*
X190800D01*
X190400Y-15000D01*
X190800Y-14600D01*
X190400D01*
X190000Y-14200D01*
X189600Y-14600D01*
X189200D01*
X189600Y-15000D01*
X189200Y-15400D01*
X189600D01*
X190000Y-15800D01*
X180000D02*
X180400Y-15400D01*
X180800D01*
X180400Y-15000D01*
X180800Y-14600D01*
X180400D01*
X180000Y-14200D01*
X179600Y-14600D01*
X179200D01*
X179600Y-15000D01*
X179200Y-15400D01*
X179600D01*
X180000Y-15800D01*
X220000Y-25800D02*
X220400Y-25400D01*
X220800D01*
X220400Y-25000D01*
X220800Y-24600D01*
X220400D01*
X220000Y-24200D01*
X219600Y-24600D01*
X219200D01*
X219600Y-25000D01*
X219200Y-25400D01*
X219600D01*
X220000Y-25800D01*
X210000D02*
X210400Y-25400D01*
X210800D01*
X210400Y-25000D01*
X210800Y-24600D01*
X210400D01*
X210000Y-24200D01*
X209600Y-24600D01*
X209200D01*
X209600Y-25000D01*
X209200Y-25400D01*
X209600D01*
X210000Y-25800D01*
X200000D02*
X200400Y-25400D01*
X200800D01*
X200400Y-25000D01*
X200800Y-24600D01*
X200400D01*
X200000Y-24200D01*
X199600Y-24600D01*
X199200D01*
X199600Y-25000D01*
X199200Y-25400D01*
X199600D01*
X200000Y-25800D01*
X190000D02*
X190400Y-25400D01*
X190800D01*
X190400Y-25000D01*
X190800Y-24600D01*
X190400D01*
X190000Y-24200D01*
X189600Y-24600D01*
X189200D01*
X189600Y-25000D01*
X189200Y-25400D01*
X189600D01*
X190000Y-25800D01*
X180000D02*
X180400Y-25400D01*
X180800D01*
X180400Y-25000D01*
X180800Y-24600D01*
X180400D01*
X180000Y-24200D01*
X179600Y-24600D01*
X179200D01*
X179600Y-25000D01*
X179200Y-25400D01*
X179600D01*
X180000Y-25800D01*
X80000Y254200D02*
X80400Y254600D01*
X80800D01*
X80400Y255000D01*
X80800Y255400D01*
X80400D01*
X80000Y255800D01*
X79600Y255400D01*
X79200D01*
X79600Y255000D01*
X79200Y254600D01*
X79600D01*
X80000Y254200D01*
X110000D02*
X110400Y254600D01*
X110800D01*
X110400Y255000D01*
X110800Y255400D01*
X110400D01*
X110000Y255800D01*
X109600Y255400D01*
X109200D01*
X109600Y255000D01*
X109200Y254600D01*
X109600D01*
X110000Y254200D01*
X100000D02*
X100400Y254600D01*
X100800D01*
X100400Y255000D01*
X100800Y255400D01*
X100400D01*
X100000Y255800D01*
X99600Y255400D01*
X99200D01*
X99600Y255000D01*
X99200Y254600D01*
X99600D01*
X100000Y254200D01*
X90000D02*
X90400Y254600D01*
X90800D01*
X90400Y255000D01*
X90800Y255400D01*
X90400D01*
X90000Y255800D01*
X89600Y255400D01*
X89200D01*
X89600Y255000D01*
X89200Y254600D01*
X89600D01*
X90000Y254200D01*
X265000Y-25800D02*
X265400Y-25400D01*
X265800D01*
X265400Y-25000D01*
X265800Y-24600D01*
X265400D01*
X265000Y-24200D01*
X264600Y-24600D01*
X264200D01*
X264600Y-25000D01*
X264200Y-25400D01*
X264600D01*
X265000Y-25800D01*
X275000D02*
X275400Y-25400D01*
X275800D01*
X275400Y-25000D01*
X275800Y-24600D01*
X275400D01*
X275000Y-24200D01*
X274600Y-24600D01*
X274200D01*
X274600Y-25000D01*
X274200Y-25400D01*
X274600D01*
X275000Y-25800D01*
X285000D02*
X285400Y-25400D01*
X285800D01*
X285400Y-25000D01*
X285800Y-24600D01*
X285400D01*
X285000Y-24200D01*
X284600Y-24600D01*
X284200D01*
X284600Y-25000D01*
X284200Y-25400D01*
X284600D01*
X285000Y-25800D01*
X295000D02*
X295400Y-25400D01*
X295800D01*
X295400Y-25000D01*
X295800Y-24600D01*
X295400D01*
X295000Y-24200D01*
X294600Y-24600D01*
X294200D01*
X294600Y-25000D01*
X294200Y-25400D01*
X294600D01*
X295000Y-25800D01*
X305000D02*
X305400Y-25400D01*
X305800D01*
X305400Y-25000D01*
X305800Y-24600D01*
X305400D01*
X305000Y-24200D01*
X304600Y-24600D01*
X304200D01*
X304600Y-25000D01*
X304200Y-25400D01*
X304600D01*
X305000Y-25800D01*
X315000D02*
X315400Y-25400D01*
X315800D01*
X315400Y-25000D01*
X315800Y-24600D01*
X315400D01*
X315000Y-24200D01*
X314600Y-24600D01*
X314200D01*
X314600Y-25000D01*
X314200Y-25400D01*
X314600D01*
X315000Y-25800D01*
X325000D02*
X325400Y-25400D01*
X325800D01*
X325400Y-25000D01*
X325800Y-24600D01*
X325400D01*
X325000Y-24200D01*
X324600Y-24600D01*
X324200D01*
X324600Y-25000D01*
X324200Y-25400D01*
X324600D01*
X325000Y-25800D01*
X335000D02*
X335400Y-25400D01*
X335800D01*
X335400Y-25000D01*
X335800Y-24600D01*
X335400D01*
X335000Y-24200D01*
X334600Y-24600D01*
X334200D01*
X334600Y-25000D01*
X334200Y-25400D01*
X334600D01*
X335000Y-25800D01*
X431956Y24318D02*
X432356D01*
X432756Y24718D01*
X433156Y24318D01*
X433556D01*
Y24718D01*
X433156Y25118D01*
X433556Y25518D01*
Y25918D01*
X433156D01*
X432756Y25518D01*
X432356Y25918D01*
X431956D01*
Y25518D01*
X432356Y25118D01*
X431956Y24718D01*
Y24318D01*
Y19200D02*
X432356D01*
X432756Y19600D01*
X433156Y19200D01*
X433556D01*
Y19600D01*
X433156Y20000D01*
X433556Y20400D01*
Y20800D01*
X433156D01*
X432756Y20400D01*
X432356Y20800D01*
X431956D01*
Y20400D01*
X432356Y20000D01*
X431956Y19600D01*
Y19200D01*
X426444Y14082D02*
X426844D01*
X427244Y14482D01*
X427644Y14082D01*
X428044D01*
Y14482D01*
X427644Y14882D01*
X428044Y15282D01*
Y15682D01*
X427644D01*
X427244Y15282D01*
X426844Y15682D01*
X426444D01*
Y15282D01*
X426844Y14882D01*
X426444Y14482D01*
Y14082D01*
Y19200D02*
X426844D01*
X427244Y19600D01*
X427644Y19200D01*
X428044D01*
Y19600D01*
X427644Y20000D01*
X428044Y20400D01*
Y20800D01*
X427644D01*
X427244Y20400D01*
X426844Y20800D01*
X426444D01*
Y20400D01*
X426844Y20000D01*
X426444Y19600D01*
Y19200D01*
Y25118D02*
X427244Y25918D01*
X428044Y25118D01*
X427244Y24318D01*
X426444Y25118D01*
X431956Y14082D02*
X432356D01*
X432756Y14482D01*
X433156Y14082D01*
X433556D01*
Y14482D01*
X433156Y14882D01*
X433556Y15282D01*
Y15682D01*
X433156D01*
X432756Y15282D01*
X432356Y15682D01*
X431956D01*
Y15282D01*
X432356Y14882D01*
X431956Y14482D01*
Y14082D01*
X564000Y-25800D02*
X564400Y-25400D01*
X564800D01*
X564400Y-25000D01*
X564800Y-24600D01*
X564400D01*
X564000Y-24200D01*
X563600Y-24600D01*
X563200D01*
X563600Y-25000D01*
X563200Y-25400D01*
X563600D01*
X564000Y-25800D01*
X534000D02*
X534400Y-25400D01*
X534800D01*
X534400Y-25000D01*
X534800Y-24600D01*
X534400D01*
X534000Y-24200D01*
X533600Y-24600D01*
X533200D01*
X533600Y-25000D01*
X533200Y-25400D01*
X533600D01*
X534000Y-25800D01*
X544000D02*
X544400Y-25400D01*
X544800D01*
X544400Y-25000D01*
X544800Y-24600D01*
X544400D01*
X544000Y-24200D01*
X543600Y-24600D01*
X543200D01*
X543600Y-25000D01*
X543200Y-25400D01*
X543600D01*
X544000Y-25800D01*
X554000D02*
X554400Y-25400D01*
X554800D01*
X554400Y-25000D01*
X554800Y-24600D01*
X554400D01*
X554000Y-24200D01*
X553600Y-24600D01*
X553200D01*
X553600Y-25000D01*
X553200Y-25400D01*
X553600D01*
X554000Y-25800D01*
X192500Y254200D02*
X192900Y254600D01*
X193300D01*
X192900Y255000D01*
X193300Y255400D01*
X192900D01*
X192500Y255800D01*
X192100Y255400D01*
X191700D01*
X192100Y255000D01*
X191700Y254600D01*
X192100D01*
X192500Y254200D01*
X182500D02*
X182900Y254600D01*
X183300D01*
X182900Y255000D01*
X183300Y255400D01*
X182900D01*
X182500Y255800D01*
X182100Y255400D01*
X181700D01*
X182100Y255000D01*
X181700Y254600D01*
X182100D01*
X182500Y254200D01*
X324200Y31700D02*
Y33300D01*
X325800D01*
Y31700D01*
X324200D01*
X324600Y32100D02*
Y32900D01*
X325400D01*
Y32100D01*
X324600D01*
X294200Y31700D02*
Y33300D01*
X295800D01*
Y31700D01*
X294200D01*
X294600Y32100D02*
Y32900D01*
X295400D01*
Y32100D01*
X294600D01*
X637500Y6700D02*
X637900Y7100D01*
X638300D01*
X637900Y7500D01*
X638300Y7900D01*
X637900D01*
X637500Y8300D01*
X637100Y7900D01*
X636700D01*
X637100Y7500D01*
X636700Y7100D01*
X637100D01*
X637500Y6700D01*
Y16700D02*
X637900Y17100D01*
X638300D01*
X637900Y17500D01*
X638300Y17900D01*
X637900D01*
X637500Y18300D01*
X637100Y17900D01*
X636700D01*
X637100Y17500D01*
X636700Y17100D01*
X637100D01*
X637500Y16700D01*
Y26700D02*
X637900Y27100D01*
X638300D01*
X637900Y27500D01*
X638300Y27900D01*
X637900D01*
X637500Y28300D01*
X637100Y27900D01*
X636700D01*
X637100Y27500D01*
X636700Y27100D01*
X637100D01*
X637500Y26700D01*
X577500Y254200D02*
X577900Y254600D01*
X578300D01*
X577900Y255000D01*
X578300Y255400D01*
X577900D01*
X577500Y255800D01*
X577100Y255400D01*
X576700D01*
X577100Y255000D01*
X576700Y254600D01*
X577100D01*
X577500Y254200D01*
X587500D02*
X587900Y254600D01*
X588300D01*
X587900Y255000D01*
X588300Y255400D01*
X587900D01*
X587500Y255800D01*
X587100Y255400D01*
X586700D01*
X587100Y255000D01*
X586700Y254600D01*
X587100D01*
X587500Y254200D01*
X597500D02*
X597900Y254600D01*
X598300D01*
X597900Y255000D01*
X598300Y255400D01*
X597900D01*
X597500Y255800D01*
X597100Y255400D01*
X596700D01*
X597100Y255000D01*
X596700Y254600D01*
X597100D01*
X597500Y254200D01*
X567500D02*
X567900Y254600D01*
X568300D01*
X567900Y255000D01*
X568300Y255400D01*
X567900D01*
X567500Y255800D01*
X567100Y255400D01*
X566700D01*
X567100Y255000D01*
X566700Y254600D01*
X567100D01*
X567500Y254200D01*
X557500D02*
X557900Y254600D01*
X558300D01*
X557900Y255000D01*
X558300Y255400D01*
X557900D01*
X557500Y255800D01*
X557100Y255400D01*
X556700D01*
X557100Y255000D01*
X556700Y254600D01*
X557100D01*
X557500Y254200D01*
X462500D02*
X462900Y254600D01*
X463300D01*
X462900Y255000D01*
X463300Y255400D01*
X462900D01*
X462500Y255800D01*
X462100Y255400D01*
X461700D01*
X462100Y255000D01*
X461700Y254600D01*
X462100D01*
X462500Y254200D01*
X492500D02*
X492900Y254600D01*
X493300D01*
X492900Y255000D01*
X493300Y255400D01*
X492900D01*
X492500Y255800D01*
X492100Y255400D01*
X491700D01*
X492100Y255000D01*
X491700Y254600D01*
X492100D01*
X492500Y254200D01*
X502500D02*
X502900Y254600D01*
X503300D01*
X502900Y255000D01*
X503300Y255400D01*
X502900D01*
X502500Y255800D01*
X502100Y255400D01*
X501700D01*
X502100Y255000D01*
X501700Y254600D01*
X502100D01*
X502500Y254200D01*
X512500D02*
X512900Y254600D01*
X513300D01*
X512900Y255000D01*
X513300Y255400D01*
X512900D01*
X512500Y255800D01*
X512100Y255400D01*
X511700D01*
X512100Y255000D01*
X511700Y254600D01*
X512100D01*
X512500Y254200D01*
X482500D02*
X482900Y254600D01*
X483300D01*
X482900Y255000D01*
X483300Y255400D01*
X482900D01*
X482500Y255800D01*
X482100Y255400D01*
X481700D01*
X482100Y255000D01*
X481700Y254600D01*
X482100D01*
X482500Y254200D01*
X472500D02*
X472900Y254600D01*
X473300D01*
X472900Y255000D01*
X473300Y255400D01*
X472900D01*
X472500Y255800D01*
X472100Y255400D01*
X471700D01*
X472100Y255000D01*
X471700Y254600D01*
X472100D01*
X472500Y254200D01*
X36700Y10000D02*
X37500Y10800D01*
X38300Y10000D01*
X37500Y9200D01*
X36700Y10000D01*
X40200D02*
X41000Y10800D01*
X41800Y10000D01*
X41000Y9200D01*
X40200Y10000D01*
Y45000D02*
X41000Y45800D01*
X41800Y45000D01*
X41000Y44200D01*
X40200Y45000D01*
X36700D02*
X37500Y45800D01*
X38300Y45000D01*
X37500Y44200D01*
X36700Y45000D01*
Y41500D02*
X37500Y42300D01*
X38300Y41500D01*
X37500Y40700D01*
X36700Y41500D01*
X77200Y36000D02*
X78000Y36800D01*
X78800Y36000D01*
X78000Y35200D01*
X77200Y36000D01*
X73700D02*
X74500Y36800D01*
X75300Y36000D01*
X74500Y35200D01*
X73700Y36000D01*
X399700Y7000D02*
X400500Y7800D01*
X401300Y7000D01*
X400500Y6200D01*
X399700Y7000D01*
X402200Y9500D02*
X403000Y10300D01*
X403800Y9500D01*
X403000Y8700D01*
X402200Y9500D01*
X474700Y44000D02*
X475500Y44800D01*
X476300Y44000D01*
X475500Y43200D01*
X474700Y44000D01*
X471200D02*
X472000Y44800D01*
X472800Y44000D01*
X472000Y43200D01*
X471200Y44000D01*
X466500Y164200D02*
X466900Y164600D01*
X467300D01*
X466900Y165000D01*
X467300Y165400D01*
X466900D01*
X466500Y165800D01*
X466100Y165400D01*
X465700D01*
X466100Y165000D01*
X465700Y164600D01*
X466100D01*
X466500Y164200D01*
X476500D02*
X476900Y164600D01*
X477300D01*
X476900Y165000D01*
X477300Y165400D01*
X476900D01*
X476500Y165800D01*
X476100Y165400D01*
X475700D01*
X476100Y165000D01*
X475700Y164600D01*
X476100D01*
X476500Y164200D01*
X486500D02*
X486900Y164600D01*
X487300D01*
X486900Y165000D01*
X487300Y165400D01*
X486900D01*
X486500Y165800D01*
X486100Y165400D01*
X485700D01*
X486100Y165000D01*
X485700Y164600D01*
X486100D01*
X486500Y164200D01*
X496500D02*
X496900Y164600D01*
X497300D01*
X496900Y165000D01*
X497300Y165400D01*
X496900D01*
X496500Y165800D01*
X496100Y165400D01*
X495700D01*
X496100Y165000D01*
X495700Y164600D01*
X496100D01*
X496500Y164200D01*
X506500D02*
X506900Y164600D01*
X507300D01*
X506900Y165000D01*
X507300Y165400D01*
X506900D01*
X506500Y165800D01*
X506100Y165400D01*
X505700D01*
X506100Y165000D01*
X505700Y164600D01*
X506100D01*
X506500Y164200D01*
X516500D02*
X516900Y164600D01*
X517300D01*
X516900Y165000D01*
X517300Y165400D01*
X516900D01*
X516500Y165800D01*
X516100Y165400D01*
X515700D01*
X516100Y165000D01*
X515700Y164600D01*
X516100D01*
X516500Y164200D01*
X526500D02*
X526900Y164600D01*
X527300D01*
X526900Y165000D01*
X527300Y165400D01*
X526900D01*
X526500Y165800D01*
X526100Y165400D01*
X525700D01*
X526100Y165000D01*
X525700Y164600D01*
X526100D01*
X526500Y164200D01*
X536500D02*
X536900Y164600D01*
X537300D01*
X536900Y165000D01*
X537300Y165400D01*
X536900D01*
X536500Y165800D01*
X536100Y165400D01*
X535700D01*
X536100Y165000D01*
X535700Y164600D01*
X536100D01*
X536500Y164200D01*
X121050Y230650D02*
X121850Y231450D01*
X122650Y230650D01*
X121850Y229850D01*
X121050Y230650D01*
X95350Y204350D02*
X96150Y205150D01*
X96950Y204350D01*
X96150Y203550D01*
X95350Y204350D01*
X31700Y55000D02*
X32500Y55800D01*
X33300Y55000D01*
X32500Y54200D01*
X31700Y55000D01*
X29200Y10000D02*
X30000Y10800D01*
X30800Y10000D01*
X30000Y9200D01*
X29200Y10000D01*
X40400Y-19701D02*
X41201Y-18901D01*
X42000Y-19701D01*
X41201Y-20501D01*
X40400Y-19701D01*
X53200Y-25000D02*
X54000Y-24200D01*
X54800Y-25000D01*
X54000Y-25800D01*
X53200Y-25000D01*
X464700D02*
X465500Y-24200D01*
X466300Y-25000D01*
X465500Y-25800D01*
X464700Y-25000D01*
X25793Y92907D02*
Y92507D01*
X26593D01*
Y92907D01*
X26993D01*
Y93707D01*
X26593D01*
Y94107D01*
X25793D01*
Y93707D01*
X25393D01*
Y92907D01*
X25793D01*
X587657Y51043D02*
X588457Y51843D01*
X589257Y51043D01*
X588457Y50243D01*
X587657Y51043D01*
X166700Y1000D02*
X167500Y1800D01*
X168300Y1000D01*
X167500Y200D01*
X166700Y1000D01*
X257350Y16150D02*
X258150Y16950D01*
X258950Y16150D01*
X258150Y15350D01*
X257350Y16150D01*
X241700Y1000D02*
X242500Y1800D01*
X243300Y1000D01*
X242500Y200D01*
X241700Y1000D01*
X107700Y5000D02*
X108500Y5800D01*
X109300Y5000D01*
X108500Y4200D01*
X107700Y5000D01*
X245700Y221000D02*
X246500Y221800D01*
X247300Y221000D01*
X246500Y220200D01*
X245700Y221000D01*
X234200Y205000D02*
X235000Y205800D01*
X235800Y205000D01*
X235000Y204200D01*
X234200Y205000D01*
X442200Y148000D02*
X443000Y148800D01*
X443800Y148000D01*
X443000Y147200D01*
X442200Y148000D01*
X595446Y31947D02*
Y31547D01*
X596246D01*
Y31947D01*
X596646D01*
Y32746D01*
X596246D01*
Y33147D01*
X595446D01*
Y32746D01*
X595047D01*
Y31947D01*
X595446D01*
X621057Y32143D02*
Y31743D01*
X621857D01*
Y32143D01*
X622257D01*
Y32943D01*
X621857D01*
Y33343D01*
X621057D01*
Y32943D01*
X620657D01*
Y32143D01*
X621057D01*
X402750Y125150D02*
Y124750D01*
X403550D01*
Y125150D01*
X403950D01*
Y125950D01*
X403550D01*
Y126350D01*
X402750D01*
Y125950D01*
X402350D01*
Y125150D01*
X402750D01*
X396450Y125150D02*
Y124750D01*
X397250D01*
Y125150D01*
X397650D01*
Y125950D01*
X397250D01*
Y126350D01*
X396450D01*
Y125950D01*
X396050D01*
Y125150D01*
X396450D01*
X402750Y158550D02*
Y158150D01*
X403550D01*
Y158550D01*
X403950D01*
Y159350D01*
X403550D01*
Y159750D01*
X402750D01*
Y159350D01*
X402350D01*
Y158550D01*
X402750D01*
X396450Y158550D02*
Y158150D01*
X397250D01*
Y158550D01*
X397650D01*
Y159350D01*
X397250D01*
Y159750D01*
X396450D01*
Y159350D01*
X396050D01*
Y158550D01*
X396450D01*
X373600Y167300D02*
Y166900D01*
X374400D01*
Y167300D01*
X374800D01*
Y168100D01*
X374400D01*
Y168500D01*
X373600D01*
Y168100D01*
X373200D01*
Y167300D01*
X373600D01*
X366100Y166400D02*
Y166000D01*
X366900D01*
Y166400D01*
X367300D01*
Y167200D01*
X366900D01*
Y167600D01*
X366100D01*
Y167200D01*
X365700D01*
Y166400D01*
X366100D01*
X365600Y157100D02*
Y156700D01*
X366400D01*
Y157100D01*
X366800D01*
Y157900D01*
X366400D01*
Y158300D01*
X365600D01*
Y157900D01*
X365200D01*
Y157100D01*
X365600D01*
X435440Y258740D02*
X436240Y259540D01*
X437040Y258740D01*
X436240Y257940D01*
X435440Y258740D01*
X414700Y236500D02*
X415500Y237300D01*
X416300Y236500D01*
X415500Y235700D01*
X414700Y236500D01*
X394200Y226000D02*
X395000Y226800D01*
X395800Y226000D01*
X395000Y225200D01*
X394200Y226000D01*
X376700Y222000D02*
X377500Y222800D01*
X378300Y222000D01*
X377500Y221200D01*
X376700Y222000D01*
X310200Y158000D02*
Y157600D01*
X311000D01*
Y158000D01*
X311400D01*
Y158800D01*
X311000D01*
Y159200D01*
X310200D01*
Y158800D01*
X309800D01*
Y158000D01*
X310200D01*
X314800Y161200D02*
Y160800D01*
X315600D01*
Y161200D01*
X316000D01*
Y162000D01*
X315600D01*
Y162400D01*
X314800D01*
Y162000D01*
X314400D01*
Y161200D01*
X314800D01*
X281700Y162100D02*
Y161700D01*
X282500D01*
Y162100D01*
X282900D01*
Y162900D01*
X282500D01*
Y163300D01*
X281700D01*
Y162900D01*
X281300D01*
Y162100D01*
X281700D01*
X268700Y162000D02*
Y161600D01*
X269500D01*
Y162000D01*
X269900D01*
Y162800D01*
X269500D01*
Y163200D01*
X268700D01*
Y162800D01*
X268300D01*
Y162000D01*
X268700D01*
X266900Y158600D02*
Y158200D01*
X267700D01*
Y158600D01*
X268100D01*
Y159400D01*
X267700D01*
Y159800D01*
X266900D01*
Y159400D01*
X266500D01*
Y158600D01*
X266900D01*
X369816Y129016D02*
Y128616D01*
X370617D01*
Y129016D01*
X371017D01*
Y129816D01*
X370617D01*
Y130217D01*
X369816D01*
Y129816D01*
X369416D01*
Y129016D01*
X369816D01*
X370700Y110900D02*
Y110500D01*
X371500D01*
Y110900D01*
X371900D01*
Y111700D01*
X371500D01*
Y112100D01*
X370700D01*
Y111700D01*
X370300D01*
Y110900D01*
X370700D01*
X441700Y219300D02*
X442500Y220100D01*
X443300Y219300D01*
X442500Y218500D01*
X441700Y219300D01*
X427500Y88200D02*
X428300Y89000D01*
X429100Y88200D01*
X428300Y87400D01*
X427500Y88200D01*
X451000Y206500D02*
X451800Y207300D01*
X452600Y206500D01*
X451800Y205700D01*
X451000Y206500D01*
X424600Y91900D02*
X425400Y92700D01*
X426200Y91900D01*
X425400Y91100D01*
X424600Y91900D01*
X360200Y93000D02*
X361000Y93800D01*
X361800Y93000D01*
X361000Y92200D01*
X360200Y93000D01*
X369421Y135820D02*
Y135421D01*
X370220D01*
Y135820D01*
X370620D01*
Y136620D01*
X370220D01*
Y137021D01*
X369421D01*
Y136620D01*
X369021D01*
Y135820D01*
X369421D01*
X277200Y58600D02*
X278000Y59400D01*
X278800Y58600D01*
X278000Y57800D01*
X277200Y58600D01*
X331400Y127300D02*
Y126900D01*
X332200D01*
Y127300D01*
X332600D01*
Y128100D01*
X332200D01*
Y128500D01*
X331400D01*
Y128100D01*
X331000D01*
Y127300D01*
X331400D01*
X338400Y136600D02*
Y136200D01*
X339200D01*
Y136600D01*
X339600D01*
Y137400D01*
X339200D01*
Y137800D01*
X338400D01*
Y137400D01*
X338000D01*
Y136600D01*
X338400D01*
X362600Y128600D02*
Y128200D01*
X363400D01*
Y128600D01*
X363800D01*
Y129400D01*
X363400D01*
Y129800D01*
X362600D01*
Y129400D01*
X362200D01*
Y128600D01*
X362600D01*
X271940Y40140D02*
X272740Y40940D01*
X273540Y40140D01*
X272740Y39340D01*
X271940Y40140D01*
X334300Y130700D02*
Y130300D01*
X335100D01*
Y130700D01*
X335500D01*
Y131500D01*
X335100D01*
Y131900D01*
X334300D01*
Y131500D01*
X333900D01*
Y130700D01*
X334300D01*
X331000Y158100D02*
Y157700D01*
X331800D01*
Y158100D01*
X332200D01*
Y158900D01*
X331800D01*
Y159300D01*
X331000D01*
Y158900D01*
X330600D01*
Y158100D01*
X331000D01*
X234200Y185000D02*
X235000Y185800D01*
X235800Y185000D01*
X235000Y184200D01*
X234200Y185000D01*
Y200000D02*
X235000Y200800D01*
X235800Y200000D01*
X235000Y199200D01*
X234200Y200000D01*
X449600Y35600D02*
Y35200D01*
X450400D01*
Y35600D01*
X450800D01*
Y36400D01*
X450400D01*
Y36800D01*
X449600D01*
Y36400D01*
X449200D01*
Y35600D01*
X449600D01*
X451100Y32100D02*
Y31700D01*
X451900D01*
Y32100D01*
X452300D01*
Y32900D01*
X451900D01*
Y33300D01*
X451100D01*
Y32900D01*
X450700D01*
Y32100D01*
X451100D01*
X356600Y190100D02*
Y189700D01*
X357400D01*
Y190100D01*
X357800D01*
Y190900D01*
X357400D01*
Y191300D01*
X356600D01*
Y190900D01*
X356200D01*
Y190100D01*
X356600D01*
X391600Y180600D02*
Y180200D01*
X392400D01*
Y180600D01*
X392800D01*
Y181400D01*
X392400D01*
Y181800D01*
X391600D01*
Y181400D01*
X391200D01*
Y180600D01*
X391600D01*
X390100Y162100D02*
Y161700D01*
X390900D01*
Y162100D01*
X391300D01*
Y162900D01*
X390900D01*
Y163300D01*
X390100D01*
Y162900D01*
X389700D01*
Y162100D01*
X390100D01*
X391600Y158500D02*
Y158100D01*
X392400D01*
Y158500D01*
X392800D01*
Y159300D01*
X392400D01*
Y159700D01*
X391600D01*
Y159300D01*
X391200D01*
Y158500D01*
X391600D01*
X409100Y159100D02*
Y158700D01*
X409900D01*
Y159100D01*
X410300D01*
Y159900D01*
X409900D01*
Y160300D01*
X409100D01*
Y159900D01*
X408700D01*
Y159100D01*
X409100D01*
X379600Y180600D02*
Y180200D01*
X380400D01*
Y180600D01*
X380800D01*
Y181400D01*
X380400D01*
Y181800D01*
X379600D01*
Y181400D01*
X379200D01*
Y180600D01*
X379600D01*
X385600Y177600D02*
Y177200D01*
X386400D01*
Y177600D01*
X386800D01*
Y178400D01*
X386400D01*
Y178800D01*
X385600D01*
Y178400D01*
X385200D01*
Y177600D01*
X385600D01*
X342600Y198100D02*
Y197700D01*
X343400D01*
Y198100D01*
X343800D01*
Y198900D01*
X343400D01*
Y199300D01*
X342600D01*
Y198900D01*
X342200D01*
Y198100D01*
X342600D01*
X332200Y161700D02*
Y161300D01*
X333000D01*
Y161700D01*
X333400D01*
Y162500D01*
X333000D01*
Y162900D01*
X332200D01*
Y162500D01*
X331800D01*
Y161700D01*
X332200D01*
X352100Y110800D02*
Y110400D01*
X352900D01*
Y110800D01*
X353300D01*
Y111600D01*
X352900D01*
Y112000D01*
X352100D01*
Y111600D01*
X351700D01*
Y110800D01*
X352100D01*
X348163Y112937D02*
Y112537D01*
X348963D01*
Y112937D01*
X349363D01*
Y113737D01*
X348963D01*
Y114137D01*
X348163D01*
Y113737D01*
X347763D01*
Y112937D01*
X348163D01*
X344226Y110774D02*
Y110374D01*
X345026D01*
Y110774D01*
X345426D01*
Y111574D01*
X345026D01*
Y111974D01*
X344226D01*
Y111574D01*
X343826D01*
Y110774D01*
X344226D01*
X429751Y116949D02*
X430551Y117749D01*
X431351Y116949D01*
X430551Y116149D01*
X429751Y116949D01*
X364050Y201650D02*
X364850Y202450D01*
X365650Y201650D01*
X364850Y200850D01*
X364050Y201650D01*
X336700Y206500D02*
X337500Y207300D01*
X338300Y206500D01*
X337500Y205700D01*
X336700Y206500D01*
X629700Y86200D02*
X630500Y87000D01*
X631300Y86200D01*
X630500Y85400D01*
X629700Y86200D01*
X468499Y131201D02*
X469299Y132001D01*
X470099Y131201D01*
X469299Y130401D01*
X468499Y131201D01*
X452448Y223252D02*
X453248Y224052D01*
X454048Y223252D01*
X453248Y222452D01*
X452448Y223252D01*
X471700Y220000D02*
X472500Y220800D01*
X473300Y220000D01*
X472500Y219200D01*
X471700Y220000D01*
X498743Y226457D02*
X499543Y227257D01*
X500343Y226457D01*
X499543Y225657D01*
X498743Y226457D01*
X472448Y201252D02*
X473248Y202052D01*
X474048Y201252D01*
X473248Y200452D01*
X472448Y201252D01*
X549854Y206653D02*
X550654Y207453D01*
X551453Y206653D01*
X550654Y205854D01*
X549854Y206653D01*
X583546D02*
X584346Y207453D01*
X585147Y206653D01*
X584346Y205854D01*
X583546Y206653D01*
X596700Y218000D02*
X597500Y218800D01*
X598300Y218000D01*
X597500Y217200D01*
X596700Y218000D01*
X586700Y218000D02*
X587500Y218800D01*
X588300Y218000D01*
X587500Y217200D01*
X586700Y218000D01*
X566700Y218000D02*
X567500Y218800D01*
X568300Y218000D01*
X567500Y217200D01*
X566700Y218000D01*
X540157Y223957D02*
X540957Y224757D01*
X541757Y223957D01*
X540957Y223157D01*
X540157Y223957D01*
X515700Y193000D02*
X516500Y193800D01*
X517300Y193000D01*
X516500Y192200D01*
X515700Y193000D01*
X505700D02*
X506500Y193800D01*
X507300Y193000D01*
X506500Y192200D01*
X505700Y193000D01*
X495700D02*
X496500Y193800D01*
X497300Y193000D01*
X496500Y192200D01*
X495700Y193000D01*
X485700D02*
X486500Y193800D01*
X487300Y193000D01*
X486500Y192200D01*
X485700Y193000D01*
X475700D02*
X476500Y193800D01*
X477300Y193000D01*
X476500Y192200D01*
X475700Y193000D01*
X465700D02*
X466500Y193800D01*
X467300Y193000D01*
X466500Y192200D01*
X465700Y193000D01*
X607657Y3457D02*
X608457Y4257D01*
X609257Y3457D01*
X608457Y2657D01*
X607657Y3457D01*
X590047Y89153D02*
X590846Y89954D01*
X591646Y89153D01*
X590846Y88354D01*
X590047Y89153D01*
X602842Y90858D02*
X603642Y91658D01*
X604442Y90858D01*
X603642Y90058D01*
X602842Y90858D01*
X321700Y76500D02*
X322500Y77300D01*
X323300Y76500D01*
X322500Y75700D01*
X321700Y76500D01*
X308353Y81653D02*
X309154Y82454D01*
X309953Y81653D01*
X309154Y80853D01*
X308353Y81653D01*
X308460Y73740D02*
X309260Y74540D01*
X310060Y73740D01*
X309260Y72940D01*
X308460Y73740D01*
X317100Y100100D02*
Y99700D01*
X317900D01*
Y100100D01*
X318300D01*
Y100900D01*
X317900D01*
Y101300D01*
X317100D01*
Y100900D01*
X316700D01*
Y100100D01*
X317100D01*
X295600Y148100D02*
Y147700D01*
X296400D01*
Y148100D01*
X296800D01*
Y148900D01*
X296400D01*
Y149300D01*
X295600D01*
Y148900D01*
X295200D01*
Y148100D01*
X295600D01*
Y141100D02*
Y140700D01*
X296400D01*
Y141100D01*
X296800D01*
Y141900D01*
X296400D01*
Y142300D01*
X295600D01*
Y141900D01*
X295200D01*
Y141100D01*
X295600D01*
Y134100D02*
Y133700D01*
X296400D01*
Y134100D01*
X296800D01*
Y134900D01*
X296400D01*
Y135300D01*
X295600D01*
Y134900D01*
X295200D01*
Y134100D01*
X295600D01*
X297100Y123600D02*
Y123200D01*
X297900D01*
Y123600D01*
X298300D01*
Y124400D01*
X297900D01*
Y124800D01*
X297100D01*
Y124400D01*
X296700D01*
Y123600D01*
X297100D01*
X333600Y76100D02*
Y75700D01*
X334400D01*
Y76100D01*
X334800D01*
Y76900D01*
X334400D01*
Y77300D01*
X333600D01*
Y76900D01*
X333200D01*
Y76100D01*
X333600D01*
X268243Y51457D02*
X269043Y52257D01*
X269843Y51457D01*
X269043Y50657D01*
X268243Y51457D01*
X286700Y174000D02*
X287500Y174800D01*
X288300Y174000D01*
X287500Y173200D01*
X286700Y174000D01*
X294700Y169500D02*
X295500Y170300D01*
X296300Y169500D01*
X295500Y168700D01*
X294700Y169500D01*
Y176500D02*
X295500Y177300D01*
X296300Y176500D01*
X295500Y175700D01*
X294700Y176500D01*
Y183500D02*
X295500Y184300D01*
X296300Y183500D01*
X295500Y182700D01*
X294700Y183500D01*
Y190500D02*
X295500Y191300D01*
X296300Y190500D01*
X295500Y189700D01*
X294700Y190500D01*
X320700Y210500D02*
X321500Y211300D01*
X322300Y210500D01*
X321500Y209700D01*
X320700Y210500D01*
X313700D02*
X314500Y211300D01*
X315300Y210500D01*
X314500Y209700D01*
X313700Y210500D01*
X276948Y97252D02*
X277748Y98052D01*
X278548Y97252D01*
X277748Y96452D01*
X276948Y97252D01*
X268700Y115000D02*
X269500Y115800D01*
X270300Y115000D01*
X269500Y114200D01*
X268700Y115000D01*
X252940Y128240D02*
X253740Y129040D01*
X254540Y128240D01*
X253740Y127440D01*
X252940Y128240D01*
X266306Y134606D02*
X267106Y135406D01*
X267906Y134606D01*
X267106Y133806D01*
X266306Y134606D01*
X219287Y137500D02*
X220087Y138300D01*
X220887Y137500D01*
X220087Y136700D01*
X219287Y137500D01*
X200991Y85000D02*
X201791Y85800D01*
X202591Y85000D01*
X201791Y84200D01*
X200991Y85000D01*
X231700Y255000D02*
X232500Y255800D01*
X233300Y255000D01*
X232500Y254200D01*
X231700Y255000D01*
X22200Y142500D02*
X23000Y143300D01*
X23800Y142500D01*
X23000Y141700D01*
X22200Y142500D01*
Y170000D02*
X23000Y170800D01*
X23800Y170000D01*
X23000Y169200D01*
X22200Y170000D01*
X68353Y149153D02*
X69153Y149953D01*
X69954Y149153D01*
X69153Y148354D01*
X68353Y149153D01*
Y186653D02*
X69153Y187453D01*
X69954Y186653D01*
X69153Y185854D01*
X68353Y186653D01*
X81200Y132500D02*
X82000Y133300D01*
X82800Y132500D01*
X82000Y131700D01*
X81200Y132500D01*
Y142500D02*
X82000Y143300D01*
X82800Y142500D01*
X82000Y141700D01*
X81200Y142500D01*
Y170000D02*
X82000Y170800D01*
X82800Y170000D01*
X82000Y169200D01*
X81200Y170000D01*
Y180000D02*
X82000Y180800D01*
X82800Y180000D01*
X82000Y179200D01*
X81200Y180000D01*
Y200000D02*
X82000Y200800D01*
X82800Y200000D01*
X82000Y199200D01*
X81200Y200000D01*
X365750Y104250D02*
Y103850D01*
X366550D01*
Y104250D01*
X366950D01*
Y105050D01*
X366550D01*
Y105450D01*
X365750D01*
Y105050D01*
X365350D01*
Y104250D01*
X365750D01*
X337100Y97950D02*
Y97550D01*
X337900D01*
Y97950D01*
X338300D01*
Y98750D01*
X337900D01*
Y99150D01*
X337100D01*
Y98750D01*
X336700D01*
Y97950D01*
X337100D01*
X-800Y166500D02*
X0Y167300D01*
X800Y166500D01*
X0Y165700D01*
X-800Y166500D01*
Y183500D02*
X0Y184300D01*
X800Y183500D01*
X0Y182700D01*
X-800Y183500D01*
X90354Y30154D02*
X91154Y30953D01*
X91953Y30154D01*
X91154Y29353D01*
X90354Y30154D01*
X30700Y80000D02*
X31500Y80800D01*
X32300Y80000D01*
X31500Y79200D01*
X30700Y80000D01*
X202460Y20240D02*
X203260Y21040D01*
X204060Y20240D01*
X203260Y19440D01*
X202460Y20240D01*
X141850Y3150D02*
X142650Y3950D01*
X143450Y3150D01*
X142650Y2350D01*
X141850Y3150D01*
X228940Y20260D02*
X229740Y21060D01*
X230540Y20260D01*
X229740Y19460D01*
X228940Y20260D01*
X240200Y21500D02*
X241000Y22300D01*
X241800Y21500D01*
X241000Y20700D01*
X240200Y21500D01*
X252200Y20500D02*
X253000Y21300D01*
X253800Y20500D01*
X253000Y19700D01*
X252200Y20500D01*
X268200Y19500D02*
X269000Y20300D01*
X269800Y19500D01*
X269000Y18700D01*
X268200Y19500D01*
X41200Y205000D02*
X42000Y205800D01*
X42800Y205000D01*
X42000Y204200D01*
X41200Y205000D01*
X28157Y193457D02*
X28957Y194257D01*
X29757Y193457D01*
X28957Y192657D01*
X28157Y193457D01*
X81200Y210000D02*
X82000Y210800D01*
X82800Y210000D01*
X82000Y209200D01*
X81200Y210000D01*
X181050Y15350D02*
X181850Y16150D01*
X182650Y15350D01*
X181850Y14550D01*
X181050Y15350D01*
X268700Y-10000D02*
X269500Y-9200D01*
X270300Y-10000D01*
X269500Y-10800D01*
X268700Y-10000D01*
X221460Y44760D02*
X222260Y45560D01*
X223060Y44760D01*
X222260Y43960D01*
X221460Y44760D01*
X248940Y44740D02*
X249740Y45540D01*
X250540Y44740D01*
X249740Y43940D01*
X248940Y44740D01*
X394000Y12300D02*
X394800Y13100D01*
X395600Y12300D01*
X394800Y11500D01*
X394000Y12300D01*
X407700Y2500D02*
X408500Y3300D01*
X409300Y2500D01*
X408500Y1700D01*
X407700Y2500D01*
X470200Y9500D02*
X471000Y10300D01*
X471800Y9500D01*
X471000Y8700D01*
X470200Y9500D01*
X449700Y-4000D02*
X450500Y-3200D01*
X451300Y-4000D01*
X450500Y-4800D01*
X449700Y-4000D01*
X521700Y27500D02*
X522500Y28300D01*
X523300Y27500D01*
X522500Y26700D01*
X521700Y27500D01*
X539200D02*
X540000Y28300D01*
X540800Y27500D01*
X540000Y26700D01*
X539200Y27500D01*
X556700D02*
X557500Y28300D01*
X558300Y27500D01*
X557500Y26700D01*
X556700Y27500D01*
X574200D02*
X575000Y28300D01*
X575800Y27500D01*
X575000Y26700D01*
X574200Y27500D01*
X295100Y162100D02*
Y161700D01*
X295900D01*
Y162100D01*
X296300D01*
Y162900D01*
X295900D01*
Y163300D01*
X295100D01*
Y162900D01*
X294700D01*
Y162100D01*
X295100D01*
X41700Y175000D02*
X42500Y175800D01*
X43300Y175000D01*
X42500Y174200D01*
X41700Y175000D01*
X68353Y216154D02*
X69153Y216953D01*
X69954Y216154D01*
X69153Y215353D01*
X68353Y216154D01*
X56424Y195476D02*
X57224Y196276D01*
X58024Y195476D01*
X57224Y194676D01*
X56424Y195476D01*
X315163Y153537D02*
Y153137D01*
X315963D01*
Y153537D01*
X316363D01*
Y154337D01*
X315963D01*
Y154737D01*
X315163D01*
Y154337D01*
X314763D01*
Y153537D01*
X315163D01*
X312100Y165600D02*
Y165200D01*
X312900D01*
Y165600D01*
X313300D01*
Y166400D01*
X312900D01*
Y166800D01*
X312100D01*
Y166400D01*
X311700D01*
Y165600D01*
X312100D01*
X60084Y167600D02*
X60884Y168400D01*
X61684Y167600D01*
X60884Y166800D01*
X60084Y167600D01*
X313300Y134900D02*
Y134500D01*
X314100D01*
Y134900D01*
X314500D01*
Y135700D01*
X314100D01*
Y136100D01*
X313300D01*
Y135700D01*
X312900D01*
Y134900D01*
X313300D01*
X332000Y154200D02*
Y153800D01*
X332800D01*
Y154200D01*
X333200D01*
Y155000D01*
X332800D01*
Y155400D01*
X332000D01*
Y155000D01*
X331600D01*
Y154200D01*
X332000D01*
X336950Y104250D02*
Y103850D01*
X337750D01*
Y104250D01*
X338150D01*
Y105050D01*
X337750D01*
Y105450D01*
X336950D01*
Y105050D01*
X336550D01*
Y104250D01*
X336950D01*
X344301Y102399D02*
Y101999D01*
X345101D01*
Y102399D01*
X345501D01*
Y103199D01*
X345101D01*
Y103599D01*
X344301D01*
Y103199D01*
X343901D01*
Y102399D01*
X344301D01*
X342200Y131000D02*
Y130600D01*
X343000D01*
Y131000D01*
X343400D01*
Y131800D01*
X343000D01*
Y132200D01*
X342200D01*
Y131800D01*
X341800D01*
Y131000D01*
X342200D01*
X234200Y195000D02*
X235000Y195800D01*
X235800Y195000D01*
X235000Y194200D01*
X234200Y195000D01*
X270700Y185000D02*
X271500Y185800D01*
X272300Y185000D01*
X271500Y184200D01*
X270700Y185000D01*
X373600Y171100D02*
Y170700D01*
X374400D01*
Y171100D01*
X374800D01*
Y171900D01*
X374400D01*
Y172300D01*
X373600D01*
Y171900D01*
X373200D01*
Y171100D01*
X373600D01*
X363600Y163700D02*
Y163300D01*
X364400D01*
Y163700D01*
X364800D01*
Y164500D01*
X364400D01*
Y164900D01*
X363600D01*
Y164500D01*
X363200D01*
Y163700D01*
X363600D01*
Y169100D02*
Y168700D01*
X364400D01*
Y169100D01*
X364800D01*
Y169900D01*
X364400D01*
Y170300D01*
X363600D01*
Y169900D01*
X363200D01*
Y169100D01*
X363600D01*
Y160100D02*
Y159700D01*
X364400D01*
Y160100D01*
X364800D01*
Y160900D01*
X364400D01*
Y161300D01*
X363600D01*
Y160900D01*
X363200D01*
Y160100D01*
X363600D01*
X417251Y140051D02*
X418051Y140851D01*
X418851Y140051D01*
X418051Y139251D01*
X417251Y140051D01*
X347100Y127400D02*
Y127000D01*
X347900D01*
Y127400D01*
X348300D01*
Y128200D01*
X347900D01*
Y128600D01*
X347100D01*
Y128200D01*
X346700D01*
Y127400D01*
X347100D01*
X358100Y128600D02*
Y128200D01*
X358900D01*
Y128600D01*
X359300D01*
Y129400D01*
X358900D01*
Y129800D01*
X358100D01*
Y129400D01*
X357700D01*
Y128600D01*
X358100D01*
X326600Y190600D02*
Y190200D01*
X327400D01*
Y190600D01*
X327800D01*
Y191400D01*
X327400D01*
Y191800D01*
X326600D01*
Y191400D01*
X326200D01*
Y190600D01*
X326600D01*
X324100Y187600D02*
Y187200D01*
X324900D01*
Y187600D01*
X325300D01*
Y188400D01*
X324900D01*
Y188800D01*
X324100D01*
Y188400D01*
X323700D01*
Y187600D01*
X324100D01*
X338320Y127321D02*
Y126920D01*
X339121D01*
Y127321D01*
X339521D01*
Y128121D01*
X339121D01*
Y128521D01*
X338320D01*
Y128121D01*
X337920D01*
Y127321D01*
X338320D01*
X363600Y148100D02*
Y147700D01*
X364400D01*
Y148100D01*
X364800D01*
Y148900D01*
X364400D01*
Y149300D01*
X363600D01*
Y148900D01*
X363200D01*
Y148100D01*
X363600D01*
X365600Y145100D02*
Y144700D01*
X366400D01*
Y145100D01*
X366800D01*
Y145900D01*
X366400D01*
Y146300D01*
X365600D01*
Y145900D01*
X365200D01*
Y145100D01*
X365600D01*
Y151100D02*
Y150700D01*
X366400D01*
Y151100D01*
X366800D01*
Y151900D01*
X366400D01*
Y152300D01*
X365600D01*
Y151900D01*
X365200D01*
Y151100D01*
X365600D01*
X363600Y154100D02*
Y153700D01*
X364400D01*
Y154100D01*
X364800D01*
Y154900D01*
X364400D01*
Y155300D01*
X363600D01*
Y154900D01*
X363200D01*
Y154100D01*
X363600D01*
X351400Y69100D02*
Y68700D01*
X352200D01*
Y69100D01*
X352600D01*
Y69900D01*
X352200D01*
Y70300D01*
X351400D01*
Y69900D01*
X351000D01*
Y69100D01*
X351400D01*
X338400Y132300D02*
Y131900D01*
X339200D01*
Y132300D01*
X339600D01*
Y133100D01*
X339200D01*
Y133500D01*
X338400D01*
Y133100D01*
X338000D01*
Y132300D01*
X338400D01*
X585300Y103500D02*
X586100Y104300D01*
X586900Y103500D01*
X586100Y102700D01*
X585300Y103500D01*
X361600Y142100D02*
Y141700D01*
X362400D01*
Y142100D01*
X362800D01*
Y142900D01*
X362400D01*
Y143300D01*
X361600D01*
Y142900D01*
X361200D01*
Y142100D01*
X361600D01*
X285200Y91400D02*
Y91000D01*
X286000D01*
Y91400D01*
X286400D01*
Y92200D01*
X286000D01*
Y92600D01*
X285200D01*
Y92200D01*
X284800D01*
Y91400D01*
X285200D01*
X294300Y86700D02*
Y86300D01*
X295100D01*
Y86700D01*
X295500D01*
Y87500D01*
X295100D01*
Y87900D01*
X294300D01*
Y87500D01*
X293900D01*
Y86700D01*
X294300D01*
X290400Y91100D02*
Y90700D01*
X291200D01*
Y91100D01*
X291600D01*
Y91900D01*
X291200D01*
Y92300D01*
X290400D01*
Y91900D01*
X290000D01*
Y91100D01*
X290400D01*
X297500Y90200D02*
Y89800D01*
X298300D01*
Y90200D01*
X298700D01*
Y91000D01*
X298300D01*
Y91400D01*
X297500D01*
Y91000D01*
X297100D01*
Y90200D01*
X297500D01*
X405100Y30600D02*
Y30200D01*
X405900D01*
Y30600D01*
X406300D01*
Y31400D01*
X405900D01*
Y31800D01*
X405100D01*
Y31400D01*
X404700D01*
Y30600D01*
X405100D01*
X408100Y26700D02*
Y26300D01*
X408900D01*
Y26700D01*
X409300D01*
Y27500D01*
X408900D01*
Y27900D01*
X408100D01*
Y27500D01*
X407700D01*
Y26700D01*
X408100D01*
X398100Y94600D02*
Y94200D01*
X398900D01*
Y94600D01*
X399300D01*
Y95400D01*
X398900D01*
Y95800D01*
X398100D01*
Y95400D01*
X397700D01*
Y94600D01*
X398100D01*
X398600Y63200D02*
Y62800D01*
X399400D01*
Y63200D01*
X399800D01*
Y64000D01*
X399400D01*
Y64400D01*
X398600D01*
Y64000D01*
X398200D01*
Y63200D01*
X398600D01*
X374500Y98100D02*
Y97700D01*
X375300D01*
Y98100D01*
X375700D01*
Y98900D01*
X375300D01*
Y99300D01*
X374500D01*
Y98900D01*
X374100D01*
Y98100D01*
X374500D01*
X342100Y48100D02*
Y47700D01*
X342900D01*
Y48100D01*
X343300D01*
Y48900D01*
X342900D01*
Y49300D01*
X342100D01*
Y48900D01*
X341700D01*
Y48100D01*
X342100D01*
X349000Y54200D02*
Y53800D01*
X349800D01*
Y54200D01*
X350200D01*
Y55000D01*
X349800D01*
Y55400D01*
X349000D01*
Y55000D01*
X348600D01*
Y54200D01*
X349000D01*
X339100Y51100D02*
Y50700D01*
X339900D01*
Y51100D01*
X340300D01*
Y51900D01*
X339900D01*
Y52300D01*
X339100D01*
Y51900D01*
X338700D01*
Y51100D01*
X339100D01*
X462251Y142551D02*
X463051Y143351D01*
X463851Y142551D01*
X463051Y141751D01*
X462251Y142551D01*
X530300Y154500D02*
X531100Y155300D01*
X531900Y154500D01*
X531100Y153700D01*
X530300Y154500D01*
X345200Y54200D02*
Y53800D01*
X346000D01*
Y54200D01*
X346400D01*
Y55000D01*
X346000D01*
Y55400D01*
X345200D01*
Y55000D01*
X344800D01*
Y54200D01*
X345200D01*
X398600Y59600D02*
Y59200D01*
X399400D01*
Y59600D01*
X399800D01*
Y60400D01*
X399400D01*
Y60800D01*
X398600D01*
Y60400D01*
X398200D01*
Y59600D01*
X398600D01*
Y56000D02*
Y55600D01*
X399400D01*
Y56000D01*
X399800D01*
Y56800D01*
X399400D01*
Y57200D01*
X398600D01*
Y56800D01*
X398200D01*
Y56000D01*
X398600D01*
Y52200D02*
Y51800D01*
X399400D01*
Y52200D01*
X399800D01*
Y53000D01*
X399400D01*
Y53400D01*
X398600D01*
Y53000D01*
X398200D01*
Y52200D01*
X398600D01*
X271000Y107700D02*
X271800Y108500D01*
X272600Y107700D01*
X271800Y106900D01*
X271000Y107700D01*
X469700Y148700D02*
X470500Y149500D01*
X471300Y148700D01*
X470500Y147900D01*
X469700Y148700D01*
X405200Y44000D02*
X406000Y44800D01*
X406800Y44000D01*
X406000Y43200D01*
X405200Y44000D01*
X329674Y141726D02*
Y141326D01*
X330474D01*
Y141726D01*
X330874D01*
Y142526D01*
X330474D01*
Y142926D01*
X329674D01*
Y142526D01*
X329274D01*
Y141726D01*
X329674D01*
X352900Y131100D02*
Y130700D01*
X353700D01*
Y131100D01*
X354100D01*
Y131900D01*
X353700D01*
Y132300D01*
X352900D01*
Y131900D01*
X352500D01*
Y131100D01*
X352900D01*
X612468Y40768D02*
X613268Y41568D01*
X614068Y40768D01*
X613268Y39968D01*
X612468Y40768D01*
X627860Y53340D02*
Y52940D01*
X628660D01*
Y53340D01*
X629060D01*
Y54140D01*
X628660D01*
Y54540D01*
X627860D01*
Y54140D01*
X627460D01*
Y53340D01*
X627860D01*
X30700Y70000D02*
X31500Y70800D01*
X32300Y70000D01*
X31500Y69200D01*
X30700Y70000D01*
X41700Y137500D02*
X42500Y138300D01*
X43300Y137500D01*
X42500Y136700D01*
X41700Y137500D01*
X124200Y32500D02*
X125000Y33300D01*
X125800Y32500D01*
X125000Y31700D01*
X124200Y32500D01*
X83200Y67500D02*
X84000Y68300D01*
X84800Y67500D01*
X84000Y66700D01*
X83200Y67500D01*
X42700D02*
X43500Y68300D01*
X44300Y67500D01*
X43500Y66700D01*
X42700Y67500D01*
X73200Y232500D02*
X74000Y233300D01*
X74800Y232500D01*
X74000Y231700D01*
X73200Y232500D01*
X43100Y94600D02*
Y94200D01*
X43900D01*
Y94600D01*
X44300D01*
Y95400D01*
X43900D01*
Y95800D01*
X43100D01*
Y95400D01*
X42700D01*
Y94600D01*
X43100D01*
X42200Y115000D02*
X43000Y115800D01*
X43800Y115000D01*
X43000Y114200D01*
X42200Y115000D01*
X129200Y192500D02*
X130000Y193300D01*
X130800Y192500D01*
X130000Y191700D01*
X129200Y192500D01*
X129243Y178957D02*
X130043Y179757D01*
X130843Y178957D01*
X130043Y178157D01*
X129243Y178957D01*
X164354Y199153D02*
X165154Y199953D01*
X165954Y199153D01*
X165154Y198354D01*
X164354Y199153D01*
X176547Y199500D02*
X177347Y200300D01*
X178147Y199500D01*
X177347Y198700D01*
X176547Y199500D01*
X196200Y192500D02*
X197000Y193300D01*
X197800Y192500D01*
X197000Y191700D01*
X196200Y192500D01*
X201200Y199000D02*
X202000Y199800D01*
X202800Y199000D01*
X202000Y198200D01*
X201200Y199000D01*
G54D167*
X385800Y255000D02*
X385247Y255761D01*
X384353Y255470D01*
Y254530D01*
X385247Y254239D01*
X385800Y255000D01*
Y245000D02*
X385247Y245761D01*
X384353Y245470D01*
Y244530D01*
X385247Y244239D01*
X385800Y245000D01*
X375800Y255000D02*
X375247Y255761D01*
X374353Y255470D01*
Y254530D01*
X375247Y254239D01*
X375800Y255000D01*
Y245000D02*
X375247Y245761D01*
X374353Y245470D01*
Y244530D01*
X375247Y244239D01*
X375800Y245000D01*
X365800Y255000D02*
X365247Y255761D01*
X364353Y255470D01*
Y254530D01*
X365247Y254239D01*
X365800Y255000D01*
Y245000D02*
X365247Y245761D01*
X364353Y245470D01*
Y244530D01*
X365247Y244239D01*
X365800Y245000D01*
X355800Y255000D02*
X355247Y255761D01*
X354353Y255470D01*
Y254530D01*
X355247Y254239D01*
X355800Y255000D01*
Y245000D02*
X355247Y245761D01*
X354353Y245470D01*
Y244530D01*
X355247Y244239D01*
X355800Y245000D01*
X345800Y255000D02*
X345247Y255761D01*
X344353Y255470D01*
Y254530D01*
X345247Y254239D01*
X345800Y255000D01*
Y245000D02*
X345247Y245761D01*
X344353Y245470D01*
Y244530D01*
X345247Y244239D01*
X345800Y245000D01*
X335800Y255000D02*
X335247Y255761D01*
X334353Y255470D01*
Y254530D01*
X335247Y254239D01*
X335800Y255000D01*
Y245000D02*
X335247Y245761D01*
X334353Y245470D01*
Y244530D01*
X335247Y244239D01*
X335800Y245000D01*
X325800Y255000D02*
X325247Y255761D01*
X324353Y255470D01*
Y254530D01*
X325247Y254239D01*
X325800Y255000D01*
Y245000D02*
X325247Y245761D01*
X324353Y245470D01*
Y244530D01*
X325247Y244239D01*
X325800Y245000D01*
X315800Y255000D02*
X315247Y255761D01*
X314353Y255470D01*
Y254530D01*
X315247Y254239D01*
X315800Y255000D01*
Y245000D02*
X315247Y245761D01*
X314353Y245470D01*
Y244530D01*
X315247Y244239D01*
X315800Y245000D01*
X305800Y255000D02*
X305247Y255761D01*
X304353Y255470D01*
Y254530D01*
X305247Y254239D01*
X305800Y255000D01*
Y245000D02*
X305247Y245761D01*
X304353Y245470D01*
Y244530D01*
X305247Y244239D01*
X305800Y245000D01*
X295800Y255000D02*
X295247Y255761D01*
X294353Y255470D01*
Y254530D01*
X295247Y254239D01*
X295800Y255000D01*
Y245000D02*
X295247Y245761D01*
X294353Y245470D01*
Y244530D01*
X295247Y244239D01*
X295800Y245000D01*
X285800Y255000D02*
X285247Y255761D01*
X284353Y255470D01*
Y254530D01*
X285247Y254239D01*
X285800Y255000D01*
Y245000D02*
X285247Y245761D01*
X284353Y245470D01*
Y244530D01*
X285247Y244239D01*
X285800Y245000D01*
X275800Y255000D02*
X275247Y255761D01*
X274353Y255470D01*
Y254530D01*
X275247Y254239D01*
X275800Y255000D01*
Y245000D02*
X275247Y245761D01*
X274353Y245470D01*
Y244530D01*
X275247Y244239D01*
X275800Y245000D01*
X265800Y255000D02*
X265247Y255761D01*
X264353Y255470D01*
Y254530D01*
X265247Y254239D01*
X265800Y255000D01*
Y245000D02*
X265247Y245761D01*
X264353Y245470D01*
Y244530D01*
X265247Y244239D01*
X265800Y245000D01*
M02*
