M48
;Layer_Color=9474304
;FILE_FORMAT=2:5
INCH,LZ
;TYPE=PLATED
T1F00S00C0.01200
T2F00S00C0.01598
T3F00S00C0.01600
T4F00S00C0.02756
T5F00S00C0.02800
T6F00S00C0.03543
T7F00S00C0.03937
T8F00S00C0.04921
T9F00S00C0.11811
%
T01
X-0013Y-00327
X-00075Y-00352
X-0002Y-00327
X00005Y-00272
X-0002Y-00217
X-00075Y-00192
X-0013Y-00217
X-00155Y-00272
X06327
X06352Y-00217
X06407Y-00192
X06462Y-00217
X06487Y-00272
X06462Y-00327
X06407Y-00352
X06352Y-00327
X0621457Y0032543
X0595847Y0032346
X062826Y005374
X045Y0036
X04515Y00325
X04055Y0031
X04085Y00271
X0399Y00526
Y00564
Y006
Y00636
X03985Y0095
X03749Y00985
X036615Y010465
X03711Y01113
X03525Y01112
X0348563Y0113337
X0344626Y0111174
X0344701Y0102799
X033735Y010465
X03375Y009835
X03175Y01005
X0334Y00765
X03518Y00695
X03494Y00546
X03456
X03425Y00485
X03395Y00515
X033872Y012772
X03388Y01327
Y0137
X03426Y01314
X03347Y01311
X03318Y01277
X03475Y01278
X03533Y01315
X03585Y0129
X0363
X0370216Y0129417
X036982Y0136221
X0366Y01455
X0364Y01485
X0362Y01425
X0330074Y0142126
X039685Y012555
X040315Y012555
X03137Y01353
X0296Y01345
Y01415
Y01485
X02975Y0124
X02979Y00906
X02947Y00871
X02908Y00915
X02856Y00918
X00435Y0095
X0026193Y0093307
X-0002Y02515
X-00075Y0249
X-0013Y02515
X-00155Y0257
X-0013Y02625
X-00075Y0265
X-0002Y02625
X00005Y0257
X02691Y01624
X02673Y0159
X02821Y01625
X02955
X03106Y01584
X03152Y01616
X03125Y0166
X0315563Y0153937
X03324Y01546
X03314Y01585
X03326Y01621
X0364Y01605
Y01641
X03665Y01668
X0364Y01695
X0374Y01677
Y01715
X038Y0181
X0386Y0178
X0392Y0181
X03905Y01625
X0392Y01589
X039685Y015895
X040315Y015895
X04095Y01595
X0366Y01575
X0364Y01545
X0366Y01515
X0357Y01905
X0343Y01985
X0327Y0191
X03245Y0188
X06352Y02515
X06407Y0249
X06462Y02515
X06487Y0257
X06462Y02625
X06407Y0265
X06352Y02625
X06327Y0257
T02
X0427244Y0014882
Y002
X0432756
Y0025118
Y0014882
T03
X0041201Y-0019701
X0054Y-0025
X02695Y-001
X04655Y-0025
X06305Y00862
X0603642Y0090858
X0590846Y0089153
X05861Y01035
X0588457Y0051043
X0613268Y0040768
X0608457Y0003457
X0575Y00275
X05575
X054
X05225
X04755Y0044
X0472
X0471Y00095
X04505Y-0004
X04085Y00025
X04005Y0007
X0403Y00095
X03948Y00123
X0406Y0044
X0427244Y0025118
X04283Y00882
X04254Y00919
X0430551Y0116949
X0418051Y0140051
X0443Y0148
X0463051Y0142551
X04705Y01487
X0469299Y0131201
X0361Y0093
X03225Y00765
X030926Y007374
X0309154Y0081653
X0277748Y0097252
X02718Y01077
X02695Y0115
X0267106Y0134606
X025374Y012824
X0220087Y01375
X0201791Y0085
X022226Y004476
X024974Y004474
X0269043Y0051457
X027274Y004014
X0278Y00586
X0269Y00195
X025815Y001615
X0253Y00205
X0241Y00215
X022974Y002026
X020326Y002024
X018185Y001535
X01675Y0001
X02425
X014265Y000315
X01085Y0005
X0091154Y0030154
X0078Y0036
X00745
X0084Y00675
X00435
X00315Y007
Y008
X00325Y0055
X00375Y0045
X0041
X00375Y00415
Y001
X0041
X003
X0125Y00325
X0082Y01325
Y01425
X0069153Y0149153
X00425Y01375
X0043Y0115
X0023Y01425
X0Y01665
Y01835
X0023Y017
X00425Y0175
X0060884Y01676
X0082Y017
Y018
X0069153Y0186653
X0057224Y0195476
X0042Y0205
X0028957Y0193457
X0082Y02
Y021
X0069153Y0216154
X0074Y02325
X012185Y023065
X013Y01925
X0130043Y0178957
X009615Y020435
X0165154Y0199153
X0177347Y01995
X0202Y0199
X0197Y01925
X0235Y0195
Y02
Y0205
Y0185
X02715
X02955Y01835
Y01765
Y01695
X02875Y0174
X02955Y01905
X03145Y02105
X02465Y0221
X02325Y0255
X03215Y02105
X03375Y02065
X036485Y020165
X03775Y0222
X0395Y0226
X04155Y02365
X043624Y025874
X04425Y02193
X0453248Y0223252
X04518Y02065
X0473248Y0201252
X04665Y0193
X04725Y022
X04765Y0193
X04865
X04965
X05065
X05165
X0550654Y0206653
X0540957Y0223957
X05675Y0218
X05875Y0218
X05975Y0218
X0584346Y0206653
X0499543Y0226457
X05311Y01545
T04
X0175Y01725
X0185
X0195
Y0225
X0185
X0175
T05
X0325Y00325
X0295
T06
X01175Y-0025
X01275
X01375
X018
Y-0015
X019
X02
X021
X022
Y-0025
X021
X02
X019
X0265
X0275
X0285
X0295
X0305
X0315
X0325
X0335
X0534
X0544
X0554
X0564
X06375Y00075
Y00175
Y00275
X05725Y01475
X05625
X05165Y01325
X05065
X04965
X04865
Y01225
X04965
X05065
X05165
X0Y012
Y013
Y014
Y015
Y011
Y01
Y009
Y008
Y007
Y006
Y005
Y004
Y003
Y002
Y001
Y0
Y02
Y021
Y022
X0025Y0255
X0035
X0045
X008
X009
X01
X011
X01825
X01925
X04625
X04725
X04665Y0165
X04765
X04865
X04965
X05065
X05165
X05265
X05365
X05625Y01675
X05725
Y01575
X05625
Y01775
X05725
X05775Y0255
X05875
X05975
X05675
X05575
X05125
X05025
X04925
X04825
T07
X0265Y0245
X0275
X0285
X0295
X0305
X0315
Y0255
X0305
X0295
X0285
X0275
X0265
X0325
X0335
X0345
X0355
X0365
X0375
X0385
Y0245
X0375
X0365
X0355
X0345
X0335
X0325
T08
X0185Y0095
X0106653
T09
X-00075Y-00272
X06407
X-00075Y0257
X06407
M30
