M48
;Layer_Color=9474304
;FILE_FORMAT=2:5
INCH,LZ
;TYPE=PLATED
T1F00S00C0.01200
T2F00S00C0.01600
T3F00S00C0.02800
T4F00S00C0.03150
T5F00S00C0.03543
T6F00S00C0.04724
T7F00S00C0.05512
T8F00S00C0.17716
%
T01
X03173Y04273
X03142Y0435
X03173Y04427
X0325Y04458
X03327Y04427
X03358Y0435
X03327Y04273
X0325Y04242
X10223Y04273
X103Y04242
X10377Y04273
X10408Y0435
X10377Y04427
X103Y04458
X10223Y04427
X10192Y0435
X0898Y04715
Y0475
Y04785
Y0482
X0893
Y04785
Y0475
Y04715
X0888
Y0475
Y04785
Y0482
X0883
Y04785
Y0475
Y04715
X0885Y04985
Y0502
Y05055
X0889
X0888957Y0502024
X0889Y04985
X0893
Y0502
Y05055
X09Y05065
Y05035
Y05005
Y04975
X0903
Y05005
Y05035
Y05065
X0906
Y05035
Y05005
Y04975
X0877
Y05005
Y05035
Y05065
X0872Y05075
X0861
X08665Y05135
Y05015
X08385Y05005
Y04975
X08355
Y05005
Y05035
X08385
Y05065
X08355
X08325
Y05035
Y05005
Y04975
X08255Y04985
Y0502
Y05055
X08215
X0821457Y0502024
X08215Y04985
X08175
Y0502
Y05055
X08095Y05065
Y05035
Y05005
Y04975
X0799Y05015
X07935Y05075
X08045
X0799Y05135
X08155Y0482
Y04785
Y0475
Y04715
X08205
Y0475
Y04785
Y0482
X08255
Y04785
Y0475
Y04715
X08305
Y0475
Y04785
Y0482
X0455Y0608
Y0611
X0452
X0449
Y0608
X0452
Y06145
X0449
Y06175
Y06205
X0452
Y06175
X0455
Y06145
Y06205
Y0624
X0452
X0449
Y0627
X0452
X0455
X05575Y06481
Y06521
X05615
Y06561
Y06601
Y06641
X05575
Y06601
Y06561
X05655
X05695
X05735
Y06601
Y06641
Y06681
Y06721
X05695
X05655
X05615
Y06681
X05655
Y06641
X05695
Y06601
X05655
Y06521
X05695
Y06481
X05655
X05615
X05735
Y06521
X05695Y06681
X05575
Y06721
X10223Y08148
X103Y08117
X10377Y08148
X10408Y08225
X10377Y08302
X103Y08333
X10223Y08302
X10192Y08225
X03358
X03327Y08302
X0325Y08333
X03173Y08302
X03142Y08225
X03173Y08148
X0325Y08117
X03327Y08148
T02
X05575Y0462
X05675
X0700053Y0456307
X09675Y0471
X09875
X10045Y0511
X0997087Y0539856
X0996693Y0550053
X0994193Y0560807
X0966431Y0535
X0953569Y053
X0947Y0527939
X0944475Y0606
X0966307Y0609947
X0924913Y0598144
X09225Y06235
X08125Y0615
X0791537Y0609
X0808Y0589
X0808Y0569
X0799Y0569043
X079Y0569
X07905Y0546
X08215Y05475
X0823Y053
X08215Y0521
X08325Y05225
X08125Y05355
X0809Y0491
X0802307Y0474307
X0869693Y0474307
X08765Y0491
X0889Y05215
X088Y05355
X0866069Y0555
X08475Y05525
X0781Y0569
X0765Y057
X07575
X075
X07425
X0735
X07225Y0567
X07175Y05625
X0705Y05545
X06975Y0539
X0685Y056
X07248Y05263
X0724947Y0513693
X0735053Y0486693
X07365Y048
X0689569Y0475
Y0485
X06265Y0616
X04885Y0604
X036Y0477585
X03485Y0479
X0461Y0677231
X0473Y0687
X048Y07
X0502Y06405
X0565931Y0713701
X0617915Y074
X0636Y07055
X06755Y07125
Y0718
X0676Y0735
X0694915Y074
X0716856Y0742087
X0720569Y073
X07334Y07383
X07396Y0735
X07578Y0732
X0766053Y0738307
X0755947Y0745
X0779Y0754
X0775053Y0778307
X0751947
X06725Y07725
X07465Y0693
X075Y06825
X073Y0675
X07715Y0693
X07665Y07
X07885Y0719
X0833Y07246
X08312Y07284
X0838642Y07237
X085Y07275
X08525Y07325
X0855Y07375
X08515Y0754
Y07625
X0869
X0869Y0754
X0865Y0749
X0877
X08845Y073
X08841Y07225
X08763Y07159
X08655Y07175
X0895
X0896Y07125
X0904Y0725
X0915Y0736
X0924475Y0742
X09329Y07215
X0930046Y0704323
X0934046Y068926
X0918913Y0690144
X0912Y0685
X0906Y0691
X0901
X09075Y06995
X09051Y06654
X08915Y06735
X0882Y06771
X089Y065
X0925913Y0648144
X09213Y06318
X0907913Y0759856
X0870053Y0778307
X0857053
X08315Y07555
X0825Y0757
X08175Y07555
X08075Y0755
X0946307Y0749947
X09625Y0745
Y0735
X0978Y07195
X09775Y06995
X09665Y06795
X0959
X0966307Y0659947
X0944475Y065
X0947446Y0709418
X0948Y0772
X0961
X0966053Y0785
X09431Y0812
X0927053Y0784693
X08925Y0797
X08725Y0785
X0831053
X08471Y0812
X07521
X0764947Y0785
X0725947
X06055Y079
X0533431Y0788701
T03
X063Y05345
Y05425
X064Y05675
X06515Y06105
Y06175
X06735
Y06105
X0603Y06185
X0622Y05425
X0528Y0591
X052
Y0599
X0415Y06515
Y06595
X0423
X0494
X0502
Y06515
X0587Y06285
X05955
T04
X0959Y0566
X0969Y0576
X0979Y0566
X0715Y0517
X0705Y0507
X0695Y0517
X0425Y06825
X0415Y06925
X0425Y07025
T05
X0705Y0435
X0715
X09575Y044
X09675
X09775
X09875
X0995Y0595
Y0605
Y0615
X036
Y0605
Y0625
X053Y07425
X054
X055
X056
X057
Y07525
X056
X055
X054
X053
X062Y07725
X063
X064
X07225Y0695
X07325
Y0645
Y0635
Y0625
X07425
Y0635
Y0645
X0995
Y0655
Y0665
Y0695
Y0705
Y0735
Y0745
Y0755
X0695Y08175
X0685
X0675
X0665
X0655
Y08275
X0665
X0675
X0685
X0695
X06055Y08225
X05955
X05855
X05375Y08175
X05275
X05175
X05075
X04975
Y08275
X05075
X05175
X05275
X05375
T06
X049Y0495
X05025
X0515
X05775
Y057
X044
Y0495
T07
X03775Y0435846
Y04575
X04325
Y0435846
X04775
Y04575
X05225
Y0435846
X078Y043
Y0451654
X0815787
X0832323
X0848858
X0865394
X0881929
X0898465
X0915
Y043
X0898465
X0881929
X0865394
X0848858
X0832323
X0815787
X03725Y0666732
Y0683268
X0350846
Y0666732
Y07275
X03725
X039Y07975
Y0819154
X0435
Y07975
T08
X0325Y0435
X103
Y08225
X0325
M30
