%FSLAX25Y25*%
%MOIN*%
G70*
G01*
G75*
%ADD10R,0.03937X0.03937*%
%ADD11R,0.03937X0.03937*%
%ADD12R,0.01260X0.06299*%
%ADD13R,0.13386X0.09685*%
%ADD14R,0.08661X0.09843*%
%ADD15R,0.03937X0.03543*%
%ADD16R,0.04331X0.03937*%
%ADD17R,0.03937X0.04331*%
%ADD18R,0.03543X0.03937*%
%ADD19R,0.06299X0.16535*%
%ADD20R,0.05906X0.05118*%
%ADD21R,0.09843X0.08661*%
%ADD22R,0.21654X0.07874*%
%ADD23R,0.05709X0.01772*%
%ADD24O,0.08661X0.02362*%
%ADD25R,0.03504X0.09488*%
%ADD26R,0.21063X0.33622*%
%ADD27R,0.06299X0.01378*%
%ADD28R,0.09685X0.09095*%
%ADD29O,0.08071X0.01772*%
%ADD30O,0.01772X0.08071*%
%ADD31R,0.04724X0.05512*%
%ADD32R,0.05512X0.04724*%
%ADD33R,0.12000X0.06000*%
%ADD34R,0.07087X0.11811*%
%ADD35R,0.11811X0.07087*%
%ADD36R,0.04600X0.16700*%
%ADD37R,0.07874X0.04724*%
%ADD38R,0.06693X0.09843*%
%ADD39R,0.11000X0.15000*%
%ADD40R,0.05118X0.05906*%
%ADD41R,0.04724X0.07874*%
%ADD42R,0.05118X0.10630*%
%ADD43R,0.10630X0.05118*%
%ADD44R,0.07087X0.22835*%
%ADD45R,0.07087X0.05118*%
%ADD46R,0.06299X0.13780*%
%ADD47R,0.05118X0.07087*%
%ADD48R,0.13780X0.06299*%
%ADD49R,0.07874X0.08661*%
%ADD50R,0.08661X0.07874*%
%ADD51R,0.05709X0.02165*%
%ADD52R,0.05709X0.02165*%
%ADD53C,0.01500*%
%ADD54C,0.01000*%
%ADD55C,0.01200*%
%ADD56C,0.05000*%
%ADD57C,0.02500*%
%ADD58C,0.02000*%
%ADD59C,0.03000*%
%ADD60C,0.01400*%
%ADD61C,0.03500*%
%ADD62R,0.06200X0.06200*%
%ADD63C,0.06200*%
%ADD64R,0.06200X0.06200*%
%ADD65C,0.02800*%
%ADD66C,0.09449*%
%ADD67R,0.09449X0.09449*%
%ADD68R,0.05906X0.05906*%
%ADD69C,0.05906*%
%ADD70R,0.05906X0.05906*%
%ADD71C,0.25590*%
%ADD72C,0.05000*%
%ADD73R,0.09449X0.09449*%
%ADD74C,0.07874*%
%ADD75C,0.03200*%
%ADD76C,0.04000*%
%ADD77C,0.07543*%
G04:AMPARAMS|DCode=78|XSize=95.118mil|YSize=95.118mil|CornerRadius=0mil|HoleSize=0mil|Usage=FLASHONLY|Rotation=0.000|XOffset=0mil|YOffset=0mil|HoleType=Round|Shape=Relief|Width=10mil|Gap=10mil|Entries=4|*
%AMTHD78*
7,0,0,0.09512,0.07512,0.01000,45*
%
%ADD78THD78*%
%ADD79C,0.09512*%
%ADD80C,0.07543*%
G04:AMPARAMS|DCode=81|XSize=75.433mil|YSize=75.433mil|CornerRadius=0mil|HoleSize=0mil|Usage=FLASHONLY|Rotation=0.000|XOffset=0mil|YOffset=0mil|HoleType=Round|Shape=Relief|Width=10mil|Gap=10mil|Entries=4|*
%AMTHD81*
7,0,0,0.07543,0.05543,0.01000,45*
%
%ADD81THD81*%
%ADD82C,0.21717*%
%ADD83C,0.05200*%
%ADD84C,0.06800*%
%ADD85C,0.08724*%
G04:AMPARAMS|DCode=86|XSize=87.244mil|YSize=87.244mil|CornerRadius=0mil|HoleSize=0mil|Usage=FLASHONLY|Rotation=0.000|XOffset=0mil|YOffset=0mil|HoleType=Round|Shape=Relief|Width=10mil|Gap=10mil|Entries=4|*
%AMTHD86*
7,0,0,0.08724,0.06724,0.01000,45*
%
%ADD86THD86*%
%ADD87C,0.07150*%
G04:AMPARAMS|DCode=88|XSize=71.496mil|YSize=71.496mil|CornerRadius=0mil|HoleSize=0mil|Usage=FLASHONLY|Rotation=0.000|XOffset=0mil|YOffset=0mil|HoleType=Round|Shape=Relief|Width=10mil|Gap=10mil|Entries=4|*
%AMTHD88*
7,0,0,0.07150,0.05150,0.01000,45*
%
%ADD88THD88*%
G04:AMPARAMS|DCode=89|XSize=75.433mil|YSize=75.433mil|CornerRadius=0mil|HoleSize=0mil|Usage=FLASHONLY|Rotation=0.000|XOffset=0mil|YOffset=0mil|HoleType=Round|Shape=Relief|Width=10mil|Gap=10mil|Entries=4|*
%AMTHD89*
7,0,0,0.07543,0.05543,0.01000,45*
%
%ADD89THD89*%
%ADD90C,0.05600*%
G04:AMPARAMS|DCode=91|XSize=56mil|YSize=56mil|CornerRadius=0mil|HoleSize=0mil|Usage=FLASHONLY|Rotation=0.000|XOffset=0mil|YOffset=0mil|HoleType=Round|Shape=Relief|Width=10mil|Gap=10mil|Entries=4|*
%AMTHD91*
7,0,0,0.05600,0.03600,0.01000,45*
%
%ADD91THD91*%
G04:AMPARAMS|DCode=92|XSize=68mil|YSize=68mil|CornerRadius=0mil|HoleSize=0mil|Usage=FLASHONLY|Rotation=0.000|XOffset=0mil|YOffset=0mil|HoleType=Round|Shape=Relief|Width=10mil|Gap=10mil|Entries=4|*
%AMTHD92*
7,0,0,0.06800,0.04800,0.01000,45*
%
%ADD92THD92*%
G54D10*
X605500Y801500D02*
D03*
Y795201D02*
D03*
X595500Y801500D02*
D03*
Y795201D02*
D03*
X585500Y801500D02*
D03*
Y795201D02*
D03*
X1004500Y516701D02*
D03*
Y523000D02*
D03*
X537500Y788701D02*
D03*
Y795000D02*
D03*
X517500Y788701D02*
D03*
Y795000D02*
D03*
X507500Y788701D02*
D03*
Y795000D02*
D03*
X570000Y713701D02*
D03*
Y720000D02*
D03*
X550000Y713701D02*
D03*
Y720000D02*
D03*
X540000Y713701D02*
D03*
Y720000D02*
D03*
G54D11*
X660000Y772500D02*
D03*
X666299D02*
D03*
X660000Y782500D02*
D03*
X666299D02*
D03*
X660000Y762500D02*
D03*
X666299D02*
D03*
X659350Y610500D02*
D03*
X665650D02*
D03*
Y617500D02*
D03*
X659350D02*
D03*
X953000Y615000D02*
D03*
X946701D02*
D03*
X953000Y665000D02*
D03*
X946701D02*
D03*
X933000Y755000D02*
D03*
X926701D02*
D03*
X856350Y754000D02*
D03*
X862650D02*
D03*
X856350Y762500D02*
D03*
X862650D02*
D03*
G54D12*
X830413Y491000D02*
D03*
Y513047D02*
D03*
X827854D02*
D03*
X812500D02*
D03*
X815059D02*
D03*
X817618D02*
D03*
X820177D02*
D03*
X822736D02*
D03*
X825295D02*
D03*
X827854Y491000D02*
D03*
X825295D02*
D03*
X822736D02*
D03*
X820177D02*
D03*
X817618D02*
D03*
X815059D02*
D03*
X812500D02*
D03*
X897913D02*
D03*
Y513047D02*
D03*
X895354D02*
D03*
X880000D02*
D03*
X882559D02*
D03*
X885118D02*
D03*
X887677D02*
D03*
X890236D02*
D03*
X892795D02*
D03*
X895354Y491000D02*
D03*
X892795D02*
D03*
X890236D02*
D03*
X887677D02*
D03*
X885118D02*
D03*
X882559D02*
D03*
X880000D02*
D03*
G54D13*
X821457Y502024D02*
D03*
X888957D02*
D03*
G54D14*
X799000Y489000D02*
D03*
Y507504D02*
D03*
X866500Y489000D02*
D03*
Y507504D02*
D03*
G54D15*
X471000Y661500D02*
D03*
Y654807D02*
D03*
X557500Y475000D02*
D03*
Y468307D02*
D03*
X626500Y629000D02*
D03*
Y622307D02*
D03*
X348500Y498307D02*
D03*
Y505000D02*
D03*
X735000Y595847D02*
D03*
Y589153D02*
D03*
G54D16*
X464500Y661500D02*
D03*
X457807D02*
D03*
G54D17*
X567500Y475000D02*
D03*
Y468307D02*
D03*
X626500Y635500D02*
D03*
Y642193D02*
D03*
X1000000Y567500D02*
D03*
Y560807D02*
D03*
X348500Y492000D02*
D03*
Y485307D02*
D03*
X735000Y575807D02*
D03*
Y582500D02*
D03*
X742500Y575807D02*
D03*
Y582500D02*
D03*
X750000Y575807D02*
D03*
Y582500D02*
D03*
X757500Y575807D02*
D03*
Y582500D02*
D03*
X765000Y575807D02*
D03*
Y582500D02*
D03*
G54D18*
X1000000Y575000D02*
D03*
X993307D02*
D03*
X771347Y645000D02*
D03*
X764653D02*
D03*
X771347Y637500D02*
D03*
X764653D02*
D03*
X771347Y630000D02*
D03*
X764653D02*
D03*
X771347Y622500D02*
D03*
X764653D02*
D03*
G54D19*
X610000Y544016D02*
D03*
Y570000D02*
D03*
Y495000D02*
D03*
Y524134D02*
D03*
G54D20*
X831000Y597323D02*
D03*
Y605984D02*
D03*
X826000Y778307D02*
D03*
Y785000D02*
D03*
X865000Y778307D02*
D03*
Y785000D02*
D03*
X852000D02*
D03*
Y778307D02*
D03*
X922000Y778000D02*
D03*
Y784693D02*
D03*
X731000Y778307D02*
D03*
Y785000D02*
D03*
X948000Y778307D02*
D03*
Y785000D02*
D03*
X961000D02*
D03*
Y778307D02*
D03*
X770000D02*
D03*
Y785000D02*
D03*
X757000D02*
D03*
Y778307D02*
D03*
X572500Y598307D02*
D03*
Y605000D02*
D03*
X591000Y611807D02*
D03*
Y618500D02*
D03*
X427000Y607307D02*
D03*
Y614000D02*
D03*
X730000Y486693D02*
D03*
Y480000D02*
D03*
X695000Y463000D02*
D03*
Y456307D02*
D03*
X730000Y513693D02*
D03*
Y507000D02*
D03*
X681000Y480000D02*
D03*
Y486693D02*
D03*
X808100Y474307D02*
D03*
Y481000D02*
D03*
X875500Y474307D02*
D03*
Y481000D02*
D03*
X858500Y558307D02*
D03*
Y565000D02*
D03*
X883457Y589307D02*
D03*
Y596000D02*
D03*
X805500Y741347D02*
D03*
Y734654D02*
D03*
X831000Y588000D02*
D03*
Y581307D02*
D03*
X821000Y588000D02*
D03*
Y581307D02*
D03*
X852457Y589307D02*
D03*
Y596000D02*
D03*
X761000Y745000D02*
D03*
Y738307D02*
D03*
X812500Y599307D02*
D03*
Y606000D02*
D03*
G54D21*
X951496Y600000D02*
D03*
X970000D02*
D03*
X951496Y650000D02*
D03*
X970000D02*
D03*
X931496Y740000D02*
D03*
X950000D02*
D03*
G54D22*
X886902Y612500D02*
D03*
X849500D02*
D03*
G54D23*
X935000Y712000D02*
D03*
Y709441D02*
D03*
Y706882D02*
D03*
Y704323D02*
D03*
X952400Y704300D02*
D03*
Y706859D02*
D03*
Y709418D02*
D03*
Y711977D02*
D03*
G54D24*
X978898Y530000D02*
D03*
Y535000D02*
D03*
Y540000D02*
D03*
Y545000D02*
D03*
X960000Y530000D02*
D03*
Y535000D02*
D03*
Y540000D02*
D03*
Y545000D02*
D03*
X714898Y475000D02*
D03*
Y480000D02*
D03*
Y485000D02*
D03*
Y490000D02*
D03*
X696000Y475000D02*
D03*
Y480000D02*
D03*
Y485000D02*
D03*
Y490000D02*
D03*
X647500Y740000D02*
D03*
Y735000D02*
D03*
Y730000D02*
D03*
Y725000D02*
D03*
Y720000D02*
D03*
Y715000D02*
D03*
Y710000D02*
D03*
Y705000D02*
D03*
X666398Y740000D02*
D03*
Y735000D02*
D03*
Y730000D02*
D03*
Y725000D02*
D03*
Y720000D02*
D03*
Y715000D02*
D03*
Y710000D02*
D03*
Y705000D02*
D03*
X891398Y555000D02*
D03*
Y560000D02*
D03*
Y565000D02*
D03*
Y570000D02*
D03*
X872500Y555000D02*
D03*
Y560000D02*
D03*
Y565000D02*
D03*
Y570000D02*
D03*
X727000Y745000D02*
D03*
Y740000D02*
D03*
Y735000D02*
D03*
Y730000D02*
D03*
X745898Y745000D02*
D03*
Y740000D02*
D03*
Y735000D02*
D03*
Y730000D02*
D03*
G54D25*
X550500Y630061D02*
D03*
X555500D02*
D03*
X560500D02*
D03*
X565500D02*
D03*
X570500D02*
D03*
X575500D02*
D03*
X580500D02*
D03*
G54D26*
X565500Y660100D02*
D03*
G54D27*
X463500Y625177D02*
D03*
Y622618D02*
D03*
Y620059D02*
D03*
Y617500D02*
D03*
Y614941D02*
D03*
Y612382D02*
D03*
Y609823D02*
D03*
X440500D02*
D03*
Y612382D02*
D03*
Y614941D02*
D03*
Y617500D02*
D03*
Y620059D02*
D03*
Y622618D02*
D03*
Y625177D02*
D03*
G54D28*
X452000Y617500D02*
D03*
G54D29*
X785000Y710000D02*
D03*
X869252D02*
D03*
Y707441D02*
D03*
Y704882D02*
D03*
Y702323D02*
D03*
Y699764D02*
D03*
Y697205D02*
D03*
Y694646D02*
D03*
Y692087D02*
D03*
Y689528D02*
D03*
Y686969D02*
D03*
Y684409D02*
D03*
Y681850D02*
D03*
Y679291D02*
D03*
Y676732D02*
D03*
Y674173D02*
D03*
Y671614D02*
D03*
Y669055D02*
D03*
Y666496D02*
D03*
Y663937D02*
D03*
Y661378D02*
D03*
Y658819D02*
D03*
Y656260D02*
D03*
Y653701D02*
D03*
Y651142D02*
D03*
Y648583D02*
D03*
Y646024D02*
D03*
Y643465D02*
D03*
Y640906D02*
D03*
X785000D02*
D03*
Y643465D02*
D03*
Y646024D02*
D03*
Y648583D02*
D03*
Y651142D02*
D03*
Y653701D02*
D03*
Y656260D02*
D03*
Y658819D02*
D03*
Y661378D02*
D03*
Y663937D02*
D03*
Y666496D02*
D03*
Y669055D02*
D03*
Y671614D02*
D03*
Y674173D02*
D03*
Y676732D02*
D03*
Y679291D02*
D03*
Y681850D02*
D03*
Y684409D02*
D03*
Y686969D02*
D03*
Y689528D02*
D03*
Y692087D02*
D03*
Y694646D02*
D03*
Y697205D02*
D03*
Y699764D02*
D03*
Y702323D02*
D03*
Y704882D02*
D03*
Y707441D02*
D03*
G54D30*
X792579Y717579D02*
D03*
X795138D02*
D03*
X797697D02*
D03*
X800256D02*
D03*
X802815D02*
D03*
X805374D02*
D03*
X807933D02*
D03*
X810492D02*
D03*
X813051D02*
D03*
X815610D02*
D03*
X818169D02*
D03*
X820728D02*
D03*
X823287D02*
D03*
X825846D02*
D03*
X828406D02*
D03*
X830965D02*
D03*
X833524D02*
D03*
X836083D02*
D03*
X838642D02*
D03*
X841201D02*
D03*
X843760D02*
D03*
X846319D02*
D03*
X848878D02*
D03*
X851437D02*
D03*
X853996D02*
D03*
X856555D02*
D03*
X859114D02*
D03*
X861673D02*
D03*
Y633327D02*
D03*
X859114D02*
D03*
X856555D02*
D03*
X853996D02*
D03*
X851437D02*
D03*
X848878D02*
D03*
X846319D02*
D03*
X843760D02*
D03*
X841201D02*
D03*
X838642D02*
D03*
X836083D02*
D03*
X833524D02*
D03*
X830965D02*
D03*
X828406D02*
D03*
X825846D02*
D03*
X823287D02*
D03*
X820728D02*
D03*
X818169D02*
D03*
X815610D02*
D03*
X813051D02*
D03*
X810492D02*
D03*
X807933D02*
D03*
X805374D02*
D03*
X802815D02*
D03*
X800256D02*
D03*
X797697D02*
D03*
X795138D02*
D03*
X792579D02*
D03*
G54D31*
X940000Y721000D02*
D03*
X947087D02*
D03*
X932000Y603000D02*
D03*
X924913D02*
D03*
X933000Y653000D02*
D03*
X925913D02*
D03*
X915000Y755000D02*
D03*
X907913D02*
D03*
X997087Y535000D02*
D03*
X990000D02*
D03*
X885413Y707500D02*
D03*
X892500D02*
D03*
X509587Y480917D02*
D03*
X502500D02*
D03*
X545087Y617500D02*
D03*
X538000D02*
D03*
X481587Y594500D02*
D03*
X474500D02*
D03*
X481587Y613500D02*
D03*
X474500D02*
D03*
X456913Y600500D02*
D03*
X464000D02*
D03*
X474500Y604000D02*
D03*
X481587D02*
D03*
X965000Y709000D02*
D03*
X972087D02*
D03*
X742500Y675000D02*
D03*
X735413D02*
D03*
X760000Y693000D02*
D03*
X752913D02*
D03*
X864457Y596000D02*
D03*
X871543D02*
D03*
X829000Y571000D02*
D03*
X821913D02*
D03*
X752913Y702500D02*
D03*
X760000D02*
D03*
X972087Y699500D02*
D03*
X965000D02*
D03*
X926000Y685000D02*
D03*
X918913D02*
D03*
Y695000D02*
D03*
X926000D02*
D03*
G54D32*
X839000Y785000D02*
D03*
Y777913D02*
D03*
X935000Y785000D02*
D03*
Y777913D02*
D03*
X744000Y785000D02*
D03*
Y777913D02*
D03*
X473000Y692913D02*
D03*
Y700000D02*
D03*
X447000D02*
D03*
Y692913D02*
D03*
X947000Y566087D02*
D03*
Y559000D02*
D03*
X555500Y600413D02*
D03*
Y607500D02*
D03*
X581500Y595413D02*
D03*
Y602500D02*
D03*
X545500Y607500D02*
D03*
Y600413D02*
D03*
X581500Y611413D02*
D03*
Y618500D02*
D03*
X708000Y455913D02*
D03*
Y463000D02*
D03*
X812500Y530587D02*
D03*
Y523500D02*
D03*
X880000Y530587D02*
D03*
Y523500D02*
D03*
X987500Y464943D02*
D03*
Y457857D02*
D03*
X967500Y465043D02*
D03*
Y457957D02*
D03*
X831500Y740457D02*
D03*
Y747543D02*
D03*
X808000Y582043D02*
D03*
Y574957D02*
D03*
X799000Y574957D02*
D03*
Y582043D02*
D03*
X847500Y565000D02*
D03*
Y557913D02*
D03*
X790000Y574957D02*
D03*
Y582043D02*
D03*
X781000D02*
D03*
Y574957D02*
D03*
X712000Y735000D02*
D03*
Y742087D02*
D03*
G54D33*
X839000Y832000D02*
D03*
Y822000D02*
D03*
Y812000D02*
D03*
Y802000D02*
D03*
X905000Y832000D02*
D03*
Y822000D02*
D03*
Y812000D02*
D03*
Y802000D02*
D03*
X935000Y832000D02*
D03*
Y822000D02*
D03*
Y812000D02*
D03*
Y802000D02*
D03*
X1001000Y832000D02*
D03*
Y822000D02*
D03*
Y812000D02*
D03*
Y802000D02*
D03*
X744000Y832000D02*
D03*
Y822000D02*
D03*
Y812000D02*
D03*
Y802000D02*
D03*
X810000Y832000D02*
D03*
Y822000D02*
D03*
Y812000D02*
D03*
Y802000D02*
D03*
G54D34*
X640000Y495000D02*
D03*
Y524528D02*
D03*
G54D35*
X360000Y505000D02*
D03*
X389528D02*
D03*
G54D36*
X426500Y630500D02*
D03*
X413500D02*
D03*
G54D37*
X779000Y735701D02*
D03*
Y748299D02*
D03*
X785500Y596402D02*
D03*
Y609000D02*
D03*
G54D38*
X461000Y700000D02*
D03*
Y684252D02*
D03*
G54D39*
X438000Y641500D02*
D03*
X468000D02*
D03*
G54D40*
X973000Y615000D02*
D03*
X966307D02*
D03*
X932000D02*
D03*
X925307D02*
D03*
X973000Y665000D02*
D03*
X966307D02*
D03*
X933000D02*
D03*
X926307D02*
D03*
X975000Y745000D02*
D03*
X968307D02*
D03*
Y735000D02*
D03*
X975000D02*
D03*
X953000Y755000D02*
D03*
X946307D02*
D03*
X915000Y743000D02*
D03*
X908307D02*
D03*
X996693Y545000D02*
D03*
X990000D02*
D03*
X440307Y600500D02*
D03*
X447000D02*
D03*
X971693Y719500D02*
D03*
X965000D02*
D03*
X870347Y729000D02*
D03*
X863653D02*
D03*
X890847Y662000D02*
D03*
X884153D02*
D03*
X764153Y674500D02*
D03*
X770847D02*
D03*
X959000Y685000D02*
D03*
X965693D02*
D03*
G54D41*
X947000Y533976D02*
D03*
Y545000D02*
D03*
G54D42*
X360000Y485000D02*
D03*
X371417D02*
D03*
X413583Y495000D02*
D03*
X425000D02*
D03*
X413583Y509000D02*
D03*
X425000D02*
D03*
X413583Y523000D02*
D03*
X425000D02*
D03*
X413583Y537000D02*
D03*
X425000D02*
D03*
G54D43*
X640000Y560917D02*
D03*
Y549500D02*
D03*
X687500Y740000D02*
D03*
Y728583D02*
D03*
X627500Y705583D02*
D03*
Y717000D02*
D03*
X610500D02*
D03*
Y705583D02*
D03*
X627500Y740000D02*
D03*
Y728583D02*
D03*
X610500D02*
D03*
Y740000D02*
D03*
G54D44*
X375000Y566220D02*
D03*
Y530000D02*
D03*
G54D45*
X538000Y643917D02*
D03*
Y632500D02*
D03*
X481000Y633917D02*
D03*
Y622500D02*
D03*
X491500Y634000D02*
D03*
Y622583D02*
D03*
X502000Y634000D02*
D03*
Y622583D02*
D03*
G54D46*
X603000Y630000D02*
D03*
Y651563D02*
D03*
G54D47*
X448500Y660000D02*
D03*
X437083D02*
D03*
G54D48*
X726000Y460000D02*
D03*
X747563D02*
D03*
G54D49*
X865094Y741500D02*
D03*
X876906D02*
D03*
G54D50*
X793000Y736095D02*
D03*
Y747905D02*
D03*
X799500Y609000D02*
D03*
Y597189D02*
D03*
G54D51*
X947465Y693000D02*
D03*
Y685520D02*
D03*
X939000D02*
D03*
Y689260D02*
D03*
G54D52*
Y693000D02*
D03*
G54D62*
X360000Y605000D02*
D03*
X995000Y755000D02*
D03*
Y615000D02*
D03*
Y665000D02*
D03*
Y705000D02*
D03*
G54D63*
X360000Y615000D02*
D03*
Y625000D02*
D03*
X595500Y822500D02*
D03*
X605500D02*
D03*
X630000Y772500D02*
D03*
X640000D02*
D03*
X995000Y735000D02*
D03*
Y745000D02*
D03*
Y595000D02*
D03*
Y605000D02*
D03*
Y645000D02*
D03*
Y655000D02*
D03*
X705000Y435000D02*
D03*
X995000Y695000D02*
D03*
X967500Y440000D02*
D03*
X977500D02*
D03*
X957500D02*
D03*
X722500Y695000D02*
D03*
G54D64*
X585500Y822500D02*
D03*
X620000Y772500D02*
D03*
X715000Y435000D02*
D03*
X987500Y440000D02*
D03*
X732500Y695000D02*
D03*
G54D65*
X866500Y513500D02*
D03*
Y501500D02*
D03*
X872000Y507500D02*
D03*
X861000D02*
D03*
X793500D02*
D03*
X804500D02*
D03*
X799000Y501500D02*
D03*
Y513500D02*
D03*
X1030000Y833300D02*
D03*
X1040800Y822500D02*
D03*
X1030000Y811700D02*
D03*
X1019200Y822500D02*
D03*
X1022300Y830200D02*
D03*
X1037700D02*
D03*
X1022300Y814800D02*
D03*
X1037700D02*
D03*
X1030000Y445800D02*
D03*
X1040800Y435000D02*
D03*
X1030000Y424200D02*
D03*
X1019200Y435000D02*
D03*
X1022300Y442700D02*
D03*
X1037700D02*
D03*
X1022300Y427300D02*
D03*
X1037700D02*
D03*
X325000Y833300D02*
D03*
X335800Y822500D02*
D03*
X325000Y811700D02*
D03*
X314200Y822500D02*
D03*
X317300Y830200D02*
D03*
X332700D02*
D03*
X317300Y814800D02*
D03*
X332700D02*
D03*
Y427300D02*
D03*
X317300D02*
D03*
X332700Y442700D02*
D03*
X317300D02*
D03*
X314200Y435000D02*
D03*
X325000Y424200D02*
D03*
X335800Y435000D02*
D03*
X325000Y445800D02*
D03*
X449000Y611000D02*
D03*
X455000D02*
D03*
X452000D02*
D03*
X573500Y668100D02*
D03*
X561500Y664100D02*
D03*
Y660100D02*
D03*
Y656100D02*
D03*
Y672100D02*
D03*
X573500Y664100D02*
D03*
Y660100D02*
D03*
Y656100D02*
D03*
X569500Y672100D02*
D03*
X557500Y664100D02*
D03*
X561500Y652100D02*
D03*
Y668100D02*
D03*
X569500Y652100D02*
D03*
X557500D02*
D03*
Y656100D02*
D03*
X565500D02*
D03*
X569500D02*
D03*
Y660100D02*
D03*
X565500Y648100D02*
D03*
X569500D02*
D03*
X565500Y652100D02*
D03*
Y664100D02*
D03*
X573500Y672100D02*
D03*
X561500Y648100D02*
D03*
X565500Y672100D02*
D03*
X557500Y660100D02*
D03*
Y648100D02*
D03*
X569500Y664100D02*
D03*
X565500Y668100D02*
D03*
X557500D02*
D03*
X569500D02*
D03*
X557500Y672100D02*
D03*
X573500Y648100D02*
D03*
Y652100D02*
D03*
X565500Y660100D02*
D03*
X449000Y614500D02*
D03*
X452000Y620500D02*
D03*
X449000D02*
D03*
X452000Y617500D02*
D03*
X449000Y624000D02*
D03*
X455000D02*
D03*
X449000Y617500D02*
D03*
X452000Y614500D02*
D03*
Y624000D02*
D03*
X455000Y614500D02*
D03*
Y617500D02*
D03*
Y620500D02*
D03*
X452000Y627000D02*
D03*
X455000D02*
D03*
X449000D02*
D03*
X452000Y608000D02*
D03*
X455000D02*
D03*
X449000D02*
D03*
X815500Y482000D02*
D03*
X820500D02*
D03*
X825500D02*
D03*
X830500D02*
D03*
X815500Y478500D02*
D03*
Y475000D02*
D03*
Y471500D02*
D03*
X820500Y478500D02*
D03*
Y475000D02*
D03*
Y471500D02*
D03*
X825500Y478500D02*
D03*
Y475000D02*
D03*
Y471500D02*
D03*
X830500Y478500D02*
D03*
Y475000D02*
D03*
Y471500D02*
D03*
X898000D02*
D03*
Y475000D02*
D03*
Y478500D02*
D03*
X893000Y471500D02*
D03*
Y475000D02*
D03*
Y478500D02*
D03*
X888000Y471500D02*
D03*
Y475000D02*
D03*
Y478500D02*
D03*
X883000Y471500D02*
D03*
Y475000D02*
D03*
Y478500D02*
D03*
X898000Y482000D02*
D03*
X893000D02*
D03*
X888000D02*
D03*
X883000D02*
D03*
X889000Y498500D02*
D03*
X888957Y502024D02*
D03*
X889000Y505500D02*
D03*
X885000D02*
D03*
X893000D02*
D03*
Y502000D02*
D03*
X885000D02*
D03*
Y498500D02*
D03*
X893000D02*
D03*
X900000Y506500D02*
D03*
Y503500D02*
D03*
Y500500D02*
D03*
Y497500D02*
D03*
X903000Y506500D02*
D03*
Y503500D02*
D03*
Y500500D02*
D03*
Y497500D02*
D03*
X906000Y506500D02*
D03*
Y503500D02*
D03*
Y500500D02*
D03*
Y497500D02*
D03*
X877000D02*
D03*
Y500500D02*
D03*
Y503500D02*
D03*
Y506500D02*
D03*
X809500D02*
D03*
Y503500D02*
D03*
Y500500D02*
D03*
Y497500D02*
D03*
X838500D02*
D03*
Y500500D02*
D03*
Y503500D02*
D03*
Y506500D02*
D03*
X835500Y497500D02*
D03*
Y500500D02*
D03*
Y503500D02*
D03*
Y506500D02*
D03*
X832500Y497500D02*
D03*
Y500500D02*
D03*
Y503500D02*
D03*
Y506500D02*
D03*
X825500Y498500D02*
D03*
X817500D02*
D03*
Y502000D02*
D03*
X825500D02*
D03*
Y505500D02*
D03*
X817500D02*
D03*
X821500D02*
D03*
X821457Y502024D02*
D03*
X821500Y498500D02*
D03*
G54D66*
X350846Y683268D02*
D03*
X372500Y666732D02*
D03*
X350846D02*
D03*
X522500Y435846D02*
D03*
X377500D02*
D03*
X350846Y727500D02*
D03*
X432500Y435846D02*
D03*
X477500D02*
D03*
X780000Y451654D02*
D03*
X435000Y819154D02*
D03*
X390000D02*
D03*
X915000Y451654D02*
D03*
X898465Y430000D02*
D03*
Y451654D02*
D03*
X881929Y430000D02*
D03*
Y451654D02*
D03*
X865394Y430000D02*
D03*
Y451654D02*
D03*
X848858Y430000D02*
D03*
Y451654D02*
D03*
X832323Y430000D02*
D03*
Y451654D02*
D03*
X815787Y430000D02*
D03*
Y451654D02*
D03*
G54D67*
X372500Y683268D02*
D03*
X372500Y727500D02*
D03*
G54D68*
X497500Y817500D02*
D03*
X530000Y742500D02*
D03*
X655000Y817500D02*
D03*
X959000Y566000D02*
D03*
X715000Y517000D02*
D03*
G54D69*
X507500Y817500D02*
D03*
X517500D02*
D03*
X527500D02*
D03*
X537500D02*
D03*
X497500Y827500D02*
D03*
X507500D02*
D03*
X517500D02*
D03*
X527500D02*
D03*
X537500D02*
D03*
X540000Y742500D02*
D03*
X550000D02*
D03*
X560000D02*
D03*
X570000D02*
D03*
X530000Y752500D02*
D03*
X540000D02*
D03*
X550000D02*
D03*
X560000D02*
D03*
X570000D02*
D03*
X665000Y817500D02*
D03*
X675000D02*
D03*
X685000D02*
D03*
X695000D02*
D03*
X655000Y827500D02*
D03*
X665000D02*
D03*
X675000D02*
D03*
X685000D02*
D03*
X695000D02*
D03*
X742500Y625000D02*
D03*
X732500D02*
D03*
X742500Y635000D02*
D03*
X732500D02*
D03*
X742500Y645000D02*
D03*
X415000Y692500D02*
D03*
X425000Y702500D02*
D03*
X969000Y576000D02*
D03*
X979000Y566000D02*
D03*
X705000Y507000D02*
D03*
X695000Y517000D02*
D03*
G54D70*
X732500Y645000D02*
D03*
X425000Y682500D02*
D03*
G54D71*
X1030000Y822500D02*
D03*
Y435000D02*
D03*
X325000Y822500D02*
D03*
Y435000D02*
D03*
G54D72*
X622000Y542500D02*
D03*
X630000Y534500D02*
D03*
Y542500D02*
D03*
X415000Y651500D02*
D03*
X423000Y659500D02*
D03*
X415000D02*
D03*
X520000Y591000D02*
D03*
Y599000D02*
D03*
X528000Y591000D02*
D03*
X595500Y628500D02*
D03*
X587000D02*
D03*
X603000Y618500D02*
D03*
X502000Y659500D02*
D03*
Y651500D02*
D03*
X494000Y659500D02*
D03*
G54D73*
X522500Y457500D02*
D03*
X377500D02*
D03*
X432500D02*
D03*
X477500D02*
D03*
X780000Y430000D02*
D03*
X435000Y797500D02*
D03*
X390000D02*
D03*
X915000Y430000D02*
D03*
G54D74*
X577500Y495000D02*
D03*
X515000D02*
D03*
X502500D02*
D03*
X490000D02*
D03*
X440000D02*
D03*
X577500Y570000D02*
D03*
X440000D02*
D03*
M02*
