%FSLAX25Y25*%
%MOIN*%
G70*
G01*
G75*
G04 Layer_Physical_Order=4*
G04 Layer_Color=16711680*
%ADD10R,0.03937X0.03937*%
%ADD11R,0.03937X0.03937*%
%ADD12R,0.01260X0.06299*%
%ADD13R,0.13386X0.09685*%
%ADD14R,0.08661X0.09843*%
%ADD15R,0.03937X0.03543*%
%ADD16R,0.04331X0.03937*%
%ADD17R,0.03937X0.04331*%
%ADD18R,0.03543X0.03937*%
%ADD19R,0.06299X0.16535*%
%ADD20R,0.05906X0.05118*%
%ADD21R,0.09843X0.08661*%
%ADD22R,0.21654X0.07874*%
%ADD23R,0.05709X0.01772*%
%ADD24O,0.08661X0.02362*%
%ADD25R,0.03504X0.09488*%
%ADD26R,0.21063X0.33622*%
%ADD27R,0.06299X0.01378*%
%ADD28R,0.09685X0.09095*%
%ADD29O,0.08071X0.01772*%
%ADD30O,0.01772X0.08071*%
%ADD31R,0.04724X0.05512*%
%ADD32R,0.05512X0.04724*%
%ADD33R,0.12000X0.06000*%
%ADD34R,0.07087X0.11811*%
%ADD35R,0.11811X0.07087*%
%ADD36R,0.04600X0.16700*%
%ADD37R,0.07874X0.04724*%
%ADD38R,0.06693X0.09843*%
%ADD39R,0.11000X0.15000*%
%ADD40R,0.05118X0.05906*%
%ADD41R,0.04724X0.07874*%
%ADD42R,0.05118X0.10630*%
%ADD43R,0.10630X0.05118*%
%ADD44R,0.07087X0.22835*%
%ADD45R,0.07087X0.05118*%
%ADD46R,0.06299X0.13780*%
%ADD47R,0.05118X0.07087*%
%ADD48R,0.13780X0.06299*%
%ADD49R,0.07874X0.08661*%
%ADD50R,0.08661X0.07874*%
%ADD51R,0.05709X0.02165*%
%ADD52R,0.05709X0.02165*%
%ADD53C,0.01500*%
%ADD54C,0.01000*%
%ADD55C,0.01200*%
%ADD56C,0.05000*%
%ADD57C,0.02500*%
%ADD58C,0.02000*%
%ADD59C,0.03000*%
%ADD60C,0.01400*%
%ADD61C,0.03500*%
%ADD62R,0.06200X0.06200*%
%ADD63C,0.06200*%
%ADD64R,0.06200X0.06200*%
%ADD65C,0.02800*%
%ADD66C,0.09449*%
%ADD67R,0.09449X0.09449*%
%ADD68R,0.05906X0.05906*%
%ADD69C,0.05906*%
%ADD70R,0.05906X0.05906*%
%ADD71C,0.25590*%
%ADD72C,0.05000*%
%ADD73R,0.09449X0.09449*%
%ADD74C,0.07874*%
%ADD75C,0.03200*%
%ADD76C,0.04000*%
%ADD77C,0.07543*%
G04:AMPARAMS|DCode=78|XSize=95.118mil|YSize=95.118mil|CornerRadius=0mil|HoleSize=0mil|Usage=FLASHONLY|Rotation=0.000|XOffset=0mil|YOffset=0mil|HoleType=Round|Shape=Relief|Width=10mil|Gap=10mil|Entries=4|*
%AMTHD78*
7,0,0,0.09512,0.07512,0.01000,45*
%
%ADD78THD78*%
%ADD79C,0.09512*%
%ADD80C,0.07543*%
G04:AMPARAMS|DCode=81|XSize=75.433mil|YSize=75.433mil|CornerRadius=0mil|HoleSize=0mil|Usage=FLASHONLY|Rotation=0.000|XOffset=0mil|YOffset=0mil|HoleType=Round|Shape=Relief|Width=10mil|Gap=10mil|Entries=4|*
%AMTHD81*
7,0,0,0.07543,0.05543,0.01000,45*
%
%ADD81THD81*%
%ADD82C,0.21717*%
%ADD83C,0.05200*%
%ADD84C,0.06800*%
%ADD85C,0.08724*%
G04:AMPARAMS|DCode=86|XSize=87.244mil|YSize=87.244mil|CornerRadius=0mil|HoleSize=0mil|Usage=FLASHONLY|Rotation=0.000|XOffset=0mil|YOffset=0mil|HoleType=Round|Shape=Relief|Width=10mil|Gap=10mil|Entries=4|*
%AMTHD86*
7,0,0,0.08724,0.06724,0.01000,45*
%
%ADD86THD86*%
%ADD87C,0.07150*%
G04:AMPARAMS|DCode=88|XSize=71.496mil|YSize=71.496mil|CornerRadius=0mil|HoleSize=0mil|Usage=FLASHONLY|Rotation=0.000|XOffset=0mil|YOffset=0mil|HoleType=Round|Shape=Relief|Width=10mil|Gap=10mil|Entries=4|*
%AMTHD88*
7,0,0,0.07150,0.05150,0.01000,45*
%
%ADD88THD88*%
G04:AMPARAMS|DCode=89|XSize=75.433mil|YSize=75.433mil|CornerRadius=0mil|HoleSize=0mil|Usage=FLASHONLY|Rotation=0.000|XOffset=0mil|YOffset=0mil|HoleType=Round|Shape=Relief|Width=10mil|Gap=10mil|Entries=4|*
%AMTHD89*
7,0,0,0.07543,0.05543,0.01000,45*
%
%ADD89THD89*%
%ADD90C,0.05600*%
G04:AMPARAMS|DCode=91|XSize=56mil|YSize=56mil|CornerRadius=0mil|HoleSize=0mil|Usage=FLASHONLY|Rotation=0.000|XOffset=0mil|YOffset=0mil|HoleType=Round|Shape=Relief|Width=10mil|Gap=10mil|Entries=4|*
%AMTHD91*
7,0,0,0.05600,0.03600,0.01000,45*
%
%ADD91THD91*%
G04:AMPARAMS|DCode=92|XSize=68mil|YSize=68mil|CornerRadius=0mil|HoleSize=0mil|Usage=FLASHONLY|Rotation=0.000|XOffset=0mil|YOffset=0mil|HoleType=Round|Shape=Relief|Width=10mil|Gap=10mil|Entries=4|*
%AMTHD92*
7,0,0,0.06800,0.04800,0.01000,45*
%
%ADD92THD92*%
G36*
X506000Y661700D02*
Y588200D01*
X504200Y586400D01*
X412900D01*
X411000Y588300D01*
Y662000D01*
X412600Y663600D01*
X504100D01*
X506000Y661700D01*
D02*
G37*
G36*
X635500Y685000D02*
Y588600D01*
X633400Y586500D01*
X517500D01*
X515500Y588500D01*
Y685000D01*
X518000Y687500D01*
X633000D01*
X635500Y685000D01*
D02*
G37*
G36*
X910000Y487500D02*
X857500D01*
Y516500D01*
X910000D01*
Y487500D01*
D02*
G37*
G36*
X842500D02*
X790000D01*
Y516500D01*
X842500D01*
Y487500D01*
D02*
G37*
%LPC*%
G36*
X528000Y594228D02*
X527165Y594118D01*
X526386Y593795D01*
X525718Y593282D01*
X525205Y592614D01*
X524882Y591835D01*
X524772Y591000D01*
X524882Y590165D01*
X525205Y589386D01*
X525718Y588718D01*
X526386Y588205D01*
X527165Y587882D01*
X528000Y587772D01*
X528835Y587882D01*
X529614Y588205D01*
X530282Y588718D01*
X530795Y589386D01*
X531118Y590165D01*
X531228Y591000D01*
X531118Y591835D01*
X530795Y592614D01*
X530282Y593282D01*
X529614Y593795D01*
X528835Y594118D01*
X528000Y594228D01*
D02*
G37*
G36*
X520000Y602228D02*
X519165Y602118D01*
X518386Y601795D01*
X517718Y601282D01*
X517205Y600614D01*
X516882Y599835D01*
X516772Y599000D01*
X516882Y598165D01*
X517205Y597386D01*
X517718Y596718D01*
X518386Y596205D01*
X519165Y595882D01*
X520000Y595772D01*
X520835Y595882D01*
X521614Y596205D01*
X522282Y596718D01*
X522795Y597386D01*
X523118Y598165D01*
X523228Y599000D01*
X523118Y599835D01*
X522795Y600614D01*
X522282Y601282D01*
X521614Y601795D01*
X520835Y602118D01*
X520000Y602228D01*
D02*
G37*
G36*
X488500Y606345D02*
X487603Y606167D01*
X486842Y605658D01*
X486333Y604897D01*
X486155Y604000D01*
X486333Y603103D01*
X486842Y602342D01*
X487603Y601833D01*
X488500Y601655D01*
X489397Y601833D01*
X490158Y602342D01*
X490667Y603103D01*
X490845Y604000D01*
X490667Y604897D01*
X490158Y605658D01*
X489397Y606167D01*
X488500Y606345D01*
D02*
G37*
G36*
X876500Y493345D02*
X875603Y493167D01*
X874842Y492658D01*
X874333Y491897D01*
X874155Y491000D01*
X874333Y490103D01*
X874842Y489342D01*
X875603Y488833D01*
X876500Y488655D01*
X877397Y488833D01*
X878158Y489342D01*
X878666Y490103D01*
X878845Y491000D01*
X878666Y491897D01*
X878158Y492658D01*
X877397Y493167D01*
X876500Y493345D01*
D02*
G37*
G36*
X809000D02*
X808103Y493167D01*
X807342Y492658D01*
X806833Y491897D01*
X806655Y491000D01*
X806833Y490103D01*
X807342Y489342D01*
X808103Y488833D01*
X809000Y488655D01*
X809897Y488833D01*
X810658Y489342D01*
X811167Y490103D01*
X811345Y491000D01*
X811167Y491897D01*
X810658Y492658D01*
X809897Y493167D01*
X809000Y493345D01*
D02*
G37*
G36*
X520000Y594228D02*
X519165Y594118D01*
X518386Y593795D01*
X517718Y593282D01*
X517205Y592614D01*
X516882Y591835D01*
X516772Y591000D01*
X516882Y590165D01*
X517205Y589386D01*
X517718Y588718D01*
X518386Y588205D01*
X519165Y587882D01*
X520000Y587772D01*
X520835Y587882D01*
X521614Y588205D01*
X522282Y588718D01*
X522795Y589386D01*
X523118Y590165D01*
X523228Y591000D01*
X523118Y591835D01*
X522795Y592614D01*
X522282Y593282D01*
X521614Y593795D01*
X520835Y594118D01*
X520000Y594228D01*
D02*
G37*
G36*
X626500Y618345D02*
X625603Y618167D01*
X624842Y617658D01*
X624333Y616897D01*
X624155Y616000D01*
X624333Y615103D01*
X624842Y614342D01*
X625603Y613833D01*
X626500Y613655D01*
X627397Y613833D01*
X628158Y614342D01*
X628667Y615103D01*
X628845Y616000D01*
X628667Y616897D01*
X628158Y617658D01*
X627397Y618167D01*
X626500Y618345D01*
D02*
G37*
G36*
X415000Y662728D02*
X414165Y662618D01*
X413386Y662295D01*
X412718Y661782D01*
X412205Y661114D01*
X411882Y660335D01*
X411772Y659500D01*
X411882Y658665D01*
X412205Y657886D01*
X412718Y657218D01*
X413386Y656705D01*
X414165Y656382D01*
X415000Y656272D01*
X415835Y656382D01*
X416614Y656705D01*
X417282Y657218D01*
X417795Y657886D01*
X418118Y658665D01*
X418228Y659500D01*
X418118Y660335D01*
X417795Y661114D01*
X417282Y661782D01*
X416614Y662295D01*
X415835Y662618D01*
X415000Y662728D01*
D02*
G37*
G36*
X502000Y654728D02*
X501165Y654618D01*
X500386Y654295D01*
X499718Y653782D01*
X499205Y653114D01*
X498882Y652335D01*
X498772Y651500D01*
X498882Y650665D01*
X499205Y649886D01*
X499718Y649218D01*
X500386Y648705D01*
X501165Y648382D01*
X502000Y648272D01*
X502835Y648382D01*
X503614Y648705D01*
X504282Y649218D01*
X504795Y649886D01*
X505118Y650665D01*
X505228Y651500D01*
X505118Y652335D01*
X504795Y653114D01*
X504282Y653782D01*
X503614Y654295D01*
X502835Y654618D01*
X502000Y654728D01*
D02*
G37*
G36*
X423000Y662728D02*
X422165Y662618D01*
X421386Y662295D01*
X420718Y661782D01*
X420205Y661114D01*
X419882Y660335D01*
X419772Y659500D01*
X419882Y658665D01*
X420205Y657886D01*
X420718Y657218D01*
X421386Y656705D01*
X422165Y656382D01*
X423000Y656272D01*
X423835Y656382D01*
X424614Y656705D01*
X425282Y657218D01*
X425795Y657886D01*
X426118Y658665D01*
X426228Y659500D01*
X426118Y660335D01*
X425795Y661114D01*
X425282Y661782D01*
X424614Y662295D01*
X423835Y662618D01*
X423000Y662728D01*
D02*
G37*
G36*
X502000D02*
X501165Y662618D01*
X500386Y662295D01*
X499718Y661782D01*
X499205Y661114D01*
X498882Y660335D01*
X498772Y659500D01*
X498882Y658665D01*
X499205Y657886D01*
X499718Y657218D01*
X500386Y656705D01*
X501165Y656382D01*
X502000Y656272D01*
X502835Y656382D01*
X503614Y656705D01*
X504282Y657218D01*
X504795Y657886D01*
X505118Y658665D01*
X505228Y659500D01*
X505118Y660335D01*
X504795Y661114D01*
X504282Y661782D01*
X503614Y662295D01*
X502835Y662618D01*
X502000Y662728D01*
D02*
G37*
G36*
X494000D02*
X493165Y662618D01*
X492386Y662295D01*
X491718Y661782D01*
X491205Y661114D01*
X490882Y660335D01*
X490772Y659500D01*
X490882Y658665D01*
X491205Y657886D01*
X491718Y657218D01*
X492386Y656705D01*
X493165Y656382D01*
X494000Y656272D01*
X494835Y656382D01*
X495614Y656705D01*
X496282Y657218D01*
X496795Y657886D01*
X497118Y658665D01*
X497228Y659500D01*
X497118Y660335D01*
X496795Y661114D01*
X496282Y661782D01*
X495614Y662295D01*
X494835Y662618D01*
X494000Y662728D01*
D02*
G37*
G36*
X587000Y631728D02*
X586165Y631618D01*
X585386Y631295D01*
X584718Y630782D01*
X584205Y630114D01*
X583882Y629335D01*
X583772Y628500D01*
X583882Y627665D01*
X584205Y626886D01*
X584718Y626218D01*
X585386Y625705D01*
X586165Y625382D01*
X587000Y625272D01*
X587835Y625382D01*
X588614Y625705D01*
X589282Y626218D01*
X589795Y626886D01*
X590118Y627665D01*
X590228Y628500D01*
X590118Y629335D01*
X589795Y630114D01*
X589282Y630782D01*
X588614Y631295D01*
X587835Y631618D01*
X587000Y631728D01*
D02*
G37*
G36*
X603000Y621728D02*
X602165Y621618D01*
X601386Y621295D01*
X600718Y620782D01*
X600205Y620114D01*
X599882Y619335D01*
X599772Y618500D01*
X599882Y617665D01*
X600205Y616886D01*
X600718Y616218D01*
X601386Y615705D01*
X602165Y615382D01*
X603000Y615272D01*
X603835Y615382D01*
X604614Y615705D01*
X605282Y616218D01*
X605795Y616886D01*
X606118Y617665D01*
X606228Y618500D01*
X606118Y619335D01*
X605795Y620114D01*
X605282Y620782D01*
X604614Y621295D01*
X603835Y621618D01*
X603000Y621728D01*
D02*
G37*
G36*
X595500Y631728D02*
X594665Y631618D01*
X593886Y631295D01*
X593218Y630782D01*
X592705Y630114D01*
X592382Y629335D01*
X592272Y628500D01*
X592382Y627665D01*
X592705Y626886D01*
X593218Y626218D01*
X593886Y625705D01*
X594665Y625382D01*
X595500Y625272D01*
X596335Y625382D01*
X597114Y625705D01*
X597782Y626218D01*
X598295Y626886D01*
X598618Y627665D01*
X598728Y628500D01*
X598618Y629335D01*
X598295Y630114D01*
X597782Y630782D01*
X597114Y631295D01*
X596335Y631618D01*
X595500Y631728D01*
D02*
G37*
G36*
X415000Y654728D02*
X414165Y654618D01*
X413386Y654295D01*
X412718Y653782D01*
X412205Y653114D01*
X411882Y652335D01*
X411772Y651500D01*
X411882Y650665D01*
X412205Y649886D01*
X412718Y649218D01*
X413386Y648705D01*
X414165Y648382D01*
X415000Y648272D01*
X415835Y648382D01*
X416614Y648705D01*
X417282Y649218D01*
X417795Y649886D01*
X418118Y650665D01*
X418228Y651500D01*
X418118Y652335D01*
X417795Y653114D01*
X417282Y653782D01*
X416614Y654295D01*
X415835Y654618D01*
X415000Y654728D01*
D02*
G37*
G36*
X502000Y642845D02*
X501103Y642667D01*
X500342Y642158D01*
X499833Y641397D01*
X499655Y640500D01*
X499833Y639603D01*
X500342Y638842D01*
X501103Y638333D01*
X502000Y638155D01*
X502897Y638333D01*
X503658Y638842D01*
X504167Y639603D01*
X504345Y640500D01*
X504167Y641397D01*
X503658Y642158D01*
X502897Y642667D01*
X502000Y642845D01*
D02*
G37*
%LPD*%
G54D53*
X540000Y752500D02*
X550000D01*
X969000Y576000D02*
X979000Y566000D01*
G54D54*
X644500Y700000D02*
X681000Y663500D01*
Y616500D02*
Y663500D01*
Y616500D02*
X737000Y560500D01*
X801000Y547500D02*
X821500D01*
X795500Y542000D02*
X801000Y547500D01*
X695500Y682500D02*
X750000D01*
X653000Y725000D02*
X695500Y682500D01*
X420500Y725000D02*
X653000D01*
X748500Y670000D02*
X771500Y693000D01*
X696000Y670000D02*
X748500D01*
X647500Y718500D02*
X696000Y670000D01*
X422500Y718500D02*
X647500D01*
X480000Y700000D02*
X644500D01*
X671000Y801500D02*
X865000D01*
X655000Y817500D02*
X671000Y801500D01*
X900000Y708500D02*
Y766500D01*
X865000Y801500D02*
X900000Y766500D01*
X904000Y725000D02*
Y770000D01*
X867000Y807000D02*
X904000Y770000D01*
X695500Y807000D02*
X867000D01*
X920000Y717500D02*
Y761500D01*
X859000Y822500D02*
X920000Y761500D01*
X670000Y822500D02*
X859000D01*
X904000Y701500D02*
X920000Y717500D01*
X884100Y680900D02*
Y722500D01*
X895500Y704000D02*
X900000Y708500D01*
X895500Y684500D02*
Y704000D01*
Y684500D02*
X905100Y674900D01*
X915000Y718000D02*
Y736000D01*
X901000Y704000D02*
X915000Y718000D01*
X901000Y691000D02*
Y704000D01*
X701000Y773500D02*
X885000D01*
X657500Y730000D02*
X701000Y773500D01*
X418500Y730000D02*
X657500D01*
X392500Y704000D02*
X418500Y730000D01*
X402500Y698500D02*
X422500Y718500D01*
X402500Y657500D02*
Y698500D01*
X397500Y702000D02*
X420500Y725000D01*
X397500Y662500D02*
Y702000D01*
X392500Y668500D02*
Y704000D01*
X352500Y628500D02*
X392500Y668500D01*
X360000Y625000D02*
X397500Y662500D01*
X360000Y615000D02*
X402500Y657500D01*
X352500Y612500D02*
Y628500D01*
Y612500D02*
X360000Y605000D01*
X737000Y560500D02*
X902500D01*
X908500Y566500D01*
Y631500D01*
X890000Y650000D02*
X908500Y631500D01*
X885000Y773500D02*
X895000Y763500D01*
Y717500D02*
Y763500D01*
X904000Y693000D02*
Y701500D01*
Y693000D02*
X906000Y691000D01*
X907500Y699500D02*
X919500D01*
X879500Y725000D02*
X884500Y730000D01*
X879500Y679600D02*
Y725000D01*
X882500Y770500D02*
X891000Y762000D01*
Y684000D02*
Y762000D01*
Y684000D02*
X898000Y677000D01*
X874000Y767000D02*
X888000Y753000D01*
Y682000D02*
Y753000D01*
Y682000D02*
X894500Y675500D01*
X879500Y679600D02*
X882000Y677100D01*
X884100Y680900D02*
X891500Y673500D01*
X932900Y712900D02*
Y721500D01*
X919500Y699500D02*
X932900Y712900D01*
X736500Y748500D02*
X761437D01*
X727000Y739000D02*
X736500Y748500D01*
X727000Y700500D02*
Y739000D01*
Y700500D02*
X732500Y695000D01*
X756000Y602000D02*
Y630000D01*
X751000Y635000D02*
X756000Y630000D01*
X742500Y635000D02*
X751000D01*
X832500Y522500D02*
Y527500D01*
X889000Y521500D02*
Y538500D01*
X750000Y724600D02*
X833000D01*
X739600Y735000D02*
X750000Y724600D01*
X733400Y738300D02*
X742200D01*
X752100Y728400D01*
X831200D01*
X761437Y748500D02*
X773637Y736300D01*
X757800Y732000D02*
X833000D01*
X838642Y726358D01*
Y723700D02*
Y726358D01*
X856500Y833000D02*
X892500Y797000D01*
X817500Y755500D02*
X832500Y770500D01*
X882500D01*
X825000Y757000D02*
X835000Y767000D01*
X874000D01*
X894500Y651500D02*
X922500Y623500D01*
X898000Y655100D02*
X921300Y631800D01*
X894500Y651500D02*
Y675500D01*
X898000Y655100D02*
Y677000D01*
X905100Y665400D02*
Y674900D01*
X756000Y602000D02*
X769000Y589000D01*
X808000D01*
X816200Y526300D02*
X821500Y521000D01*
X724800Y526300D02*
X816200D01*
X706500Y530000D02*
X823000D01*
X697500Y539000D02*
X706500Y530000D01*
X820000Y540000D02*
X832500Y527500D01*
X685000Y560000D02*
X711500Y533500D01*
X884500Y543000D02*
X889000Y538500D01*
X711500Y533500D02*
X800500D01*
X807000Y540000D01*
X820000D01*
X803500Y543000D02*
X884500D01*
X743500Y546000D02*
X790500D01*
X722500Y567000D02*
X743500Y546000D01*
X738000Y542000D02*
X795500D01*
X717500Y562500D02*
X738000Y542000D01*
X705000Y554500D02*
X721500Y538000D01*
X798500D01*
X803500Y543000D01*
X680500Y833000D02*
X856500D01*
X675000Y827500D02*
X680500Y833000D01*
X665000Y827500D02*
X670000Y822500D01*
X685000Y817500D02*
X695500Y807000D01*
X868200Y724000D02*
X876300Y715900D01*
X773637Y736300D02*
X836200D01*
X848500Y724000D01*
X868200D01*
X837500Y740000D02*
X850000Y727500D01*
X777000Y740000D02*
X837500D01*
X764500Y752500D02*
X777000Y740000D01*
X723000Y752500D02*
X764500D01*
X839500Y745500D02*
X852500Y732500D01*
X779500Y745500D02*
X839500D01*
X767500Y757500D02*
X779500Y745500D01*
X720000Y757500D02*
X767500D01*
X842500Y750000D02*
X855000Y737500D01*
X812500Y750000D02*
X842500D01*
X807500Y755000D02*
X812500Y750000D01*
X675500Y712500D02*
X683000D01*
X723000Y752500D01*
X680500Y718000D02*
X720000Y757500D01*
X675500Y718000D02*
X680500D01*
G54D58*
X507500Y827500D02*
X517500D01*
X497500Y817500D02*
Y827500D01*
Y817500D02*
X503500Y811500D01*
X521500D01*
X527500Y817500D01*
X554000Y736500D02*
X560000Y742500D01*
X536000Y736500D02*
X554000D01*
X530000Y742500D02*
X536000Y736500D01*
X530000Y742500D02*
Y752500D01*
G54D61*
X898000Y471500D02*
Y475000D01*
Y465500D02*
Y471500D01*
X780000Y451654D02*
X793346Y465000D01*
X830500Y471500D02*
Y475000D01*
Y478500D01*
Y482000D01*
X793346Y465000D02*
X827500D01*
X830500Y468000D01*
Y471500D01*
X898000Y478500D02*
Y482000D01*
Y475000D02*
Y478500D01*
X890000Y457500D02*
X898000Y465500D01*
X890000Y447000D02*
Y457500D01*
X885500Y442500D02*
X890000Y447000D01*
X874547Y442500D02*
X885500D01*
X865394Y451654D02*
X874547Y442500D01*
X881929Y457429D02*
X893000Y468500D01*
X881929Y451654D02*
Y457429D01*
X893000Y468500D02*
Y471500D01*
Y475000D01*
Y478500D01*
Y482000D01*
X825500Y471500D02*
Y475000D01*
Y478500D01*
Y482000D01*
X820500Y471500D02*
Y475000D01*
Y478500D01*
Y482000D01*
X815500Y471500D02*
Y475000D01*
Y478500D01*
Y482000D01*
X888000Y471500D02*
Y475000D01*
Y478500D01*
Y482000D01*
X883000Y471500D02*
Y475000D01*
Y478500D01*
Y482000D01*
G54D62*
X360000Y605000D02*
D03*
X995000Y755000D02*
D03*
Y615000D02*
D03*
Y665000D02*
D03*
Y705000D02*
D03*
G54D63*
X360000Y615000D02*
D03*
Y625000D02*
D03*
X595500Y822500D02*
D03*
X605500D02*
D03*
X630000Y772500D02*
D03*
X640000D02*
D03*
X995000Y735000D02*
D03*
Y745000D02*
D03*
Y595000D02*
D03*
Y605000D02*
D03*
Y645000D02*
D03*
Y655000D02*
D03*
X705000Y435000D02*
D03*
X995000Y695000D02*
D03*
X967500Y440000D02*
D03*
X977500D02*
D03*
X957500D02*
D03*
X722500Y695000D02*
D03*
G54D64*
X585500Y822500D02*
D03*
X620000Y772500D02*
D03*
X715000Y435000D02*
D03*
X987500Y440000D02*
D03*
X732500Y695000D02*
D03*
G54D65*
X866500Y513500D02*
D03*
Y501500D02*
D03*
X872000Y507500D02*
D03*
X861000D02*
D03*
X793500D02*
D03*
X804500D02*
D03*
X799000Y501500D02*
D03*
Y513500D02*
D03*
X1030000Y833300D02*
D03*
X1040800Y822500D02*
D03*
X1030000Y811700D02*
D03*
X1019200Y822500D02*
D03*
X1022300Y830200D02*
D03*
X1037700D02*
D03*
X1022300Y814800D02*
D03*
X1037700D02*
D03*
X1030000Y445800D02*
D03*
X1040800Y435000D02*
D03*
X1030000Y424200D02*
D03*
X1019200Y435000D02*
D03*
X1022300Y442700D02*
D03*
X1037700D02*
D03*
X1022300Y427300D02*
D03*
X1037700D02*
D03*
X325000Y833300D02*
D03*
X335800Y822500D02*
D03*
X325000Y811700D02*
D03*
X314200Y822500D02*
D03*
X317300Y830200D02*
D03*
X332700D02*
D03*
X317300Y814800D02*
D03*
X332700D02*
D03*
Y427300D02*
D03*
X317300D02*
D03*
X332700Y442700D02*
D03*
X317300D02*
D03*
X314200Y435000D02*
D03*
X325000Y424200D02*
D03*
X335800Y435000D02*
D03*
X325000Y445800D02*
D03*
X449000Y611000D02*
D03*
X455000D02*
D03*
X452000D02*
D03*
X573500Y668100D02*
D03*
X561500Y664100D02*
D03*
Y660100D02*
D03*
Y656100D02*
D03*
Y672100D02*
D03*
X573500Y664100D02*
D03*
Y660100D02*
D03*
Y656100D02*
D03*
X569500Y672100D02*
D03*
X557500Y664100D02*
D03*
X561500Y652100D02*
D03*
Y668100D02*
D03*
X569500Y652100D02*
D03*
X557500D02*
D03*
Y656100D02*
D03*
X565500D02*
D03*
X569500D02*
D03*
Y660100D02*
D03*
X565500Y648100D02*
D03*
X569500D02*
D03*
X565500Y652100D02*
D03*
Y664100D02*
D03*
X573500Y672100D02*
D03*
X561500Y648100D02*
D03*
X565500Y672100D02*
D03*
X557500Y660100D02*
D03*
Y648100D02*
D03*
X569500Y664100D02*
D03*
X565500Y668100D02*
D03*
X557500D02*
D03*
X569500D02*
D03*
X557500Y672100D02*
D03*
X573500Y648100D02*
D03*
Y652100D02*
D03*
X565500Y660100D02*
D03*
X449000Y614500D02*
D03*
X452000Y620500D02*
D03*
X449000D02*
D03*
X452000Y617500D02*
D03*
X449000Y624000D02*
D03*
X455000D02*
D03*
X449000Y617500D02*
D03*
X452000Y614500D02*
D03*
Y624000D02*
D03*
X455000Y614500D02*
D03*
Y617500D02*
D03*
Y620500D02*
D03*
X452000Y627000D02*
D03*
X455000D02*
D03*
X449000D02*
D03*
X452000Y608000D02*
D03*
X455000D02*
D03*
X449000D02*
D03*
X815500Y482000D02*
D03*
X820500D02*
D03*
X825500D02*
D03*
X830500D02*
D03*
X815500Y478500D02*
D03*
Y475000D02*
D03*
Y471500D02*
D03*
X820500Y478500D02*
D03*
Y475000D02*
D03*
Y471500D02*
D03*
X825500Y478500D02*
D03*
Y475000D02*
D03*
Y471500D02*
D03*
X830500Y478500D02*
D03*
Y475000D02*
D03*
Y471500D02*
D03*
X898000D02*
D03*
Y475000D02*
D03*
Y478500D02*
D03*
X893000Y471500D02*
D03*
Y475000D02*
D03*
Y478500D02*
D03*
X888000Y471500D02*
D03*
Y475000D02*
D03*
Y478500D02*
D03*
X883000Y471500D02*
D03*
Y475000D02*
D03*
Y478500D02*
D03*
X898000Y482000D02*
D03*
X893000D02*
D03*
X888000D02*
D03*
X883000D02*
D03*
X889000Y498500D02*
D03*
X888957Y502024D02*
D03*
X889000Y505500D02*
D03*
X885000D02*
D03*
X893000D02*
D03*
Y502000D02*
D03*
X885000D02*
D03*
Y498500D02*
D03*
X893000D02*
D03*
X900000Y506500D02*
D03*
Y503500D02*
D03*
Y500500D02*
D03*
Y497500D02*
D03*
X903000Y506500D02*
D03*
Y503500D02*
D03*
Y500500D02*
D03*
Y497500D02*
D03*
X906000Y506500D02*
D03*
Y503500D02*
D03*
Y500500D02*
D03*
Y497500D02*
D03*
X877000D02*
D03*
Y500500D02*
D03*
Y503500D02*
D03*
Y506500D02*
D03*
X809500D02*
D03*
Y503500D02*
D03*
Y500500D02*
D03*
Y497500D02*
D03*
X838500D02*
D03*
Y500500D02*
D03*
Y503500D02*
D03*
Y506500D02*
D03*
X835500Y497500D02*
D03*
Y500500D02*
D03*
Y503500D02*
D03*
Y506500D02*
D03*
X832500Y497500D02*
D03*
Y500500D02*
D03*
Y503500D02*
D03*
Y506500D02*
D03*
X825500Y498500D02*
D03*
X817500D02*
D03*
Y502000D02*
D03*
X825500D02*
D03*
Y505500D02*
D03*
X817500D02*
D03*
X821500D02*
D03*
X821457Y502024D02*
D03*
X821500Y498500D02*
D03*
G54D66*
X350846Y683268D02*
D03*
X372500Y666732D02*
D03*
X350846D02*
D03*
X522500Y435846D02*
D03*
X377500D02*
D03*
X350846Y727500D02*
D03*
X432500Y435846D02*
D03*
X477500D02*
D03*
X780000Y451654D02*
D03*
X435000Y819154D02*
D03*
X390000D02*
D03*
X915000Y451654D02*
D03*
X898465Y430000D02*
D03*
Y451654D02*
D03*
X881929Y430000D02*
D03*
Y451654D02*
D03*
X865394Y430000D02*
D03*
Y451654D02*
D03*
X848858Y430000D02*
D03*
Y451654D02*
D03*
X832323Y430000D02*
D03*
Y451654D02*
D03*
X815787Y430000D02*
D03*
Y451654D02*
D03*
G54D67*
X372500Y683268D02*
D03*
X372500Y727500D02*
D03*
G54D68*
X497500Y817500D02*
D03*
X530000Y742500D02*
D03*
X655000Y817500D02*
D03*
X959000Y566000D02*
D03*
X715000Y517000D02*
D03*
G54D69*
X507500Y817500D02*
D03*
X517500D02*
D03*
X527500D02*
D03*
X537500D02*
D03*
X497500Y827500D02*
D03*
X507500D02*
D03*
X517500D02*
D03*
X527500D02*
D03*
X537500D02*
D03*
X540000Y742500D02*
D03*
X550000D02*
D03*
X560000D02*
D03*
X570000D02*
D03*
X530000Y752500D02*
D03*
X540000D02*
D03*
X550000D02*
D03*
X560000D02*
D03*
X570000D02*
D03*
X665000Y817500D02*
D03*
X675000D02*
D03*
X685000D02*
D03*
X695000D02*
D03*
X655000Y827500D02*
D03*
X665000D02*
D03*
X675000D02*
D03*
X685000D02*
D03*
X695000D02*
D03*
X742500Y625000D02*
D03*
X732500D02*
D03*
X742500Y635000D02*
D03*
X732500D02*
D03*
X742500Y645000D02*
D03*
X415000Y692500D02*
D03*
X425000Y702500D02*
D03*
X969000Y576000D02*
D03*
X979000Y566000D02*
D03*
X705000Y507000D02*
D03*
X695000Y517000D02*
D03*
G54D70*
X732500Y645000D02*
D03*
X425000Y682500D02*
D03*
G54D71*
X1030000Y822500D02*
D03*
Y435000D02*
D03*
X325000Y822500D02*
D03*
Y435000D02*
D03*
G54D72*
X622000Y542500D02*
D03*
X630000Y534500D02*
D03*
Y542500D02*
D03*
X415000Y651500D02*
D03*
X423000Y659500D02*
D03*
X415000D02*
D03*
X520000Y591000D02*
D03*
Y599000D02*
D03*
X528000Y591000D02*
D03*
X595500Y628500D02*
D03*
X587000D02*
D03*
X603000Y618500D02*
D03*
X502000Y659500D02*
D03*
Y651500D02*
D03*
X494000Y659500D02*
D03*
X673500Y610500D02*
D03*
X651500D02*
D03*
Y617500D02*
D03*
X673500D02*
D03*
X640000Y567500D02*
D03*
G54D73*
X522500Y457500D02*
D03*
X377500D02*
D03*
X432500D02*
D03*
X477500D02*
D03*
X780000Y430000D02*
D03*
X435000Y797500D02*
D03*
X390000D02*
D03*
X915000Y430000D02*
D03*
G54D74*
X577500Y495000D02*
D03*
X515000D02*
D03*
X502500D02*
D03*
X490000D02*
D03*
X440000D02*
D03*
X577500Y570000D02*
D03*
X440000D02*
D03*
G54D75*
X847500Y552500D02*
D03*
X821500Y547500D02*
D03*
X480000Y700000D02*
D03*
X890000Y650000D02*
D03*
X896000Y712500D02*
D03*
X895000Y717500D02*
D03*
X904000Y725000D02*
D03*
X915000Y736000D02*
D03*
X907500Y699500D02*
D03*
X750000Y682500D02*
D03*
X730000Y675000D02*
D03*
X746500Y693000D02*
D03*
X771500Y693000D02*
D03*
X766500Y700000D02*
D03*
X676000Y735000D02*
D03*
X978000Y719500D02*
D03*
X977500Y699500D02*
D03*
X959000Y679500D02*
D03*
X966500D02*
D03*
X962500Y745000D02*
D03*
Y735000D02*
D03*
X823000Y530000D02*
D03*
X821500Y521000D02*
D03*
X697500Y539000D02*
D03*
X880000Y535500D02*
D03*
X808000Y589000D02*
D03*
X994193Y560807D02*
D03*
X557500Y462000D02*
D03*
X567500D02*
D03*
X626500Y616000D02*
D03*
X348500Y479000D02*
D03*
X869000Y762500D02*
D03*
X869000Y754000D02*
D03*
X1004500Y511000D02*
D03*
X865500Y717500D02*
D03*
X921300Y631800D02*
D03*
X757800Y732000D02*
D03*
X838642Y723700D02*
D03*
X912000Y685000D02*
D03*
X932900Y721500D02*
D03*
X833000Y724600D02*
D03*
X739600Y735000D02*
D03*
X779000Y754000D02*
D03*
X876300Y715900D02*
D03*
X944475Y606000D02*
D03*
X924475Y742000D02*
D03*
X733400Y738300D02*
D03*
X831200Y728400D02*
D03*
X764947Y785000D02*
D03*
X947446Y709418D02*
D03*
X966053Y785000D02*
D03*
X725947D02*
D03*
X751947Y778307D02*
D03*
X775053D02*
D03*
X752100Y812000D02*
D03*
X831053Y785000D02*
D03*
X947000Y527939D02*
D03*
X857053Y778307D02*
D03*
X953569Y530000D02*
D03*
X847100Y812000D02*
D03*
X966431Y535000D02*
D03*
X870053Y778307D02*
D03*
X918913Y690144D02*
D03*
X944475Y650000D02*
D03*
X966307Y609947D02*
D03*
X934046Y689260D02*
D03*
X907913Y759856D02*
D03*
X930046Y704323D02*
D03*
X997087Y539856D02*
D03*
X996693Y550053D02*
D03*
X966307Y659947D02*
D03*
X927053Y784693D02*
D03*
X946307Y749947D02*
D03*
X943100Y812000D02*
D03*
X360000Y477585D02*
D03*
X461000Y677231D02*
D03*
X700053Y456307D02*
D03*
X689569Y475000D02*
D03*
Y485000D02*
D03*
X735053Y486693D02*
D03*
X724947Y513693D02*
D03*
X565931Y713701D02*
D03*
X866069Y555000D02*
D03*
X533431Y788701D02*
D03*
X720569Y730000D02*
D03*
X766053Y738307D02*
D03*
X617915Y740000D02*
D03*
X791537Y609000D02*
D03*
X716856Y742087D02*
D03*
X694915Y740000D02*
D03*
X755947Y745000D02*
D03*
X812500Y615000D02*
D03*
X502000Y640500D02*
D03*
X488500Y604000D02*
D03*
X473000Y687000D02*
D03*
X925913Y648144D02*
D03*
X924913Y598144D02*
D03*
X736500Y480000D02*
D03*
X872500Y785000D02*
D03*
X961000Y772000D02*
D03*
X948000D02*
D03*
X799000Y569043D02*
D03*
X905100Y665400D02*
D03*
X884500Y730000D02*
D03*
X967500Y471000D02*
D03*
X987500D02*
D03*
X788500Y719000D02*
D03*
X891500Y673500D02*
D03*
X884100Y722500D02*
D03*
X882000Y677100D02*
D03*
X922500Y623500D02*
D03*
X825000Y757000D02*
D03*
X831500Y755500D02*
D03*
X817500D02*
D03*
X892500Y797000D02*
D03*
X906000Y691000D02*
D03*
X901000D02*
D03*
X781000Y569000D02*
D03*
X790000D02*
D03*
X808000Y569000D02*
D03*
X735000Y570000D02*
D03*
X742500D02*
D03*
X750000D02*
D03*
X757500D02*
D03*
X765000D02*
D03*
X809000Y491000D02*
D03*
X876500D02*
D03*
X869693Y474307D02*
D03*
X802307Y474307D02*
D03*
X812500Y535500D02*
D03*
X889000Y521500D02*
D03*
X705000Y554500D02*
D03*
X685000Y560000D02*
D03*
X832500Y522500D02*
D03*
X724800Y526300D02*
D03*
X790500Y546000D02*
D03*
X722500Y567000D02*
D03*
X717500Y562500D02*
D03*
X605500Y790000D02*
D03*
X672500Y772500D02*
D03*
X636000Y705500D02*
D03*
X851500Y754000D02*
D03*
Y762500D02*
D03*
X850000Y727500D02*
D03*
X852500Y732500D02*
D03*
X855000Y737500D02*
D03*
X807500Y755000D02*
D03*
X865000Y749000D02*
D03*
X877000D02*
D03*
X675500Y712500D02*
D03*
Y718000D02*
D03*
M02*
