%FSLAX25Y25*%
%MOIN*%
G70*
G01*
G75*
G04 Layer_Physical_Order=1*
G04 Layer_Color=255*
%ADD10R,0.03937X0.03937*%
%ADD11R,0.03937X0.03937*%
%ADD12R,0.01260X0.06299*%
%ADD13R,0.13386X0.09685*%
%ADD14R,0.08661X0.09843*%
%ADD15R,0.03937X0.03543*%
%ADD16R,0.04331X0.03937*%
%ADD17R,0.03937X0.04331*%
%ADD18R,0.03543X0.03937*%
%ADD19R,0.06299X0.16535*%
%ADD20R,0.05906X0.05118*%
%ADD21R,0.09843X0.08661*%
%ADD22R,0.21654X0.07874*%
%ADD23R,0.05709X0.01772*%
%ADD24O,0.08661X0.02362*%
%ADD25R,0.03504X0.09488*%
%ADD26R,0.21063X0.33622*%
%ADD27R,0.06299X0.01378*%
%ADD28R,0.09685X0.09095*%
%ADD29O,0.08071X0.01772*%
%ADD30O,0.01772X0.08071*%
%ADD31R,0.04724X0.05512*%
%ADD32R,0.05512X0.04724*%
%ADD33R,0.12000X0.06000*%
%ADD34R,0.07087X0.11811*%
%ADD35R,0.11811X0.07087*%
%ADD36R,0.04600X0.16700*%
%ADD37R,0.07874X0.04724*%
%ADD38R,0.06693X0.09843*%
%ADD39R,0.11000X0.15000*%
%ADD40R,0.05118X0.05906*%
%ADD41R,0.04724X0.07874*%
%ADD42R,0.05118X0.10630*%
%ADD43R,0.10630X0.05118*%
%ADD44R,0.07087X0.22835*%
%ADD45R,0.07087X0.05118*%
%ADD46R,0.06299X0.13780*%
%ADD47R,0.05118X0.07087*%
%ADD48R,0.13780X0.06299*%
%ADD49R,0.07874X0.08661*%
%ADD50R,0.08661X0.07874*%
%ADD51R,0.05709X0.02165*%
%ADD52R,0.05709X0.02165*%
%ADD53C,0.01500*%
%ADD54C,0.01000*%
%ADD55C,0.01200*%
%ADD56C,0.05000*%
%ADD57C,0.02500*%
%ADD58C,0.02000*%
%ADD59C,0.03000*%
%ADD60C,0.01400*%
%ADD61C,0.03500*%
%ADD62R,0.06200X0.06200*%
%ADD63C,0.06200*%
%ADD64R,0.06200X0.06200*%
%ADD65C,0.02800*%
%ADD66C,0.09449*%
%ADD67R,0.09449X0.09449*%
%ADD68R,0.05906X0.05906*%
%ADD69C,0.05906*%
%ADD70R,0.05906X0.05906*%
%ADD71C,0.25590*%
%ADD72C,0.05000*%
%ADD73R,0.09449X0.09449*%
%ADD74C,0.07874*%
%ADD75C,0.03200*%
G36*
X552300Y625200D02*
X541700D01*
X540500Y624000D01*
Y605000D01*
X542700Y602800D01*
X548300D01*
Y586500D01*
X517500D01*
X515500Y588500D01*
Y635500D01*
X552300D01*
Y625200D01*
D02*
G37*
G36*
X635500Y685000D02*
Y640000D01*
X589000D01*
X587500Y638500D01*
X567200D01*
Y602400D01*
X568700Y600900D01*
X575600D01*
X578700Y597800D01*
X584300D01*
Y586500D01*
X552700D01*
Y602800D01*
X558300D01*
X563800Y608300D01*
Y638500D01*
X515500D01*
Y685000D01*
X518000Y687500D01*
X633000D01*
X635500Y685000D01*
D02*
G37*
G36*
X842500Y487500D02*
X832000D01*
Y495000D01*
X811000D01*
Y492960D01*
X810559Y492725D01*
X809897Y493167D01*
X809000Y493345D01*
X808103Y493167D01*
X807342Y492658D01*
X806833Y491897D01*
X806655Y491000D01*
X806833Y490103D01*
X807342Y489342D01*
X808103Y488833D01*
X809000Y488655D01*
X809897Y488833D01*
X810559Y489276D01*
X811000Y489040D01*
Y487500D01*
X804031D01*
Y494621D01*
X793969D01*
Y487500D01*
X790000D01*
Y516500D01*
X811000D01*
Y509000D01*
X832000D01*
Y516500D01*
X842500D01*
Y487500D01*
D02*
G37*
G36*
X910000D02*
X899500D01*
Y495000D01*
X878500D01*
Y492960D01*
X878059Y492725D01*
X877397Y493167D01*
X876500Y493345D01*
X875603Y493167D01*
X874842Y492658D01*
X874333Y491897D01*
X874155Y491000D01*
X874333Y490103D01*
X874842Y489342D01*
X875603Y488833D01*
X876500Y488655D01*
X877397Y488833D01*
X878059Y489276D01*
X878500Y489040D01*
Y487500D01*
X871531D01*
Y494621D01*
X861469D01*
Y487500D01*
X857500D01*
Y516500D01*
X878500D01*
Y509000D01*
X899500D01*
Y516500D01*
X910000D01*
Y487500D01*
D02*
G37*
G36*
X645500Y518500D02*
X636500D01*
X619500Y535500D01*
X606500D01*
Y552500D01*
X645500D01*
Y518500D01*
D02*
G37*
G36*
X460500Y632000D02*
X473000D01*
X475600Y629400D01*
X506000D01*
Y619500D01*
X466700D01*
Y616800D01*
X458500D01*
Y607000D01*
X457000Y605500D01*
X447000D01*
X445500Y607000D01*
Y609100D01*
X442900D01*
Y596800D01*
X471438D01*
Y591044D01*
X477562D01*
Y596800D01*
X477600D01*
Y617500D01*
X506000D01*
Y588200D01*
X504200Y586400D01*
X412900D01*
X411000Y588300D01*
Y610500D01*
X437300D01*
Y613100D01*
X445500D01*
Y663600D01*
X460500D01*
Y632000D01*
D02*
G37*
G36*
X590000Y625400D02*
X578800D01*
Y631500D01*
X590000D01*
Y625400D01*
D02*
G37*
G36*
X506000Y661700D02*
Y631400D01*
X476100D01*
X473500Y634000D01*
X462500D01*
Y658500D01*
X474000D01*
Y663600D01*
X504100D01*
X506000Y661700D01*
D02*
G37*
G36*
X862626Y665853D02*
X860126D01*
X827726Y649953D01*
Y648753D01*
X860526Y664653D01*
X862626D01*
Y639953D01*
X843326D01*
Y643153D01*
X821626D01*
Y641953D01*
X842126D01*
Y639953D01*
X791626D01*
Y677453D01*
X792926D01*
X818626Y648553D01*
Y649953D01*
X793426Y678653D01*
X791626D01*
Y710953D01*
X862626D01*
Y665853D01*
D02*
G37*
G36*
X606400Y615541D02*
X606300Y615500D01*
Y615500D01*
X606300Y615500D01*
X599400D01*
Y625400D01*
X592500D01*
Y637000D01*
X606400D01*
Y615541D01*
D02*
G37*
G36*
X443200Y656400D02*
X426900D01*
X415800Y645300D01*
Y620800D01*
X443700D01*
Y616700D01*
X437300D01*
Y618000D01*
X411000D01*
Y662000D01*
X412600Y663600D01*
X443200D01*
Y656400D01*
D02*
G37*
G36*
X443700Y621900D02*
X424100D01*
Y640600D01*
X432500Y649000D01*
X443700D01*
Y621900D01*
D02*
G37*
%LPC*%
G36*
X484649Y607456D02*
X478524D01*
Y600544D01*
X484649D01*
Y601757D01*
X487987D01*
X488500Y601655D01*
X489397Y601833D01*
X490158Y602342D01*
X490667Y603103D01*
X490845Y604000D01*
X490667Y604897D01*
X490158Y605658D01*
X489397Y606167D01*
X488500Y606345D01*
X487987Y606243D01*
X484649D01*
Y607456D01*
D02*
G37*
%LPD*%
G54D10*
X605500Y801500D02*
D03*
Y795201D02*
D03*
X595500Y801500D02*
D03*
Y795201D02*
D03*
X585500Y801500D02*
D03*
Y795201D02*
D03*
X1004500Y516701D02*
D03*
Y523000D02*
D03*
X537500Y788701D02*
D03*
Y795000D02*
D03*
X517500Y788701D02*
D03*
Y795000D02*
D03*
X507500Y788701D02*
D03*
Y795000D02*
D03*
X570000Y713701D02*
D03*
Y720000D02*
D03*
X550000Y713701D02*
D03*
Y720000D02*
D03*
X540000Y713701D02*
D03*
Y720000D02*
D03*
G54D11*
X660000Y772500D02*
D03*
X666299D02*
D03*
X660000Y782500D02*
D03*
X666299D02*
D03*
X660000Y762500D02*
D03*
X666299D02*
D03*
X659350Y610500D02*
D03*
X665650D02*
D03*
Y617500D02*
D03*
X659350D02*
D03*
X953000Y615000D02*
D03*
X946701D02*
D03*
X953000Y665000D02*
D03*
X946701D02*
D03*
X933000Y755000D02*
D03*
X926701D02*
D03*
X856350Y754000D02*
D03*
X862650D02*
D03*
X856350Y762500D02*
D03*
X862650D02*
D03*
G54D12*
X830413Y491000D02*
D03*
Y513047D02*
D03*
X827854D02*
D03*
X812500D02*
D03*
X815059D02*
D03*
X817618D02*
D03*
X820177D02*
D03*
X822736D02*
D03*
X825295D02*
D03*
X827854Y491000D02*
D03*
X825295D02*
D03*
X822736D02*
D03*
X820177D02*
D03*
X817618D02*
D03*
X815059D02*
D03*
X812500D02*
D03*
X897913D02*
D03*
Y513047D02*
D03*
X895354D02*
D03*
X880000D02*
D03*
X882559D02*
D03*
X885118D02*
D03*
X887677D02*
D03*
X890236D02*
D03*
X892795D02*
D03*
X895354Y491000D02*
D03*
X892795D02*
D03*
X890236D02*
D03*
X887677D02*
D03*
X885118D02*
D03*
X882559D02*
D03*
X880000D02*
D03*
G54D13*
X821457Y502024D02*
D03*
X888957D02*
D03*
G54D14*
X799000Y489000D02*
D03*
Y507504D02*
D03*
X866500Y489000D02*
D03*
Y507504D02*
D03*
G54D15*
X471000Y661500D02*
D03*
Y654807D02*
D03*
X557500Y475000D02*
D03*
Y468307D02*
D03*
X626500Y629000D02*
D03*
Y622307D02*
D03*
X348500Y498307D02*
D03*
Y505000D02*
D03*
X735000Y595847D02*
D03*
Y589153D02*
D03*
G54D16*
X464500Y661500D02*
D03*
X457807D02*
D03*
G54D17*
X567500Y475000D02*
D03*
Y468307D02*
D03*
X626500Y635500D02*
D03*
Y642193D02*
D03*
X1000000Y567500D02*
D03*
Y560807D02*
D03*
X348500Y492000D02*
D03*
Y485307D02*
D03*
X735000Y575807D02*
D03*
Y582500D02*
D03*
X742500Y575807D02*
D03*
Y582500D02*
D03*
X750000Y575807D02*
D03*
Y582500D02*
D03*
X757500Y575807D02*
D03*
Y582500D02*
D03*
X765000Y575807D02*
D03*
Y582500D02*
D03*
G54D18*
X1000000Y575000D02*
D03*
X993307D02*
D03*
X771347Y645000D02*
D03*
X764653D02*
D03*
X771347Y637500D02*
D03*
X764653D02*
D03*
X771347Y630000D02*
D03*
X764653D02*
D03*
X771347Y622500D02*
D03*
X764653D02*
D03*
G54D19*
X610000Y544016D02*
D03*
Y570000D02*
D03*
Y495000D02*
D03*
Y524134D02*
D03*
G54D20*
X831000Y597323D02*
D03*
Y605984D02*
D03*
X826000Y778307D02*
D03*
Y785000D02*
D03*
X865000Y778307D02*
D03*
Y785000D02*
D03*
X852000D02*
D03*
Y778307D02*
D03*
X922000Y778000D02*
D03*
Y784693D02*
D03*
X731000Y778307D02*
D03*
Y785000D02*
D03*
X948000Y778307D02*
D03*
Y785000D02*
D03*
X961000D02*
D03*
Y778307D02*
D03*
X770000D02*
D03*
Y785000D02*
D03*
X757000D02*
D03*
Y778307D02*
D03*
X572500Y598307D02*
D03*
Y605000D02*
D03*
X591000Y611807D02*
D03*
Y618500D02*
D03*
X427000Y607307D02*
D03*
Y614000D02*
D03*
X730000Y486693D02*
D03*
Y480000D02*
D03*
X695000Y463000D02*
D03*
Y456307D02*
D03*
X730000Y513693D02*
D03*
Y507000D02*
D03*
X681000Y480000D02*
D03*
Y486693D02*
D03*
X808100Y474307D02*
D03*
Y481000D02*
D03*
X875500Y474307D02*
D03*
Y481000D02*
D03*
X858500Y558307D02*
D03*
Y565000D02*
D03*
X883457Y589307D02*
D03*
Y596000D02*
D03*
X805500Y741347D02*
D03*
Y734654D02*
D03*
X831000Y588000D02*
D03*
Y581307D02*
D03*
X821000Y588000D02*
D03*
Y581307D02*
D03*
X852457Y589307D02*
D03*
Y596000D02*
D03*
X761000Y745000D02*
D03*
Y738307D02*
D03*
X812500Y599307D02*
D03*
Y606000D02*
D03*
G54D21*
X951496Y600000D02*
D03*
X970000D02*
D03*
X951496Y650000D02*
D03*
X970000D02*
D03*
X931496Y740000D02*
D03*
X950000D02*
D03*
G54D22*
X886902Y612500D02*
D03*
X849500D02*
D03*
G54D23*
X935000Y712000D02*
D03*
Y709441D02*
D03*
Y706882D02*
D03*
Y704323D02*
D03*
X952400Y704300D02*
D03*
Y706859D02*
D03*
Y709418D02*
D03*
Y711977D02*
D03*
G54D24*
X978898Y530000D02*
D03*
Y535000D02*
D03*
Y540000D02*
D03*
Y545000D02*
D03*
X960000Y530000D02*
D03*
Y535000D02*
D03*
Y540000D02*
D03*
Y545000D02*
D03*
X714898Y475000D02*
D03*
Y480000D02*
D03*
Y485000D02*
D03*
Y490000D02*
D03*
X696000Y475000D02*
D03*
Y480000D02*
D03*
Y485000D02*
D03*
Y490000D02*
D03*
X647500Y740000D02*
D03*
Y735000D02*
D03*
Y730000D02*
D03*
Y725000D02*
D03*
Y720000D02*
D03*
Y715000D02*
D03*
Y710000D02*
D03*
Y705000D02*
D03*
X666398Y740000D02*
D03*
Y735000D02*
D03*
Y730000D02*
D03*
Y725000D02*
D03*
Y720000D02*
D03*
Y715000D02*
D03*
Y710000D02*
D03*
Y705000D02*
D03*
X891398Y555000D02*
D03*
Y560000D02*
D03*
Y565000D02*
D03*
Y570000D02*
D03*
X872500Y555000D02*
D03*
Y560000D02*
D03*
Y565000D02*
D03*
Y570000D02*
D03*
X727000Y745000D02*
D03*
Y740000D02*
D03*
Y735000D02*
D03*
Y730000D02*
D03*
X745898Y745000D02*
D03*
Y740000D02*
D03*
Y735000D02*
D03*
Y730000D02*
D03*
G54D25*
X550500Y630061D02*
D03*
X555500D02*
D03*
X560500D02*
D03*
X565500D02*
D03*
X570500D02*
D03*
X575500D02*
D03*
X580500D02*
D03*
G54D26*
X565500Y660100D02*
D03*
G54D27*
X463500Y625177D02*
D03*
Y622618D02*
D03*
Y620059D02*
D03*
Y617500D02*
D03*
Y614941D02*
D03*
Y612382D02*
D03*
Y609823D02*
D03*
X440500D02*
D03*
Y612382D02*
D03*
Y614941D02*
D03*
Y617500D02*
D03*
Y620059D02*
D03*
Y622618D02*
D03*
Y625177D02*
D03*
G54D28*
X452000Y617500D02*
D03*
G54D29*
X785000Y710000D02*
D03*
X869252D02*
D03*
Y707441D02*
D03*
Y704882D02*
D03*
Y702323D02*
D03*
Y699764D02*
D03*
Y697205D02*
D03*
Y694646D02*
D03*
Y692087D02*
D03*
Y689528D02*
D03*
Y686969D02*
D03*
Y684409D02*
D03*
Y681850D02*
D03*
Y679291D02*
D03*
Y676732D02*
D03*
Y674173D02*
D03*
Y671614D02*
D03*
Y669055D02*
D03*
Y666496D02*
D03*
Y663937D02*
D03*
Y661378D02*
D03*
Y658819D02*
D03*
Y656260D02*
D03*
Y653701D02*
D03*
Y651142D02*
D03*
Y648583D02*
D03*
Y646024D02*
D03*
Y643465D02*
D03*
Y640906D02*
D03*
X785000D02*
D03*
Y643465D02*
D03*
Y646024D02*
D03*
Y648583D02*
D03*
Y651142D02*
D03*
Y653701D02*
D03*
Y656260D02*
D03*
Y658819D02*
D03*
Y661378D02*
D03*
Y663937D02*
D03*
Y666496D02*
D03*
Y669055D02*
D03*
Y671614D02*
D03*
Y674173D02*
D03*
Y676732D02*
D03*
Y679291D02*
D03*
Y681850D02*
D03*
Y684409D02*
D03*
Y686969D02*
D03*
Y689528D02*
D03*
Y692087D02*
D03*
Y694646D02*
D03*
Y697205D02*
D03*
Y699764D02*
D03*
Y702323D02*
D03*
Y704882D02*
D03*
Y707441D02*
D03*
G54D30*
X792579Y717579D02*
D03*
X795138D02*
D03*
X797697D02*
D03*
X800256D02*
D03*
X802815D02*
D03*
X805374D02*
D03*
X807933D02*
D03*
X810492D02*
D03*
X813051D02*
D03*
X815610D02*
D03*
X818169D02*
D03*
X820728D02*
D03*
X823287D02*
D03*
X825846D02*
D03*
X828406D02*
D03*
X830965D02*
D03*
X833524D02*
D03*
X836083D02*
D03*
X838642D02*
D03*
X841201D02*
D03*
X843760D02*
D03*
X846319D02*
D03*
X848878D02*
D03*
X851437D02*
D03*
X853996D02*
D03*
X856555D02*
D03*
X859114D02*
D03*
X861673D02*
D03*
Y633327D02*
D03*
X859114D02*
D03*
X856555D02*
D03*
X853996D02*
D03*
X851437D02*
D03*
X848878D02*
D03*
X846319D02*
D03*
X843760D02*
D03*
X841201D02*
D03*
X838642D02*
D03*
X836083D02*
D03*
X833524D02*
D03*
X830965D02*
D03*
X828406D02*
D03*
X825846D02*
D03*
X823287D02*
D03*
X820728D02*
D03*
X818169D02*
D03*
X815610D02*
D03*
X813051D02*
D03*
X810492D02*
D03*
X807933D02*
D03*
X805374D02*
D03*
X802815D02*
D03*
X800256D02*
D03*
X797697D02*
D03*
X795138D02*
D03*
X792579D02*
D03*
G54D31*
X940000Y721000D02*
D03*
X947087D02*
D03*
X932000Y603000D02*
D03*
X924913D02*
D03*
X933000Y653000D02*
D03*
X925913D02*
D03*
X915000Y755000D02*
D03*
X907913D02*
D03*
X997087Y535000D02*
D03*
X990000D02*
D03*
X885413Y707500D02*
D03*
X892500D02*
D03*
X509587Y480917D02*
D03*
X502500D02*
D03*
X545087Y617500D02*
D03*
X538000D02*
D03*
X481587Y594500D02*
D03*
X474500D02*
D03*
X481587Y613500D02*
D03*
X474500D02*
D03*
X456913Y600500D02*
D03*
X464000D02*
D03*
X474500Y604000D02*
D03*
X481587D02*
D03*
X965000Y709000D02*
D03*
X972087D02*
D03*
X742500Y675000D02*
D03*
X735413D02*
D03*
X760000Y693000D02*
D03*
X752913D02*
D03*
X864457Y596000D02*
D03*
X871543D02*
D03*
X829000Y571000D02*
D03*
X821913D02*
D03*
X752913Y702500D02*
D03*
X760000D02*
D03*
X972087Y699500D02*
D03*
X965000D02*
D03*
X926000Y685000D02*
D03*
X918913D02*
D03*
Y695000D02*
D03*
X926000D02*
D03*
G54D32*
X839000Y785000D02*
D03*
Y777913D02*
D03*
X935000Y785000D02*
D03*
Y777913D02*
D03*
X744000Y785000D02*
D03*
Y777913D02*
D03*
X473000Y692913D02*
D03*
Y700000D02*
D03*
X447000D02*
D03*
Y692913D02*
D03*
X947000Y566087D02*
D03*
Y559000D02*
D03*
X555500Y600413D02*
D03*
Y607500D02*
D03*
X581500Y595413D02*
D03*
Y602500D02*
D03*
X545500Y607500D02*
D03*
Y600413D02*
D03*
X581500Y611413D02*
D03*
Y618500D02*
D03*
X708000Y455913D02*
D03*
Y463000D02*
D03*
X812500Y530587D02*
D03*
Y523500D02*
D03*
X880000Y530587D02*
D03*
Y523500D02*
D03*
X987500Y464943D02*
D03*
Y457857D02*
D03*
X967500Y465043D02*
D03*
Y457957D02*
D03*
X831500Y740457D02*
D03*
Y747543D02*
D03*
X808000Y582043D02*
D03*
Y574957D02*
D03*
X799000Y574957D02*
D03*
Y582043D02*
D03*
X847500Y565000D02*
D03*
Y557913D02*
D03*
X790000Y574957D02*
D03*
Y582043D02*
D03*
X781000D02*
D03*
Y574957D02*
D03*
X712000Y735000D02*
D03*
Y742087D02*
D03*
G54D33*
X839000Y832000D02*
D03*
Y822000D02*
D03*
Y812000D02*
D03*
Y802000D02*
D03*
X905000Y832000D02*
D03*
Y822000D02*
D03*
Y812000D02*
D03*
Y802000D02*
D03*
X935000Y832000D02*
D03*
Y822000D02*
D03*
Y812000D02*
D03*
Y802000D02*
D03*
X1001000Y832000D02*
D03*
Y822000D02*
D03*
Y812000D02*
D03*
Y802000D02*
D03*
X744000Y832000D02*
D03*
Y822000D02*
D03*
Y812000D02*
D03*
Y802000D02*
D03*
X810000Y832000D02*
D03*
Y822000D02*
D03*
Y812000D02*
D03*
Y802000D02*
D03*
G54D34*
X640000Y495000D02*
D03*
Y524528D02*
D03*
G54D35*
X360000Y505000D02*
D03*
X389528D02*
D03*
G54D36*
X426500Y630500D02*
D03*
X413500D02*
D03*
G54D37*
X779000Y735701D02*
D03*
Y748299D02*
D03*
X785500Y596402D02*
D03*
Y609000D02*
D03*
G54D38*
X461000Y700000D02*
D03*
Y684252D02*
D03*
G54D39*
X438000Y641500D02*
D03*
X468000D02*
D03*
G54D40*
X973000Y615000D02*
D03*
X966307D02*
D03*
X932000D02*
D03*
X925307D02*
D03*
X973000Y665000D02*
D03*
X966307D02*
D03*
X933000D02*
D03*
X926307D02*
D03*
X975000Y745000D02*
D03*
X968307D02*
D03*
Y735000D02*
D03*
X975000D02*
D03*
X953000Y755000D02*
D03*
X946307D02*
D03*
X915000Y743000D02*
D03*
X908307D02*
D03*
X996693Y545000D02*
D03*
X990000D02*
D03*
X440307Y600500D02*
D03*
X447000D02*
D03*
X971693Y719500D02*
D03*
X965000D02*
D03*
X870347Y729000D02*
D03*
X863653D02*
D03*
X890847Y662000D02*
D03*
X884153D02*
D03*
X764153Y674500D02*
D03*
X770847D02*
D03*
X959000Y685000D02*
D03*
X965693D02*
D03*
G54D41*
X947000Y533976D02*
D03*
Y545000D02*
D03*
G54D42*
X360000Y485000D02*
D03*
X371417D02*
D03*
X413583Y495000D02*
D03*
X425000D02*
D03*
X413583Y509000D02*
D03*
X425000D02*
D03*
X413583Y523000D02*
D03*
X425000D02*
D03*
X413583Y537000D02*
D03*
X425000D02*
D03*
G54D43*
X640000Y560917D02*
D03*
Y549500D02*
D03*
X687500Y740000D02*
D03*
Y728583D02*
D03*
X627500Y705583D02*
D03*
Y717000D02*
D03*
X610500D02*
D03*
Y705583D02*
D03*
X627500Y740000D02*
D03*
Y728583D02*
D03*
X610500D02*
D03*
Y740000D02*
D03*
G54D44*
X375000Y566220D02*
D03*
Y530000D02*
D03*
G54D45*
X538000Y643917D02*
D03*
Y632500D02*
D03*
X481000Y633917D02*
D03*
Y622500D02*
D03*
X491500Y634000D02*
D03*
Y622583D02*
D03*
X502000Y634000D02*
D03*
Y622583D02*
D03*
G54D46*
X603000Y630000D02*
D03*
Y651563D02*
D03*
G54D47*
X448500Y660000D02*
D03*
X437083D02*
D03*
G54D48*
X726000Y460000D02*
D03*
X747563D02*
D03*
G54D49*
X865094Y741500D02*
D03*
X876906D02*
D03*
G54D50*
X793000Y736095D02*
D03*
Y747905D02*
D03*
X799500Y609000D02*
D03*
Y597189D02*
D03*
G54D51*
X947465Y693000D02*
D03*
Y685520D02*
D03*
X939000D02*
D03*
Y689260D02*
D03*
G54D52*
Y693000D02*
D03*
G54D53*
X831000Y605000D02*
X839000D01*
X831000D02*
X833524Y607524D01*
X876906Y741500D02*
Y749000D01*
X1004500Y523000D02*
Y550000D01*
X1001000Y553500D02*
X1004500Y550000D01*
X992800Y553500D02*
X1001000D01*
X862762Y558307D02*
X866069Y555000D01*
X858500Y558307D02*
X862762D01*
X868000Y481000D02*
X875500D01*
X866500Y482500D02*
X868000Y481000D01*
X866500Y482500D02*
Y489000D01*
X882559Y487059D02*
Y491000D01*
X876500Y481000D02*
X882559Y487059D01*
X875500Y481000D02*
X876500D01*
X800500D02*
X808100D01*
X799000Y482500D02*
X800500Y481000D01*
X799000Y482500D02*
Y489000D01*
X994193Y560807D02*
X1000000D01*
Y567500D02*
Y575000D01*
X978600D02*
X993307D01*
X978600D02*
X985600Y582000D01*
X962600Y559000D02*
X978600Y575000D01*
X557500Y462000D02*
Y468307D01*
X567500Y462000D02*
Y468307D01*
X557500Y475000D02*
X567500D01*
X626500Y616000D02*
Y622307D01*
Y629000D02*
Y635500D01*
X348500Y479000D02*
Y485307D01*
Y492000D02*
Y498307D01*
Y505000D02*
X360000D01*
X995000Y655000D02*
X1001000Y649000D01*
Y611000D02*
Y649000D01*
X995000Y605000D02*
X1001000Y611000D01*
X990000Y550700D02*
X992800Y553500D01*
X990000Y545000D02*
Y550700D01*
X985600Y582000D02*
Y595600D01*
X947000Y559000D02*
X962600D01*
X985600Y595600D02*
X995000Y605000D01*
X947000Y566087D02*
X947087Y566000D01*
X959000D01*
X971500Y558500D02*
X979000Y566000D01*
X971500Y542800D02*
Y558500D01*
Y542800D02*
X974300Y540000D01*
X880000Y657000D02*
X890000D01*
X875622Y661378D02*
X880000Y657000D01*
X869252Y661378D02*
X875622D01*
X890000Y657000D02*
X890847Y657846D01*
Y662000D01*
X869252Y663937D02*
X882216D01*
X884153Y662000D01*
X870347Y729000D02*
X876906Y735559D01*
X869252Y727906D02*
X870347Y729000D01*
X876906Y735559D02*
Y741500D01*
X869252Y710000D02*
Y727906D01*
X863653Y740059D02*
X865094Y741500D01*
X863653Y729000D02*
Y740059D01*
X861673Y727020D02*
X863653Y729000D01*
X861673Y717579D02*
Y727020D01*
X862650Y762500D02*
X869000D01*
X862650Y754000D02*
X869000D01*
X1004500Y511000D02*
Y516701D01*
X861594Y640906D02*
X869252D01*
X861673Y633327D02*
Y640827D01*
X785000Y674173D02*
X792173D01*
X785000Y671614D02*
X792386D01*
X785000Y669055D02*
X792445D01*
X785000Y666496D02*
X792496D01*
X785000Y661378D02*
X792378D01*
X785000Y658819D02*
X792819D01*
X785000Y656260D02*
X792260D01*
X792579Y633327D02*
Y640579D01*
X795138Y633327D02*
Y641362D01*
X797697Y633327D02*
Y641197D01*
X800256Y633327D02*
Y641256D01*
X802815Y633327D02*
Y641185D01*
X805374Y640374D02*
X805500Y640500D01*
X805374Y633327D02*
Y640374D01*
X807933Y633327D02*
Y641433D01*
X818169Y633327D02*
Y640331D01*
X846319Y633327D02*
Y640319D01*
X848878Y633327D02*
Y640878D01*
X851437Y633327D02*
Y640937D01*
X853996Y633327D02*
Y640996D01*
X856555Y633327D02*
Y640555D01*
X859114Y633327D02*
Y641114D01*
X861035Y643465D02*
X869252D01*
X862024Y646024D02*
X869252D01*
X861583Y648583D02*
X869252D01*
X861642Y651142D02*
X869252D01*
X861799Y653701D02*
X869252D01*
X861740Y656260D02*
X869252D01*
X861681Y658819D02*
X869252D01*
X853996Y710004D02*
Y717579D01*
X833524Y710524D02*
Y717579D01*
X823287Y710213D02*
Y717579D01*
X820728Y710228D02*
Y717579D01*
X818169Y710169D02*
Y717579D01*
X815610Y710110D02*
Y717579D01*
X813051Y710051D02*
Y717579D01*
X810492Y709508D02*
Y717579D01*
X797697Y710197D02*
Y717579D01*
X788500Y719000D02*
X789921Y717579D01*
X788000Y718500D02*
X788500Y719000D01*
X789921Y717579D02*
X792579D01*
X785000Y707441D02*
X792441D01*
X785000Y702323D02*
X792323D01*
X785000Y694646D02*
X792354D01*
X974300Y540000D02*
X978898D01*
X540000Y720000D02*
Y742500D01*
X550000Y720000D02*
Y742500D01*
X570000Y720000D02*
Y742500D01*
X986900Y535000D02*
X990000D01*
X981900Y540000D02*
X986900Y535000D01*
X978898Y540000D02*
X981900D01*
X947000Y545000D02*
Y559000D01*
Y545000D02*
X960000D01*
X978898D02*
X990000D01*
X947000Y527939D02*
Y533976D01*
X953569Y530000D02*
X960000D01*
Y535000D02*
X966431D01*
X997087D02*
Y539856D01*
X996693Y545000D02*
Y550053D01*
X812500Y610000D02*
Y615000D01*
Y606000D02*
Y610000D01*
X869252Y707441D02*
Y710000D01*
X859114Y717579D02*
X861673D01*
X799500Y609000D02*
X802500Y606000D01*
X812500D01*
Y610000D02*
X820728Y618228D01*
Y633327D01*
X823287Y617287D02*
Y633327D01*
X817000Y611000D02*
X823287Y617287D01*
X817000Y602938D02*
Y611000D01*
X813370Y599307D02*
X817000Y602938D01*
X812500Y599307D02*
X813370D01*
X801618D02*
X812500D01*
X799500Y597189D02*
X801618Y599307D01*
X786287Y597189D02*
X799500D01*
X785500Y596402D02*
X786287Y597189D01*
X820728Y633327D02*
Y641028D01*
X833524Y633327D02*
Y640924D01*
X841201Y633327D02*
Y640799D01*
X871543Y596000D02*
X883457D01*
X852457D02*
X864457D01*
X852457Y589307D02*
X883457D01*
X833524Y607524D02*
Y633327D01*
X975000Y735000D02*
Y745000D01*
Y735000D02*
X995000D01*
X744000Y822000D02*
X754500D01*
X764947Y811553D01*
Y785000D02*
Y811553D01*
X852000Y785000D02*
X865000D01*
X872500D01*
X935000Y822000D02*
X948000D01*
X961000Y809000D01*
Y785000D02*
Y809000D01*
X948000Y785000D02*
X961000D01*
Y772000D02*
Y778307D01*
X948000Y772000D02*
Y778307D01*
X841201Y627799D02*
X844000Y625000D01*
X841201Y627799D02*
Y633327D01*
X838642Y626858D02*
Y633327D01*
Y626858D02*
X843000Y622500D01*
X884500D01*
X836083Y625917D02*
Y633327D01*
Y625917D02*
X849500Y612500D01*
X886902D02*
Y620098D01*
X884500Y622500D02*
X886902Y620098D01*
X847193Y589307D02*
X852457D01*
X843500Y593000D02*
X847193Y589307D01*
X839000Y605000D02*
X843500Y600500D01*
Y593000D02*
Y600500D01*
X884500Y589000D02*
X897500D01*
X844000Y625000D02*
X894500D01*
X852457Y596000D02*
Y609543D01*
X849500Y612500D02*
X852457Y609543D01*
X883457Y596000D02*
Y609055D01*
X886902Y612500D01*
X897500Y589000D02*
X900500Y592000D01*
Y619000D01*
X894500Y625000D02*
X900500Y619000D01*
X764153Y674500D02*
Y676090D01*
X767354Y679291D01*
X785000D01*
X805374Y717579D02*
Y724126D01*
X801000Y728500D02*
X805374Y724126D01*
X779000Y731900D02*
X782400Y728500D01*
X801000D01*
X779000Y731900D02*
Y735701D01*
X794441Y734654D02*
X805500D01*
Y730000D02*
Y734654D01*
Y730000D02*
X807933Y727567D01*
Y717579D02*
Y727567D01*
X779000Y735701D02*
X791205Y747905D01*
X793000D01*
X798941D01*
X805500Y741347D01*
X839000Y822000D02*
X850000D01*
X865000Y807000D01*
Y785000D02*
Y807000D01*
X809000Y491000D02*
X812500D01*
X876500D02*
X880000D01*
X815500Y482000D02*
Y483000D01*
X817618Y485118D01*
Y491000D01*
X820177Y482323D02*
Y491000D01*
X825295Y482205D02*
Y491000D01*
Y482205D02*
X825500Y482000D01*
X827854Y486146D02*
Y491000D01*
Y486146D02*
X830500Y483500D01*
Y482000D02*
Y483500D01*
X898000Y482000D02*
Y483500D01*
X895354Y486146D02*
X898000Y483500D01*
X895354Y486146D02*
Y491000D01*
X892795Y482205D02*
X893000Y482000D01*
X892795Y482205D02*
Y491000D01*
X887677Y482323D02*
X888000Y482000D01*
X887677Y482323D02*
Y491000D01*
X885118Y485118D02*
Y491000D01*
X883000Y483000D02*
X885118Y485118D01*
X883000Y482000D02*
Y483000D01*
X822736Y491000D02*
Y497500D01*
Y506500D02*
Y513047D01*
X890236Y506500D02*
Y513047D01*
Y491000D02*
Y497500D01*
X869693Y474307D02*
X875500D01*
X802307Y474307D02*
X808100D01*
X815059Y487059D02*
Y491000D01*
X808100Y481000D02*
X809000D01*
X815059Y487059D01*
X605500Y790000D02*
Y795201D01*
X640000Y772500D02*
X660000D01*
X666299D02*
X672500D01*
X627583Y705500D02*
X636000D01*
X851500Y754000D02*
X856350D01*
X851500Y762500D02*
X856350D01*
X865000Y741595D02*
X865094Y741500D01*
X865000Y741595D02*
Y749000D01*
X876906D02*
X877000D01*
G54D54*
X847500Y552500D02*
Y557913D01*
X830484Y598307D02*
X831000D01*
X940800Y693000D02*
Y700000D01*
X831200Y727496D02*
X840004D01*
X961700Y606300D02*
X968700D01*
X953000Y615000D02*
X961700Y606300D01*
X968700D02*
X970000Y605000D01*
X973000Y608000D01*
X970000Y600000D02*
Y605000D01*
X973000Y608000D02*
Y615000D01*
X885500Y544000D02*
X892795Y536705D01*
X841000Y544000D02*
X885500D01*
X828000Y557000D02*
X841000Y544000D01*
X892795Y513047D02*
Y536705D01*
X895354Y513047D02*
Y541146D01*
X888000Y548500D02*
X895354Y541146D01*
X844000Y548500D02*
X888000D01*
X716500Y557000D02*
X828000D01*
X838000Y539500D02*
X883000D01*
X824000Y553500D02*
X838000Y539500D01*
X714000Y553500D02*
X824000D01*
X832000Y560500D02*
X844000Y548500D01*
X737000Y560500D02*
X832000D01*
X858500Y565000D02*
X872500D01*
X847500D02*
X858500D01*
X842500Y570000D02*
X872500D01*
X837500Y565000D02*
X842500Y570000D01*
X816500Y565000D02*
X837500D01*
X814000Y567500D02*
X816500Y565000D01*
X814000Y567500D02*
Y580500D01*
X812457Y582043D02*
X814000Y580500D01*
X845500Y523500D02*
X880000D01*
X821500Y547500D02*
X845500Y523500D01*
X880500Y732000D02*
X885900Y737400D01*
X880500Y726100D02*
Y732000D01*
Y726100D02*
X884100Y722500D01*
X473000Y700000D02*
X480000D01*
X461000D02*
X473000D01*
X447000D02*
X461000D01*
X890000Y650000D02*
X898500Y658500D01*
Y664000D01*
X896004Y666496D02*
X898500Y664000D01*
X869252Y666496D02*
X896004D01*
X901445Y669055D02*
X905100Y665400D01*
X869252Y669055D02*
X901445D01*
X892500Y709000D02*
X896000Y712500D01*
X892500Y707500D02*
Y709000D01*
X890500Y717500D02*
X895000D01*
X885413Y712413D02*
X890500Y717500D01*
X885413Y707500D02*
Y712413D01*
X900500Y721500D02*
X904000Y725000D01*
X889500Y721500D02*
X900500D01*
X908000Y711000D02*
Y727000D01*
X895500Y739500D02*
X908000Y727000D01*
X895500Y739500D02*
Y794000D01*
X891646Y694646D02*
X908000Y711000D01*
X911000Y697000D02*
Y728000D01*
X899500Y739500D02*
X911000Y728000D01*
X899500Y739500D02*
Y795000D01*
X914000Y693500D02*
Y728500D01*
X903000Y739500D02*
X914000Y728500D01*
X903000Y739500D02*
Y773700D01*
X915000Y736000D02*
Y743000D01*
X900500Y699500D02*
X907500D01*
X909000Y695000D02*
X911000Y697000D01*
X900000Y695000D02*
X909000D01*
X907400Y699400D02*
X907500Y699500D01*
X902350Y681850D02*
X914000Y693500D01*
X879500Y711500D02*
X889500Y721500D01*
X885413Y700913D02*
Y707500D01*
X881705Y697205D02*
X885413Y700913D01*
X869252Y697205D02*
X881705D01*
X879500Y703000D02*
Y711500D01*
X890500Y736000D02*
Y759500D01*
X884500Y730000D02*
X890500Y736000D01*
X885900Y737400D02*
Y759600D01*
X876264Y699764D02*
X879500Y703000D01*
X869252Y694646D02*
X891646D01*
X893087Y692087D02*
X900500Y699500D01*
X869252Y692087D02*
X893087D01*
X894528Y689528D02*
X900000Y695000D01*
X869252Y689528D02*
X894528D01*
X750000Y677000D02*
Y682500D01*
X748000Y675000D02*
X750000Y677000D01*
X742500Y675000D02*
X748000D01*
X750000Y682500D02*
X754469Y686969D01*
X785000D01*
X730000Y675000D02*
X730000Y675000D01*
X735413D01*
X746500Y693000D02*
X746500Y693000D01*
X752913D01*
X774972Y689528D02*
X785000D01*
X771500Y693000D02*
X774972Y689528D01*
X760000Y693000D02*
X771500D01*
X779295Y697205D02*
X785000D01*
X765500Y711000D02*
X779295Y697205D01*
X725500Y711000D02*
X765500D01*
X764000Y702500D02*
X766500Y700000D01*
X760000Y702500D02*
X764000D01*
X703500Y550000D02*
X805000D01*
X701000Y552500D02*
X703500Y550000D01*
X701000Y552500D02*
Y695500D01*
X760000Y614000D02*
Y625347D01*
X757500Y611500D02*
X760000Y614000D01*
X757500Y582500D02*
Y611500D01*
X756500Y616500D02*
Y629347D01*
X750000Y610000D02*
X756500Y616500D01*
X750000Y582500D02*
Y610000D01*
X753000Y618500D02*
Y633347D01*
X742500Y608000D02*
X753000Y618500D01*
X742500Y582500D02*
Y608000D01*
X749500Y620500D02*
Y639000D01*
X735000Y606000D02*
X749500Y620500D01*
X735000Y595847D02*
Y606000D01*
X726000Y663000D02*
X751500D01*
X717500Y654500D02*
X726000Y663000D01*
X717500Y562500D02*
Y654500D01*
X729000Y660000D02*
X753500D01*
X721000Y652000D02*
X729000Y660000D01*
X721000Y568500D02*
Y652000D01*
X733000Y657500D02*
X772000D01*
X725000Y649500D02*
X733000Y657500D01*
X725000Y572500D02*
Y649500D01*
X721000Y568500D02*
X722500Y567000D01*
X725000Y572500D02*
X737000Y560500D01*
X689500Y698000D02*
X715000Y723500D01*
X689500Y541000D02*
Y698000D01*
Y541000D02*
X705000Y525500D01*
X693000Y697000D02*
X717000Y721000D01*
X693000Y543500D02*
Y697000D01*
Y543500D02*
X697500Y539000D01*
X697000Y696500D02*
X719000Y718500D01*
X697000Y546000D02*
Y696500D01*
Y546000D02*
X716700Y526300D01*
X701000Y695500D02*
X721500Y716000D01*
X705000Y695000D02*
X723500Y713500D01*
X705000Y554500D02*
Y695000D01*
X709000Y694500D02*
X725500Y711000D01*
X709000Y558500D02*
Y694500D01*
Y558500D02*
X714000Y553500D01*
X713000Y694000D02*
X727500Y708500D01*
X713000Y560500D02*
Y694000D01*
Y560500D02*
X716500Y557000D01*
X755557Y667057D02*
Y679057D01*
X751500Y663000D02*
X755557Y667057D01*
Y679057D02*
X760909Y684409D01*
X759000Y678500D02*
X762350Y681850D01*
X759000Y665500D02*
Y678500D01*
X753500Y660000D02*
X759000Y665500D01*
X778437Y663937D02*
X785000D01*
X772000Y657500D02*
X778437Y663937D01*
X732500Y695000D02*
X740000Y702500D01*
X752913D01*
X762350Y681850D02*
X785000D01*
X713000Y726000D02*
X800000D01*
X685000Y698000D02*
X713000Y726000D01*
X685000Y560000D02*
Y698000D01*
X715000Y723500D02*
X799500D01*
X717000Y721000D02*
X778000D01*
X719000Y718500D02*
X776500D01*
X721500Y716000D02*
X769000D01*
X723500Y713500D02*
X767000D01*
X727500Y708500D02*
X764000D01*
X780413Y692087D01*
X767000Y713500D02*
X780736Y699764D01*
X769000Y716000D02*
X780118Y704882D01*
X776500Y718500D02*
X785000Y710000D01*
X778000Y721000D02*
X786657Y712343D01*
X799500Y723500D02*
X800256Y722744D01*
X800000Y726000D02*
X802815Y723185D01*
X732500Y645000D02*
X741201Y653701D01*
X749500Y639000D02*
X761642Y651142D01*
X753000Y633347D02*
X764653Y645000D01*
X756500Y629347D02*
X764653Y637500D01*
X760000Y625347D02*
X764653Y630000D01*
X780413Y692087D02*
X785000D01*
X760909Y684409D02*
X785000D01*
X780736Y699764D02*
X785000D01*
X780118Y704882D02*
X785000D01*
X786657Y712343D02*
X793843D01*
X682417Y728583D02*
X687500D01*
X676000Y735000D02*
X682417Y728583D01*
X666398Y735000D02*
X676000D01*
X940000Y715000D02*
Y721000D01*
X937000Y712000D02*
X940000Y715000D01*
X935000Y712000D02*
X937000D01*
X950523Y711977D02*
X952400D01*
X947087Y715413D02*
X950523Y711977D01*
X947087Y715413D02*
Y721000D01*
X972087Y709000D02*
Y712413D01*
X970500Y714000D02*
X972087Y712413D01*
X966500Y714000D02*
X970500D01*
X965000Y715500D02*
X966500Y714000D01*
X965000Y715500D02*
Y719500D01*
X971693D02*
X978000D01*
X965000Y699500D02*
Y709000D01*
X960000D02*
X965000D01*
X957859Y706859D02*
X960000Y709000D01*
X952400Y706859D02*
X957859D01*
X958500Y726000D02*
X965000Y719500D01*
X935500Y726000D02*
X958500D01*
X992000Y692000D02*
X995000Y695000D01*
X958500Y692000D02*
X992000D01*
X952400Y698100D02*
X958500Y692000D01*
X952400Y698100D02*
Y704300D01*
X951000Y693000D02*
X959000Y685000D01*
X972087Y699500D02*
X977500D01*
X965693Y680307D02*
X966500Y679500D01*
X965693Y680307D02*
Y685000D01*
X962500Y745000D02*
X968307D01*
X962500Y735000D02*
X968307D01*
X995000Y705000D02*
Y716500D01*
X983000Y728500D02*
X995000Y716500D01*
X931738Y728500D02*
X983000D01*
X823000Y530000D02*
X825295Y527705D01*
Y513047D02*
Y527705D01*
X827854Y513047D02*
Y517854D01*
X832500Y522500D01*
X820177Y519677D02*
X821500Y521000D01*
X820177Y513047D02*
Y519677D01*
X765000Y582500D02*
Y622154D01*
X764653Y622500D02*
X765000Y622154D01*
X808000Y589000D02*
X813000D01*
X821700Y597700D01*
X808000Y582043D02*
Y589000D01*
X821700Y597700D02*
Y611535D01*
X790000Y582043D02*
Y585500D01*
X788000Y587500D02*
X790000Y585500D01*
X780500Y587500D02*
X788000D01*
X775000Y593000D02*
X780500Y587500D01*
X782300Y590000D02*
X791043D01*
X778500Y593800D02*
X782300Y590000D01*
X771500Y591543D02*
X781000Y582043D01*
X791043Y590000D02*
X799000Y582043D01*
X775000Y593000D02*
Y612200D01*
X918000Y541000D02*
X982000Y477000D01*
Y459000D02*
Y477000D01*
Y459000D02*
X983143Y457857D01*
X987500D01*
X914500Y538500D02*
X962000Y491000D01*
Y459000D02*
Y491000D01*
Y459000D02*
X963043Y457957D01*
X967500D01*
X843760Y633327D02*
Y640260D01*
X864000Y703000D02*
X864677Y702323D01*
X869252D01*
X943410Y689574D02*
Y691590D01*
X942000Y693000D02*
X943410Y691590D01*
X940800Y693000D02*
X942000D01*
X943410Y689574D02*
X947465Y685520D01*
X932900Y723400D02*
X935500Y726000D01*
X932900Y721500D02*
Y723400D01*
X927500Y724262D02*
X931738Y728500D01*
X927500Y710700D02*
Y724262D01*
Y710700D02*
X931318Y706882D01*
X771500Y614000D02*
X781000Y623500D01*
X771500Y591543D02*
Y614000D01*
X804992Y623500D02*
X810492Y629000D01*
X781000Y623500D02*
X804992D01*
X805700Y620000D02*
X813051Y627351D01*
X782800Y620000D02*
X805700D01*
X775000Y612200D02*
X782800Y620000D01*
X806110Y616500D02*
X815610Y626000D01*
X783500Y616500D02*
X806110D01*
X778500Y611500D02*
X783500Y616500D01*
X839000Y775500D02*
Y777913D01*
X943700Y704300D02*
X945100D01*
X939000Y693000D02*
X940800D01*
X764947Y785000D02*
X770000D01*
X757000D02*
X764947D01*
X590606Y611413D02*
Y611807D01*
X948000Y746300D02*
X949550Y747850D01*
X968000Y656300D02*
X969550Y657850D01*
X638917Y730000D02*
X647500D01*
X637500Y728583D02*
X638917Y730000D01*
X627500Y728583D02*
X637500D01*
X953000Y751300D02*
Y755000D01*
X949550Y747850D02*
X953000Y751300D01*
X949550Y747850D02*
X950000Y740000D01*
X973000Y661300D02*
Y665000D01*
X969550Y657850D02*
X973000Y661300D01*
X969550Y657850D02*
X970000Y650000D01*
X830200Y722660D02*
Y724765D01*
Y722660D02*
X830965Y721896D01*
Y717579D02*
Y721896D01*
X920701Y749000D02*
X926701Y755000D01*
X918000Y749000D02*
X920701D01*
X915000Y746000D02*
X918000Y749000D01*
X915000Y743000D02*
Y746000D01*
X815610Y626000D02*
Y633327D01*
X813051Y627351D02*
Y633327D01*
X745898Y730000D02*
X755800D01*
X757800Y732000D01*
X838642Y717579D02*
Y723700D01*
X907300Y778000D02*
X922000D01*
X836083Y717579D02*
Y721517D01*
X833000Y724600D02*
X836083Y721517D01*
X739600Y735000D02*
X745898D01*
X740400Y740000D02*
X745898D01*
X736400Y736000D02*
X740400Y740000D01*
X736400Y735000D02*
Y736000D01*
X727000Y735000D02*
X736400D01*
X944475Y602000D02*
Y606000D01*
Y602000D02*
X946475Y600000D01*
X951496D01*
X924475Y741000D02*
Y742000D01*
Y741000D02*
X925475Y740000D01*
X931496D01*
X931318Y706882D02*
X935000D01*
X727000Y740000D02*
X731700D01*
X733400Y738300D01*
X831200Y727496D02*
Y728400D01*
X840004Y727496D02*
X841500Y726000D01*
Y721399D02*
Y726000D01*
X841201Y721100D02*
X841500Y721399D01*
X841201Y717579D02*
Y721100D01*
X828406Y717579D02*
Y723365D01*
X745898Y745000D02*
X755947D01*
X825846Y717579D02*
Y722822D01*
X810492Y629000D02*
Y633327D01*
X616917Y735000D02*
X647500D01*
X610500Y728583D02*
X616917Y735000D01*
X940800Y700000D02*
X945100Y704300D01*
X935000Y709441D02*
X938559D01*
X943700Y704300D01*
X590606Y611807D02*
X591000D01*
X945100Y704300D02*
X952400D01*
X821700Y611535D02*
X825846Y615682D01*
Y633327D01*
X933000Y755000D02*
X941700Y746300D01*
X948000D01*
X953000Y665000D02*
X961700Y656300D01*
X968000D01*
X831000Y597323D02*
Y598307D01*
X932720Y685520D02*
X939000D01*
X932200Y685000D02*
X932720Y685520D01*
X926000Y685000D02*
X932200D01*
X926000D02*
Y695000D01*
X627500Y740000D02*
X647500D01*
X681000Y480000D02*
X696000D01*
X915000Y752293D02*
Y755000D01*
X908307Y745600D02*
X915000Y752293D01*
X908307Y743000D02*
Y745600D01*
X953000Y755000D02*
X995000D01*
X926307Y662293D02*
Y665000D01*
Y662293D02*
X933000Y655600D01*
Y653000D02*
Y655600D01*
X973000Y665000D02*
X995000D01*
X925307Y612293D02*
Y615000D01*
Y612293D02*
X932000Y605600D01*
Y603000D02*
Y605600D01*
X973000Y615000D02*
X995000D01*
X744000Y785000D02*
Y802000D01*
X935000Y785000D02*
Y802000D01*
X839000Y785000D02*
Y802000D01*
X712000Y735000D02*
X727000D01*
X737694Y777913D02*
X744000D01*
X737300Y778307D02*
X737694Y777913D01*
X731000Y778307D02*
X737300D01*
X832694Y777913D02*
X839000D01*
X832300Y778307D02*
X832694Y777913D01*
X826000Y778307D02*
X832300D01*
X928487Y777913D02*
X935000D01*
X928400Y778000D02*
X928487Y777913D01*
X922000Y778000D02*
X928400D01*
X932000Y615000D02*
X946701D01*
X933000Y665000D02*
X946701D01*
X947465Y693000D02*
X951000D01*
X947446Y709418D02*
X952400D01*
X959000Y679500D02*
Y685000D01*
X961000Y785000D02*
X966053D01*
X725947D02*
X731000D01*
X751947Y778307D02*
X757000D01*
X770000D02*
X775053D01*
X744000Y812000D02*
X752100D01*
X826000Y785000D02*
X831053D01*
X924913Y598144D02*
Y603000D01*
X852000Y778307D02*
X857053D01*
X925913Y648144D02*
Y653000D01*
X839000Y812000D02*
X847100D01*
X865000Y778307D02*
X870053D01*
X918913Y690144D02*
Y695000D01*
X944475Y650000D02*
X951496D01*
X966307Y609947D02*
Y615000D01*
X934046Y689260D02*
X939000D01*
X907913Y755000D02*
Y759856D01*
X930046Y704323D02*
X935000D01*
X966307Y659947D02*
Y665000D01*
X922000Y784693D02*
X927053D01*
X946307Y749947D02*
Y755000D01*
X935000Y812000D02*
X943100D01*
X695000Y456307D02*
X700053D01*
X689569Y475000D02*
X696000D01*
X689569Y485000D02*
X696000D01*
X730000Y486693D02*
X735053D01*
X724947Y513693D02*
X730000D01*
X565931Y713701D02*
X570000D01*
X866069Y555000D02*
X872500D01*
X533431Y788701D02*
X537500D01*
X720569Y730000D02*
X727000D01*
X761000Y738307D02*
X766053D01*
X610500Y740000D02*
X617915D01*
X785500Y609000D02*
X791537D01*
X712000Y742087D02*
X716856D01*
X666398Y740000D02*
X687500D01*
X694915D01*
X755947Y745000D02*
X761000D01*
X821000Y581307D02*
X821913Y580394D01*
X829000Y579307D02*
X831000Y581307D01*
X831516D01*
X427000Y614000D02*
X427941Y614941D01*
X440500D01*
X463500Y601000D02*
Y609823D01*
Y601000D02*
X464000Y600500D01*
X463500Y614941D02*
X473059D01*
X474500Y613500D01*
X463500Y612382D02*
X467718D01*
X469200Y610900D01*
Y609300D02*
Y610900D01*
Y609300D02*
X474500Y604000D01*
X778500Y593800D02*
Y611500D01*
X714898Y480000D02*
X730000D01*
X736500D01*
X716500Y822500D02*
X721000Y827000D01*
X799000Y569043D02*
Y574957D01*
X869252Y684409D02*
X899409D01*
X869252Y704882D02*
X874782D01*
X876300Y706400D01*
Y715900D01*
X967500Y440000D02*
Y457957D01*
X987500Y440000D02*
Y457857D01*
X967500Y465043D02*
Y471000D01*
X987500Y464943D02*
Y471000D01*
X869252Y674173D02*
X886673D01*
X889600Y677100D01*
X869252Y671614D02*
X889614D01*
X891500Y673500D01*
X817500Y731168D02*
Y755500D01*
Y731168D02*
X825846Y722822D01*
X914500Y625000D02*
X921300Y631800D01*
X914500Y538500D02*
Y625000D01*
X918000Y541000D02*
Y619000D01*
X922500Y623500D01*
X932000Y615000D02*
Y634500D01*
X920500Y646000D02*
X932000Y634500D01*
X889600Y677100D02*
X911400D01*
X920500Y668000D01*
Y646000D02*
Y668000D01*
X869252Y699764D02*
X876264D01*
X869252Y679291D02*
X878291D01*
X879100Y680100D01*
X869252Y676732D02*
X878232D01*
X878600Y677100D01*
X882000D01*
X903000Y773700D02*
X907300Y778000D01*
X933000Y665000D02*
Y674291D01*
X879100Y680100D02*
X927191D01*
X933000Y674291D01*
X869252Y681850D02*
X902350D01*
X912000Y685000D02*
X918913D01*
X779000Y748299D02*
Y754000D01*
X825000Y726770D02*
X828406Y723365D01*
X825000Y726770D02*
Y757000D01*
X828000Y726965D02*
X830200Y724765D01*
X828000Y726965D02*
Y730500D01*
X831500Y734000D01*
Y740457D01*
Y747543D02*
Y755500D01*
X721000Y827000D02*
X867500D01*
X899500Y795000D01*
X896969Y686969D02*
X901000Y691000D01*
X869252Y686969D02*
X896969D01*
X892500Y797000D02*
X895500Y794000D01*
X839000Y775500D02*
X843000Y771500D01*
X878500D01*
X890500Y759500D01*
X781000Y569000D02*
Y574957D01*
X790000Y569000D02*
Y574957D01*
X808000Y569000D02*
Y574957D01*
Y582043D02*
X812457D01*
X785000Y632000D02*
Y640906D01*
X775500Y622500D02*
X785000Y632000D01*
X771347Y622500D02*
X775500D01*
X771347Y630000D02*
X775500D01*
X778500Y633000D01*
Y642500D01*
X779465Y643465D01*
X785000D01*
X771347Y637500D02*
X775500Y641653D01*
X774929Y648583D02*
X785000D01*
X771347Y645000D02*
X774929Y648583D01*
X741201Y653701D02*
X785000D01*
X761642Y651142D02*
X785000D01*
X775500Y641653D02*
Y644000D01*
X777524Y646024D01*
X785000D01*
X735000Y570000D02*
Y575807D01*
X742500Y570000D02*
Y575807D01*
X750000Y570000D02*
Y575807D01*
X757500Y570000D02*
Y575807D01*
X765000Y570000D02*
Y575807D01*
X638500Y725000D02*
X647500D01*
X610500Y717000D02*
X617500Y724000D01*
X637500D01*
X638500Y725000D01*
X639000Y720000D02*
X647500D01*
X637500Y721500D02*
X639000Y720000D01*
X627500Y717000D02*
X636500D01*
X638500Y715000D01*
X647500D01*
X864000Y703000D02*
Y712000D01*
X865500Y713500D01*
Y717500D01*
X802815Y717579D02*
Y723185D01*
X795138Y713638D02*
Y717579D01*
X793843Y712343D02*
X795138Y713638D01*
X800256Y717579D02*
Y722744D01*
X705000Y507000D02*
X730000D01*
X681000Y503000D02*
X695000Y517000D01*
X681000Y486693D02*
Y503000D01*
X883000Y539500D02*
X885118Y537382D01*
Y513047D02*
Y537382D01*
X887677Y513047D02*
Y520177D01*
X889000Y521500D01*
X735000Y582500D02*
Y589153D01*
X705000Y507000D02*
Y525500D01*
X716700Y526300D02*
X724800D01*
X817618Y513047D02*
Y537382D01*
X790500Y538000D02*
Y546000D01*
Y538000D02*
X805000Y523500D01*
X812500D01*
X805000Y550000D02*
X817618Y537382D01*
X899409Y684409D02*
X906000Y691000D01*
X680000Y822500D02*
X716500D01*
X675000Y817500D02*
X680000Y822500D01*
X666299Y762500D02*
X830500D01*
X843760Y749240D01*
Y717579D02*
Y749240D01*
X640000Y782500D02*
X660000D01*
X630000Y772500D02*
X640000Y782500D01*
X620000Y772500D02*
X630000Y762500D01*
X660000D01*
X666299Y782500D02*
X672500D01*
X744000Y777913D02*
X749413Y772500D01*
X836000D01*
X840500Y768000D01*
X877500D01*
X885900Y759600D01*
X610500Y705583D02*
X613583D01*
X619000Y711000D01*
X621000Y721500D02*
X637500D01*
X619000Y711000D02*
Y719500D01*
X621000Y721500D01*
X642500Y705000D02*
X647500D01*
X604000Y700000D02*
X637500D01*
X642500Y705000D01*
X647500Y710000D02*
X652500D01*
X656500Y706000D01*
Y702500D02*
Y706000D01*
X659000Y713500D02*
Y745500D01*
Y713500D02*
X662500Y710000D01*
X666398D01*
X655000Y712500D02*
X662500Y705000D01*
X666398D01*
X655000Y712500D02*
Y743500D01*
X595500Y786000D02*
Y795201D01*
Y786000D02*
X625500Y756000D01*
X648500D01*
X659000Y745500D01*
X585500Y788500D02*
Y795201D01*
Y788500D02*
X623500Y750500D01*
X648000D01*
X655000Y743500D01*
X507500Y788701D02*
X536201Y760000D01*
X577500D01*
X517500Y788701D02*
X536201Y770000D01*
X582000D01*
X600000Y704000D02*
X604000Y700000D01*
X600000Y704000D02*
Y752000D01*
X582000Y770000D02*
X600000Y752000D01*
X590000Y705000D02*
Y747500D01*
X577500Y760000D02*
X590000Y747500D01*
X540000Y713701D02*
X563201Y690500D01*
X550000Y713701D02*
X570201Y693500D01*
X590000Y705000D02*
X598000Y697000D01*
X651000D01*
X656500Y702500D01*
X672500Y782500D02*
X687500Y767500D01*
X833500D01*
X846319Y754681D01*
Y717579D02*
Y754681D01*
X848878Y717579D02*
Y726378D01*
X850000Y727500D01*
X851437Y717579D02*
Y724437D01*
X854000Y727000D01*
Y731000D01*
X852500Y732500D02*
X854000Y731000D01*
X856555Y717579D02*
Y735945D01*
X855000Y737500D02*
X856555Y735945D01*
X727000Y745000D02*
Y752000D01*
X733000Y758000D01*
X804500D01*
X807500Y755000D01*
X570201Y693500D02*
X666000D01*
X563201Y690500D02*
X668000D01*
X685000Y707500D01*
X666000Y693500D02*
X681000Y708500D01*
X666398Y725000D02*
X674500D01*
X681000Y718500D01*
Y708500D02*
Y718500D01*
X666398Y730000D02*
X674000D01*
X685000Y719000D01*
Y707500D02*
Y719000D01*
X666398Y720000D02*
X673500D01*
X675500Y718000D01*
X666398Y715000D02*
X673000D01*
X675500Y712500D01*
G54D55*
X812500Y513047D02*
Y523500D01*
X880000Y530587D02*
Y535500D01*
Y513047D02*
Y523500D01*
X812500Y530587D02*
Y535500D01*
X836000Y585650D02*
Y600500D01*
X826677Y597323D02*
X831000D01*
Y588000D02*
Y597323D01*
X821000Y588000D02*
X831000D01*
X826500Y609596D02*
X830965Y614061D01*
X826500Y602500D02*
Y609596D01*
X831516Y581307D02*
X831657D01*
X830965Y614061D02*
Y633327D01*
X826500Y602500D02*
X827500Y601500D01*
X835000D01*
X836000Y600500D01*
X831657Y581307D02*
X836000Y585650D01*
X829000Y571000D02*
Y579307D01*
X821913Y571000D02*
Y580394D01*
X824000Y600000D02*
X826677Y597323D01*
X824000Y600000D02*
Y610500D01*
X828406Y614906D01*
Y633327D01*
X820177Y482323D02*
X820500Y482000D01*
G54D56*
X387500Y445846D02*
Y475000D01*
X377500Y485000D02*
X387500Y475000D01*
X371417Y485000D02*
X377500D01*
Y435846D02*
X387500Y445846D01*
X371417Y485000D02*
Y493583D01*
X360000Y505000D02*
X371417Y493583D01*
X378780Y570000D02*
X422583D01*
X375000Y566220D02*
X378780Y570000D01*
X375000Y530000D02*
X389528Y515472D01*
Y505000D02*
Y515472D01*
Y499472D02*
Y505000D01*
Y499472D02*
X406500Y482500D01*
X420000D01*
X425000Y487500D01*
Y495000D01*
X587284Y524134D02*
X610000D01*
X577500Y533917D02*
X587284Y524134D01*
X577500Y533917D02*
Y570000D01*
X515000Y495000D02*
X577500D01*
X413583Y537000D02*
Y561000D01*
X422583Y570000D01*
X440000D01*
X610000Y495000D02*
X640000D01*
X577500D02*
X610000D01*
X413583D02*
Y509000D01*
Y523000D01*
Y537000D01*
X425000Y495000D02*
Y509000D01*
Y523000D01*
Y537000D01*
Y495000D02*
X440000D01*
X637500Y570000D02*
X640000Y567500D01*
X610000Y570000D02*
X637500D01*
X640000Y560917D02*
Y567500D01*
G54D57*
X665650Y610500D02*
X673500D01*
X651500D02*
X659350D01*
X651500Y617500D02*
X659350D01*
X665650D02*
X673500D01*
X581500Y618500D02*
X591000D01*
X603000D01*
X502500Y480917D02*
Y495000D01*
X508500Y501000D02*
X577500Y570000D01*
X508500Y482004D02*
Y501000D01*
Y482004D02*
X509587Y480917D01*
G54D58*
X695000Y463000D02*
X708000D01*
X461000Y677231D02*
Y684252D01*
X555500Y622900D02*
Y630061D01*
X550100Y617500D02*
X555500Y622900D01*
X545087Y617500D02*
X550100D01*
X560500Y612500D02*
Y630061D01*
X555500Y607500D02*
X560500Y612500D01*
X545500Y607500D02*
X555500D01*
X570500Y607000D02*
Y630061D01*
Y607000D02*
X572500Y605000D01*
X575500Y613500D02*
Y630061D01*
Y613500D02*
X577587Y611413D01*
X581500D01*
X590606D01*
X581500Y602500D02*
Y611413D01*
X425000Y682500D02*
X436587D01*
X447000Y692913D01*
X473000Y687000D02*
Y692913D01*
X722563Y435000D02*
X747563Y460000D01*
X715000Y435000D02*
X722563D01*
X726000Y456000D02*
Y460000D01*
X708000Y455913D02*
X709413Y454500D01*
X724500D01*
X726000Y456000D01*
Y460000D02*
Y469500D01*
X720500Y475000D02*
X726000Y469500D01*
X714898Y475000D02*
X720500D01*
X464500Y661500D02*
X471000D01*
X372500Y683268D02*
X405768D01*
X415000Y692500D01*
X425000Y702500D01*
X605500Y801500D02*
Y822500D01*
X595500Y801500D02*
Y822500D01*
X585500Y801500D02*
Y822500D01*
X507500Y795000D02*
Y817500D01*
X517500Y795000D02*
Y817500D01*
X537500Y795000D02*
Y817500D01*
G54D59*
X360000Y477585D02*
Y485000D01*
X481587Y604000D02*
X488500D01*
X447000Y600500D02*
X456913D01*
X474500Y594500D02*
Y604000D01*
G54D60*
X785000Y676732D02*
X792468D01*
X773079D02*
X785000D01*
X807933Y710167D02*
Y717579D01*
X861837Y663937D02*
X869252D01*
X770847Y674500D02*
X773079Y676732D01*
X793000Y736095D02*
X794441Y734654D01*
G54D61*
X815500Y471500D02*
Y475000D01*
Y478500D01*
Y482000D01*
X820500Y471500D02*
Y475000D01*
Y478500D01*
Y482000D01*
X825500Y471500D02*
Y475000D01*
Y478500D01*
Y482000D01*
X830500Y471500D02*
Y475000D01*
Y478500D01*
Y482000D01*
X815500Y451941D02*
Y471500D01*
Y451941D02*
X815787Y451654D01*
X820500Y460000D02*
Y471500D01*
Y460000D02*
X824000Y456500D01*
X825500Y464000D02*
Y471500D01*
Y464000D02*
X832323Y457177D01*
Y451654D02*
Y457177D01*
X824000Y447500D02*
Y456500D01*
Y447500D02*
X828500Y443000D01*
X840205D01*
X848858Y451654D01*
X898000Y478500D02*
Y482000D01*
Y475000D02*
Y478500D01*
Y471500D02*
Y475000D01*
X893000Y478500D02*
Y482000D01*
Y475000D02*
Y478500D01*
Y471500D02*
Y475000D01*
X888000Y478500D02*
Y482000D01*
Y475000D02*
Y478500D01*
Y471500D02*
Y475000D01*
X883000Y478500D02*
Y482000D01*
Y475000D02*
Y478500D01*
Y471500D02*
Y475000D01*
Y464500D02*
Y471500D01*
Y464500D02*
X890000Y457500D01*
Y447500D02*
Y457500D01*
Y447500D02*
X895000Y442500D01*
X905846D01*
X915000Y451654D01*
X888000Y468500D02*
Y471500D01*
Y468500D02*
X898465Y458035D01*
Y451654D02*
Y458035D01*
G54D62*
X360000Y605000D02*
D03*
X995000Y755000D02*
D03*
Y615000D02*
D03*
Y665000D02*
D03*
Y705000D02*
D03*
G54D63*
X360000Y615000D02*
D03*
Y625000D02*
D03*
X595500Y822500D02*
D03*
X605500D02*
D03*
X630000Y772500D02*
D03*
X640000D02*
D03*
X995000Y735000D02*
D03*
Y745000D02*
D03*
Y595000D02*
D03*
Y605000D02*
D03*
Y645000D02*
D03*
Y655000D02*
D03*
X705000Y435000D02*
D03*
X995000Y695000D02*
D03*
X967500Y440000D02*
D03*
X977500D02*
D03*
X957500D02*
D03*
X722500Y695000D02*
D03*
G54D64*
X585500Y822500D02*
D03*
X620000Y772500D02*
D03*
X715000Y435000D02*
D03*
X987500Y440000D02*
D03*
X732500Y695000D02*
D03*
G54D65*
X866500Y513500D02*
D03*
Y501500D02*
D03*
X872000Y507500D02*
D03*
X861000D02*
D03*
X793500D02*
D03*
X804500D02*
D03*
X799000Y501500D02*
D03*
Y513500D02*
D03*
X1030000Y833300D02*
D03*
X1040800Y822500D02*
D03*
X1030000Y811700D02*
D03*
X1019200Y822500D02*
D03*
X1022300Y830200D02*
D03*
X1037700D02*
D03*
X1022300Y814800D02*
D03*
X1037700D02*
D03*
X1030000Y445800D02*
D03*
X1040800Y435000D02*
D03*
X1030000Y424200D02*
D03*
X1019200Y435000D02*
D03*
X1022300Y442700D02*
D03*
X1037700D02*
D03*
X1022300Y427300D02*
D03*
X1037700D02*
D03*
X325000Y833300D02*
D03*
X335800Y822500D02*
D03*
X325000Y811700D02*
D03*
X314200Y822500D02*
D03*
X317300Y830200D02*
D03*
X332700D02*
D03*
X317300Y814800D02*
D03*
X332700D02*
D03*
Y427300D02*
D03*
X317300D02*
D03*
X332700Y442700D02*
D03*
X317300D02*
D03*
X314200Y435000D02*
D03*
X325000Y424200D02*
D03*
X335800Y435000D02*
D03*
X325000Y445800D02*
D03*
X449000Y611000D02*
D03*
X455000D02*
D03*
X452000D02*
D03*
X573500Y668100D02*
D03*
X561500Y664100D02*
D03*
Y660100D02*
D03*
Y656100D02*
D03*
Y672100D02*
D03*
X573500Y664100D02*
D03*
Y660100D02*
D03*
Y656100D02*
D03*
X569500Y672100D02*
D03*
X557500Y664100D02*
D03*
X561500Y652100D02*
D03*
Y668100D02*
D03*
X569500Y652100D02*
D03*
X557500D02*
D03*
Y656100D02*
D03*
X565500D02*
D03*
X569500D02*
D03*
Y660100D02*
D03*
X565500Y648100D02*
D03*
X569500D02*
D03*
X565500Y652100D02*
D03*
Y664100D02*
D03*
X573500Y672100D02*
D03*
X561500Y648100D02*
D03*
X565500Y672100D02*
D03*
X557500Y660100D02*
D03*
Y648100D02*
D03*
X569500Y664100D02*
D03*
X565500Y668100D02*
D03*
X557500D02*
D03*
X569500D02*
D03*
X557500Y672100D02*
D03*
X573500Y648100D02*
D03*
Y652100D02*
D03*
X565500Y660100D02*
D03*
X449000Y614500D02*
D03*
X452000Y620500D02*
D03*
X449000D02*
D03*
X452000Y617500D02*
D03*
X449000Y624000D02*
D03*
X455000D02*
D03*
X449000Y617500D02*
D03*
X452000Y614500D02*
D03*
Y624000D02*
D03*
X455000Y614500D02*
D03*
Y617500D02*
D03*
Y620500D02*
D03*
X452000Y627000D02*
D03*
X455000D02*
D03*
X449000D02*
D03*
X452000Y608000D02*
D03*
X455000D02*
D03*
X449000D02*
D03*
X815500Y482000D02*
D03*
X820500D02*
D03*
X825500D02*
D03*
X830500D02*
D03*
X815500Y478500D02*
D03*
Y475000D02*
D03*
Y471500D02*
D03*
X820500Y478500D02*
D03*
Y475000D02*
D03*
Y471500D02*
D03*
X825500Y478500D02*
D03*
Y475000D02*
D03*
Y471500D02*
D03*
X830500Y478500D02*
D03*
Y475000D02*
D03*
Y471500D02*
D03*
X898000D02*
D03*
Y475000D02*
D03*
Y478500D02*
D03*
X893000Y471500D02*
D03*
Y475000D02*
D03*
Y478500D02*
D03*
X888000Y471500D02*
D03*
Y475000D02*
D03*
Y478500D02*
D03*
X883000Y471500D02*
D03*
Y475000D02*
D03*
Y478500D02*
D03*
X898000Y482000D02*
D03*
X893000D02*
D03*
X888000D02*
D03*
X883000D02*
D03*
X889000Y498500D02*
D03*
X888957Y502024D02*
D03*
X889000Y505500D02*
D03*
X885000D02*
D03*
X893000D02*
D03*
Y502000D02*
D03*
X885000D02*
D03*
Y498500D02*
D03*
X893000D02*
D03*
X900000Y506500D02*
D03*
Y503500D02*
D03*
Y500500D02*
D03*
Y497500D02*
D03*
X903000Y506500D02*
D03*
Y503500D02*
D03*
Y500500D02*
D03*
Y497500D02*
D03*
X906000Y506500D02*
D03*
Y503500D02*
D03*
Y500500D02*
D03*
Y497500D02*
D03*
X877000D02*
D03*
Y500500D02*
D03*
Y503500D02*
D03*
Y506500D02*
D03*
X809500D02*
D03*
Y503500D02*
D03*
Y500500D02*
D03*
Y497500D02*
D03*
X838500D02*
D03*
Y500500D02*
D03*
Y503500D02*
D03*
Y506500D02*
D03*
X835500Y497500D02*
D03*
Y500500D02*
D03*
Y503500D02*
D03*
Y506500D02*
D03*
X832500Y497500D02*
D03*
Y500500D02*
D03*
Y503500D02*
D03*
Y506500D02*
D03*
X825500Y498500D02*
D03*
X817500D02*
D03*
Y502000D02*
D03*
X825500D02*
D03*
Y505500D02*
D03*
X817500D02*
D03*
X821500D02*
D03*
X821457Y502024D02*
D03*
X821500Y498500D02*
D03*
G54D66*
X350846Y683268D02*
D03*
X372500Y666732D02*
D03*
X350846D02*
D03*
X522500Y435846D02*
D03*
X377500D02*
D03*
X350846Y727500D02*
D03*
X432500Y435846D02*
D03*
X477500D02*
D03*
X780000Y451654D02*
D03*
X435000Y819154D02*
D03*
X390000D02*
D03*
X915000Y451654D02*
D03*
X898465Y430000D02*
D03*
Y451654D02*
D03*
X881929Y430000D02*
D03*
Y451654D02*
D03*
X865394Y430000D02*
D03*
Y451654D02*
D03*
X848858Y430000D02*
D03*
Y451654D02*
D03*
X832323Y430000D02*
D03*
Y451654D02*
D03*
X815787Y430000D02*
D03*
Y451654D02*
D03*
G54D67*
X372500Y683268D02*
D03*
X372500Y727500D02*
D03*
G54D68*
X497500Y817500D02*
D03*
X530000Y742500D02*
D03*
X655000Y817500D02*
D03*
X959000Y566000D02*
D03*
X715000Y517000D02*
D03*
G54D69*
X507500Y817500D02*
D03*
X517500D02*
D03*
X527500D02*
D03*
X537500D02*
D03*
X497500Y827500D02*
D03*
X507500D02*
D03*
X517500D02*
D03*
X527500D02*
D03*
X537500D02*
D03*
X540000Y742500D02*
D03*
X550000D02*
D03*
X560000D02*
D03*
X570000D02*
D03*
X530000Y752500D02*
D03*
X540000D02*
D03*
X550000D02*
D03*
X560000D02*
D03*
X570000D02*
D03*
X665000Y817500D02*
D03*
X675000D02*
D03*
X685000D02*
D03*
X695000D02*
D03*
X655000Y827500D02*
D03*
X665000D02*
D03*
X675000D02*
D03*
X685000D02*
D03*
X695000D02*
D03*
X742500Y625000D02*
D03*
X732500D02*
D03*
X742500Y635000D02*
D03*
X732500D02*
D03*
X742500Y645000D02*
D03*
X415000Y692500D02*
D03*
X425000Y702500D02*
D03*
X969000Y576000D02*
D03*
X979000Y566000D02*
D03*
X705000Y507000D02*
D03*
X695000Y517000D02*
D03*
G54D70*
X732500Y645000D02*
D03*
X425000Y682500D02*
D03*
G54D71*
X1030000Y822500D02*
D03*
Y435000D02*
D03*
X325000Y822500D02*
D03*
Y435000D02*
D03*
G54D72*
X622000Y542500D02*
D03*
X630000Y534500D02*
D03*
Y542500D02*
D03*
X415000Y651500D02*
D03*
X423000Y659500D02*
D03*
X415000D02*
D03*
X520000Y591000D02*
D03*
Y599000D02*
D03*
X528000Y591000D02*
D03*
X595500Y628500D02*
D03*
X587000D02*
D03*
X603000Y618500D02*
D03*
X502000Y659500D02*
D03*
Y651500D02*
D03*
X494000Y659500D02*
D03*
X673500Y610500D02*
D03*
X651500D02*
D03*
Y617500D02*
D03*
X673500D02*
D03*
X640000Y567500D02*
D03*
G54D73*
X522500Y457500D02*
D03*
X377500D02*
D03*
X432500D02*
D03*
X477500D02*
D03*
X780000Y430000D02*
D03*
X435000Y797500D02*
D03*
X390000D02*
D03*
X915000Y430000D02*
D03*
G54D74*
X577500Y495000D02*
D03*
X515000D02*
D03*
X502500D02*
D03*
X490000D02*
D03*
X440000D02*
D03*
X577500Y570000D02*
D03*
X440000D02*
D03*
G54D75*
X847500Y552500D02*
D03*
X821500Y547500D02*
D03*
X480000Y700000D02*
D03*
X890000Y650000D02*
D03*
X896000Y712500D02*
D03*
X895000Y717500D02*
D03*
X904000Y725000D02*
D03*
X915000Y736000D02*
D03*
X907500Y699500D02*
D03*
X750000Y682500D02*
D03*
X730000Y675000D02*
D03*
X746500Y693000D02*
D03*
X771500Y693000D02*
D03*
X766500Y700000D02*
D03*
X676000Y735000D02*
D03*
X978000Y719500D02*
D03*
X977500Y699500D02*
D03*
X959000Y679500D02*
D03*
X966500D02*
D03*
X962500Y745000D02*
D03*
Y735000D02*
D03*
X823000Y530000D02*
D03*
X821500Y521000D02*
D03*
X697500Y539000D02*
D03*
X880000Y535500D02*
D03*
X808000Y589000D02*
D03*
X994193Y560807D02*
D03*
X557500Y462000D02*
D03*
X567500D02*
D03*
X626500Y616000D02*
D03*
X348500Y479000D02*
D03*
X869000Y762500D02*
D03*
X869000Y754000D02*
D03*
X1004500Y511000D02*
D03*
X865500Y717500D02*
D03*
X921300Y631800D02*
D03*
X757800Y732000D02*
D03*
X838642Y723700D02*
D03*
X912000Y685000D02*
D03*
X932900Y721500D02*
D03*
X833000Y724600D02*
D03*
X739600Y735000D02*
D03*
X779000Y754000D02*
D03*
X876300Y715900D02*
D03*
X944475Y606000D02*
D03*
X924475Y742000D02*
D03*
X733400Y738300D02*
D03*
X831200Y728400D02*
D03*
X764947Y785000D02*
D03*
X947446Y709418D02*
D03*
X966053Y785000D02*
D03*
X725947D02*
D03*
X751947Y778307D02*
D03*
X775053D02*
D03*
X752100Y812000D02*
D03*
X831053Y785000D02*
D03*
X947000Y527939D02*
D03*
X857053Y778307D02*
D03*
X953569Y530000D02*
D03*
X847100Y812000D02*
D03*
X966431Y535000D02*
D03*
X870053Y778307D02*
D03*
X918913Y690144D02*
D03*
X944475Y650000D02*
D03*
X966307Y609947D02*
D03*
X934046Y689260D02*
D03*
X907913Y759856D02*
D03*
X930046Y704323D02*
D03*
X997087Y539856D02*
D03*
X996693Y550053D02*
D03*
X966307Y659947D02*
D03*
X927053Y784693D02*
D03*
X946307Y749947D02*
D03*
X943100Y812000D02*
D03*
X360000Y477585D02*
D03*
X461000Y677231D02*
D03*
X700053Y456307D02*
D03*
X689569Y475000D02*
D03*
Y485000D02*
D03*
X735053Y486693D02*
D03*
X724947Y513693D02*
D03*
X565931Y713701D02*
D03*
X866069Y555000D02*
D03*
X533431Y788701D02*
D03*
X720569Y730000D02*
D03*
X766053Y738307D02*
D03*
X617915Y740000D02*
D03*
X791537Y609000D02*
D03*
X716856Y742087D02*
D03*
X694915Y740000D02*
D03*
X755947Y745000D02*
D03*
X812500Y615000D02*
D03*
X502000Y640500D02*
D03*
X488500Y604000D02*
D03*
X473000Y687000D02*
D03*
X925913Y648144D02*
D03*
X924913Y598144D02*
D03*
X736500Y480000D02*
D03*
X872500Y785000D02*
D03*
X961000Y772000D02*
D03*
X948000D02*
D03*
X799000Y569043D02*
D03*
X905100Y665400D02*
D03*
X884500Y730000D02*
D03*
X967500Y471000D02*
D03*
X987500D02*
D03*
X788500Y719000D02*
D03*
X891500Y673500D02*
D03*
X884100Y722500D02*
D03*
X882000Y677100D02*
D03*
X922500Y623500D02*
D03*
X825000Y757000D02*
D03*
X831500Y755500D02*
D03*
X817500D02*
D03*
X892500Y797000D02*
D03*
X906000Y691000D02*
D03*
X901000D02*
D03*
X781000Y569000D02*
D03*
X790000D02*
D03*
X808000Y569000D02*
D03*
X735000Y570000D02*
D03*
X742500D02*
D03*
X750000D02*
D03*
X757500D02*
D03*
X765000D02*
D03*
X809000Y491000D02*
D03*
X876500D02*
D03*
X869693Y474307D02*
D03*
X802307Y474307D02*
D03*
X812500Y535500D02*
D03*
X889000Y521500D02*
D03*
X705000Y554500D02*
D03*
X685000Y560000D02*
D03*
X832500Y522500D02*
D03*
X724800Y526300D02*
D03*
X790500Y546000D02*
D03*
X722500Y567000D02*
D03*
X717500Y562500D02*
D03*
X605500Y790000D02*
D03*
X672500Y772500D02*
D03*
X636000Y705500D02*
D03*
X851500Y754000D02*
D03*
Y762500D02*
D03*
X850000Y727500D02*
D03*
X852500Y732500D02*
D03*
X855000Y737500D02*
D03*
X807500Y755000D02*
D03*
X865000Y749000D02*
D03*
X877000D02*
D03*
X675500Y712500D02*
D03*
Y718000D02*
D03*
M02*
